<svg xmlns="http://www.w3.org/2000/svg" xmlns:xlink="http://www.w3.org/1999/xlink" width="500" zoomAndPan="magnify" viewBox="0 0 375 374.999991" height="500" preserveAspectRatio="xMidYMid meet" version="1.0"><defs><g/><clipPath id="aa8e7d61ec"><path d="M 168.324219 48.046875 L 310.195312 48.046875 L 310.195312 189.917969 L 168.324219 189.917969 Z M 168.324219 48.046875 " clip-rule="nonzero"/></clipPath><clipPath id="d69ec5bf8a"><path d="M 239.257812 48.046875 C 200.082031 48.046875 168.324219 79.804688 168.324219 118.980469 C 168.324219 158.160156 200.082031 189.917969 239.257812 189.917969 C 278.4375 189.917969 310.195312 158.160156 310.195312 118.980469 C 310.195312 79.804688 278.4375 48.046875 239.257812 48.046875 " clip-rule="nonzero"/></clipPath><clipPath id="402aa25591"><path d="M 189 2.796875 L 270 2.796875 L 270 242.796875 L 189 242.796875 Z M 189 2.796875 " clip-rule="nonzero"/></clipPath><clipPath id="2097f76127"><path d="M 104.648438 3 L 183 3 L 183 207 L 104.648438 207 Z M 104.648438 3 " clip-rule="nonzero"/></clipPath></defs><g clip-path="url(#aa8e7d61ec)"><g clip-path="url(#d69ec5bf8a)"><path fill="#1b12b0" d="M 168.324219 48.046875 L 310.195312 48.046875 L 310.195312 189.917969 L 168.324219 189.917969 Z M 168.324219 48.046875 " fill-opacity="1" fill-rule="nonzero"/></g></g><path fill="#640029" d="M 198.414062 78.117188 L 199.457031 77.257812 L 199.457031 61.164062 L 210.292969 61.164062 L 210.292969 69.804688 C 210.480469 69.691406 210.671875 69.59375 210.859375 69.488281 C 215.828125 66.648438 221.054688 64.253906 226.480469 62.453125 L 226.480469 47.917969 L 211.074219 40.929688 L 201.914062 45.082031 L 195.667969 47.917969 L 195.667969 80.496094 L 196.011719 80.15625 C 196.761719 79.421875 197.617188 78.800781 198.414062 78.117188 Z M 198.414062 78.117188 " fill-opacity="1" fill-rule="nonzero"/><path fill="#640029" d="M 227.644531 88.09375 C 225.324219 89.390625 223.070312 90.796875 220.929688 92.386719 L 219.3125 93.566406 C 218.789062 93.960938 218.449219 94.273438 217.894531 94.765625 L 214.90625 97.394531 L 211.519531 100.96875 C 211.0625 101.46875 210.601562 102.070312 210.097656 102.730469 L 209.292969 103.765625 C 209.042969 104.0625 208.839844 104.382812 208.609375 104.683594 C 207.105469 106.761719 205.78125 108.96875 204.578125 111.21875 C 205.867188 112.566406 207.105469 113.960938 208.304688 115.390625 C 208.429688 115.140625 208.519531 114.882812 208.65625 114.636719 C 210.039062 112.070312 211.632812 109.664062 213.414062 107.390625 C 213.648438 107.097656 213.878906 106.785156 214.125 106.511719 L 214.75 105.757812 C 215.1875 105.226562 215.667969 104.625 216.253906 104.035156 L 219.230469 101.125 L 219.324219 101.027344 L 219.367188 100.996094 L 221.996094 98.867188 C 222.398438 98.546875 222.972656 98.058594 223.476562 97.726562 L 224.941406 96.773438 C 226.875 95.476562 228.933594 94.324219 231.023438 93.285156 C 235.203125 91.195312 239.730469 89.726562 244.285156 88.863281 C 248.414062 88.085938 252.570312 87.695312 256.78125 87.835938 C 257.425781 85.464844 257.957031 83.046875 258.363281 80.585938 C 253.070312 80.476562 247.675781 81.15625 242.503906 82.355469 C 237.273438 83.574219 232.304688 85.507812 227.644531 88.09375 Z M 227.644531 88.09375 " fill-opacity="1" fill-rule="nonzero"/><path fill="#640029" d="M 235.960938 73.519531 C 229.222656 75.472656 222.839844 78.535156 216.988281 82.371094 C 216.242188 82.867188 215.566406 83.3125 214.851562 83.839844 L 212.679688 85.402344 C 211.972656 85.921875 211.421875 86.386719 210.746094 86.992188 L 208.757812 88.734375 C 208.621094 88.851562 208.484375 88.972656 208.34375 89.09375 C 207.816406 89.546875 207.277344 89.996094 206.792969 90.5 L 204.96875 92.414062 L 203.164062 94.300781 C 202.632812 94.878906 202.117188 95.519531 201.578125 96.214844 C 199.65625 98.605469 197.945312 101.113281 196.386719 103.699219 C 197.132812 104.300781 197.875 104.902344 198.601562 105.527344 C 199.152344 106.003906 199.691406 106.5 200.234375 106.992188 C 201.445312 105.027344 202.726562 103.113281 204.140625 101.300781 C 204.429688 100.945312 204.703125 100.566406 205 100.234375 L 205.773438 99.308594 C 206.3125 98.65625 206.898438 97.941406 207.597656 97.226562 L 211.226562 93.671875 L 211.34375 93.554688 L 211.402344 93.511719 L 214.59375 90.925781 C 215.085938 90.527344 215.800781 89.945312 216.402344 89.542969 L 218.175781 88.371094 C 220.535156 86.792969 223.042969 85.394531 225.585938 84.132812 C 230.6875 81.605469 236.1875 79.808594 241.734375 78.757812 C 247.304688 77.71875 252.917969 77.238281 258.601562 77.597656 C 258.664062 77.601562 258.722656 77.613281 258.785156 77.617188 C 259.066406 75.285156 259.242188 72.925781 259.296875 70.53125 C 258.472656 70.503906 257.648438 70.445312 256.820312 70.445312 C 249.792969 70.53125 242.710938 71.574219 235.960938 73.519531 Z M 235.960938 73.519531 " fill-opacity="1" fill-rule="nonzero"/><path fill="#640029" d="M 239.183594 115.785156 C 238.890625 115.988281 238.738281 116.113281 238.554688 116.304688 L 236.972656 117.707031 L 235.453125 119.367188 C 235.261719 119.550781 235.175781 119.679688 234.972656 119.960938 C 234.785156 120.226562 234.554688 120.574219 234.222656 120.960938 L 234.324219 120.839844 C 233.160156 122.472656 232.160156 124.183594 231.40625 125.9375 C 236.414062 122.023438 240.902344 117.480469 244.734375 112.40625 C 243.121094 113.175781 241.566406 114.082031 240.09375 115.125 C 239.757812 115.390625 239.433594 115.605469 239.183594 115.785156 Z M 239.183594 115.785156 " fill-opacity="1" fill-rule="nonzero"/><path fill="#640029" d="M 232.574219 96.257812 C 230.652344 97.332031 228.789062 98.488281 227.011719 99.808594 L 225.667969 100.777344 C 225.242188 101.09375 224.96875 101.359375 224.5 101.765625 L 222.023438 103.941406 L 219.222656 106.902344 C 218.851562 107.308594 218.480469 107.800781 218.0625 108.359375 L 217.394531 109.226562 C 217.183594 109.476562 217.019531 109.730469 216.832031 109.984375 C 215.292969 112.125 213.902344 114.402344 212.761719 116.746094 C 212.308594 117.644531 211.929688 118.582031 211.554688 119.511719 C 211.734375 119.75 211.921875 119.976562 212.09375 120.222656 C 213.347656 121.960938 214.515625 123.777344 215.632812 125.621094 C 216.300781 123.28125 217.1875 121 218.359375 118.84375 C 219.484375 116.804688 220.765625 114.914062 222.195312 113.117188 C 222.386719 112.882812 222.582031 112.617188 222.777344 112.410156 L 223.246094 111.851562 C 223.585938 111.4375 223.976562 110.945312 224.488281 110.445312 L 226.828125 108.183594 L 226.941406 108.078125 L 226.96875 108.054688 L 229.035156 106.417969 C 229.335938 106.183594 229.828125 105.757812 230.25 105.5 L 231.414062 104.765625 C 232.941406 103.757812 234.585938 102.859375 236.242188 102.050781 C 239.554688 100.414062 243.164062 99.28125 246.761719 98.632812 C 248.914062 98.25 251.070312 97.996094 253.234375 97.894531 C 254.339844 95.382812 255.3125 92.796875 256.132812 90.144531 C 252.355469 90.207031 248.535156 90.71875 244.855469 91.554688 C 240.523438 92.527344 236.421875 94.125 232.574219 96.257812 Z M 232.574219 96.257812 " fill-opacity="1" fill-rule="nonzero"/><path fill="#640029" d="M 237.714844 104.839844 C 236.222656 105.699219 234.777344 106.613281 233.394531 107.664062 L 232.34375 108.425781 C 232.019531 108.660156 231.855469 108.847656 231.472656 109.183594 L 229.550781 110.886719 L 227.359375 113.25 C 227.105469 113.527344 226.835938 113.898438 226.507812 114.347656 L 225.964844 115.0625 C 225.800781 115.257812 225.6875 115.449219 225.542969 115.640625 C 224.363281 117.3125 223.292969 119.097656 222.421875 120.921875 C 220.636719 124.523438 219.714844 129.007812 219.773438 133.355469 C 219.773438 133.355469 219.773438 133.359375 219.773438 133.359375 C 221.878906 132.28125 223.925781 131.101562 225.90625 129.828125 C 226.164062 128.671875 226.464844 127.53125 226.859375 126.390625 C 227.882812 123.433594 229.582031 120.898438 231.414062 118.613281 L 231.503906 118.507812 L 231.515625 118.492188 C 231.671875 118.34375 231.855469 118.105469 232.105469 117.792969 C 232.335938 117.5 232.707031 117.070312 233.0625 116.777344 L 234.511719 115.375 L 234.675781 115.21875 L 234.71875 115.183594 L 236.34375 113.921875 C 236.6875 113.601562 237.132812 113.308594 237.457031 113.117188 C 237.792969 112.914062 238.070312 112.757812 238.273438 112.613281 L 238.378906 112.535156 C 240.355469 111.332031 242.453125 110.277344 244.671875 109.503906 C 245.539062 109.207031 246.40625 108.996094 247.273438 108.789062 C 249.101562 106.039062 250.746094 103.171875 252.1875 100.179688 C 250.53125 100.390625 248.882812 100.6875 247.273438 101.0625 C 243.886719 101.859375 240.707031 103.136719 237.714844 104.839844 Z M 237.714844 104.839844 " fill-opacity="1" fill-rule="nonzero"/><path fill="#640029" d="M 258.988281 60.660156 C 258.304688 60.640625 257.621094 60.589844 256.941406 60.582031 C 248.835938 60.65625 240.683594 61.835938 232.898438 64.074219 C 229.796875 64.96875 226.785156 66.109375 223.828125 67.378906 C 219.375 69.292969 215.066406 71.5625 211.007812 74.210938 C 211.003906 74.214844 211 74.214844 210.988281 74.222656 C 210.132812 74.78125 209.335938 75.304688 208.511719 75.910156 L 206.019531 77.703125 C 204.476562 78.820312 203.027344 80.226562 201.46875 81.550781 C 200.71875 82.234375 199.90625 82.847656 199.207031 83.582031 L 197.097656 85.773438 L 195.015625 87.949219 C 194.828125 88.152344 194.644531 88.402344 194.457031 88.617188 C 194.023438 89.121094 193.59375 89.621094 193.15625 90.175781 C 191.230469 92.5625 189.503906 95.066406 187.882812 97.625 C 188.101562 97.765625 188.324219 97.890625 188.542969 98.03125 C 189.8125 98.84375 191.0625 99.699219 192.292969 100.582031 C 193.992188 98 195.816406 95.511719 197.785156 93.195312 C 198.371094 92.484375 198.996094 91.746094 199.707031 91.019531 L 201.679688 89.074219 L 203.636719 87.148438 C 204.292969 86.507812 205.039062 85.96875 205.730469 85.375 L 207.855469 83.632812 C 208.535156 83.0625 209.386719 82.40625 210.152344 81.890625 L 210.242188 81.835938 L 212.414062 80.390625 C 213.164062 79.878906 214.007812 79.363281 214.78125 78.898438 C 221.09375 75.089844 227.945312 72.140625 235.082031 70.351562 C 242.203125 68.535156 249.511719 67.691406 256.855469 67.832031 C 257.683594 67.859375 258.511719 67.945312 259.335938 68 L 259.335938 67.367188 C 259.347656 65.058594 259.210938 62.828125 258.988281 60.660156 Z M 258.988281 60.660156 " fill-opacity="1" fill-rule="nonzero"/><path fill="#640029" d="M 138.152344 116.425781 C 135.667969 115.703125 133.105469 115.144531 130.523438 114.765625 C 131.488281 115.941406 132.503906 117.078125 133.539062 118.191406 C 134 118.289062 134.460938 118.359375 134.917969 118.464844 C 143.871094 120.65625 152.417969 125.28125 158.761719 132.46875 C 160.023438 133.886719 161.152344 135.453125 162.191406 137.082031 C 163.699219 137.621094 165.230469 138.105469 166.78125 138.542969 C 165.785156 136.707031 164.660156 134.933594 163.355469 133.265625 C 157.171875 125.296875 148.050781 119.480469 138.152344 116.425781 Z M 138.152344 116.425781 " fill-opacity="1" fill-rule="nonzero"/><path fill="#640029" d="M 159.117188 85.355469 C 160.921875 85.804688 162.703125 86.324219 164.484375 86.875 C 164.917969 87.011719 165.351562 87.144531 165.78125 87.285156 C 166.007812 87.355469 166.238281 87.421875 166.464844 87.5 C 170.339844 88.785156 174.140625 90.3125 177.839844 92.070312 C 174.238281 90.050781 170.449219 88.296875 166.546875 86.726562 C 166.28125 86.621094 166.015625 86.507812 165.75 86.40625 L 165.632812 83.511719 L 165.480469 79.621094 L 166.046875 83.394531 C 167.558594 82.8125 168.671875 80.773438 168.671875 77.292969 C 168.671875 73.132812 166.570312 67.164062 165.128906 67.164062 C 163.71875 67.164062 161.585938 73.132812 161.585938 77.292969 C 161.585938 81.085938 162.90625 83.171875 164.625 83.511719 L 164.527344 85.90625 C 161.71875 84.851562 158.867188 83.875 155.925781 83.054688 L 155.910156 83.046875 C 155.253906 82.871094 154.609375 82.726562 153.957031 82.5625 C 153.5625 82.46875 153.164062 82.363281 152.773438 82.269531 L 152.582031 77.367188 L 152.367188 71.917969 L 153.152344 77.199219 C 155.265625 76.390625 156.832031 73.53125 156.832031 68.65625 C 156.832031 62.832031 153.886719 54.480469 151.867188 54.480469 C 149.890625 54.480469 146.902344 62.832031 146.902344 68.65625 C 146.902344 73.96875 148.753906 76.886719 151.15625 77.367188 L 150.980469 81.855469 C 146.945312 80.964844 143.011719 80.335938 139.195312 79.964844 C 138.710938 79.914062 138.238281 79.890625 137.761719 79.851562 L 137.527344 74.046875 L 137.25 66.96875 L 138.277344 73.832031 C 141.023438 72.777344 143.0625 69.066406 143.0625 62.726562 C 143.0625 55.152344 139.234375 44.296875 136.605469 44.296875 C 134.035156 44.296875 130.152344 55.152344 130.152344 62.726562 C 130.152344 69.628906 132.558594 73.425781 135.683594 74.054688 L 135.464844 79.679688 C 128.285156 79.257812 121.507812 79.710938 115.089844 80.816406 C 115.085938 80.816406 115.078125 80.824219 115.070312 80.824219 C 115.121094 81.097656 115.167969 81.371094 115.214844 81.644531 C 115.332031 82.285156 115.4375 82.933594 115.570312 83.566406 C 115.664062 84.003906 115.773438 84.429688 115.875 84.867188 C 115.882812 84.863281 115.898438 84.863281 115.90625 84.863281 C 130.011719 81.738281 144.929688 81.964844 159.117188 85.355469 Z M 159.117188 85.355469 " fill-opacity="1" fill-rule="nonzero"/><path fill="#640029" d="M 173.847656 132.410156 C 173.554688 131.988281 173.214844 131.59375 172.90625 131.183594 C 172.425781 130.53125 171.949219 129.882812 171.429688 129.253906 C 169.070312 126.398438 166.367188 123.8125 163.417969 121.492188 C 162.46875 120.742188 161.519531 120 160.523438 119.308594 C 155.328125 115.699219 149.496094 112.863281 143.367188 111.039062 C 139.023438 109.742188 134.507812 108.949219 129.957031 108.632812 C 128.617188 108.539062 127.273438 108.507812 125.929688 108.5 C 126.484375 109.351562 127.066406 110.183594 127.65625 111.011719 C 129.585938 111.09375 131.507812 111.277344 133.425781 111.546875 C 135.359375 111.820312 137.289062 112.152344 139.191406 112.609375 C 146.023438 114.320312 152.640625 117.21875 158.496094 121.308594 C 161.886719 123.675781 165.027344 126.433594 167.804688 129.609375 C 168.988281 130.960938 170.070312 132.421875 171.09375 133.925781 C 171.667969 134.78125 172.25 135.628906 172.761719 136.527344 C 173.46875 137.753906 174.113281 139.019531 174.699219 140.324219 C 175.496094 140.460938 176.300781 140.574219 177.109375 140.679688 C 177.546875 140.738281 177.984375 140.796875 178.421875 140.847656 C 177.976562 139.75 177.484375 138.664062 176.945312 137.601562 C 176.035156 135.8125 175.007812 134.074219 173.847656 132.410156 Z M 173.847656 132.410156 " fill-opacity="1" fill-rule="nonzero"/><path fill="#640029" d="M 185.015625 130.09375 C 184.210938 128.964844 183.367188 127.867188 182.488281 126.792969 C 181.117188 125.132812 179.640625 123.566406 178.101562 122.046875 C 177.300781 121.257812 176.480469 120.484375 175.636719 119.730469 C 175.324219 119.453125 175.011719 119.179688 174.695312 118.910156 C 174.253906 118.53125 173.820312 118.144531 173.367188 117.773438 C 169.050781 114.269531 164.277344 111.273438 159.207031 108.871094 C 148.960938 103.921875 137.484375 101.511719 125.996094 101.804688 C 125.3125 101.828125 124.632812 101.894531 123.949219 101.933594 C 123.351562 101.972656 122.75 101.996094 122.148438 102.050781 C 122.621094 102.960938 123.109375 103.859375 123.617188 104.746094 C 124.445312 104.691406 125.277344 104.683594 126.105469 104.664062 C 132.300781 104.503906 138.53125 105.15625 144.5625 106.59375 C 151.222656 108.300781 157.675781 110.855469 163.660156 114.398438 C 166.699219 116.195312 169.59375 118.265625 172.316406 120.5625 C 172.421875 120.648438 172.515625 120.75 172.621094 120.835938 C 173.09375 121.242188 173.542969 121.679688 174.007812 122.101562 C 175.230469 123.210938 176.417969 124.371094 177.558594 125.578125 C 178.277344 126.335938 179.015625 127.074219 179.695312 127.871094 C 180.507812 128.828125 181.28125 129.824219 182.039062 130.835938 C 184.230469 133.761719 186.164062 136.917969 187.769531 140.289062 C 187.925781 140.617188 188.09375 140.949219 188.242188 141.285156 C 189.234375 141.265625 190.21875 141.234375 191.191406 141.171875 C 190.144531 138.664062 188.902344 136.242188 187.492188 133.902344 C 186.71875 132.613281 185.894531 131.335938 185.015625 130.09375 Z M 185.015625 130.09375 " fill-opacity="1" fill-rule="nonzero"/><path fill="#640029" d="M 195.746094 127.398438 C 195 126.316406 194.167969 125.304688 193.363281 124.273438 C 192.148438 122.714844 190.871094 121.210938 189.527344 119.753906 C 188.261719 118.386719 186.949219 117.066406 185.578125 115.792969 C 185.429688 115.652344 185.277344 115.519531 185.128906 115.378906 C 183.769531 114.136719 182.371094 112.9375 180.917969 111.796875 C 179.835938 110.949219 178.761719 110.089844 177.636719 109.296875 C 177.195312 108.984375 176.734375 108.703125 176.289062 108.402344 C 169.378906 103.742188 161.714844 100.105469 153.671875 97.730469 C 142.757812 94.5625 131.085938 93.605469 119.738281 95.164062 C 119.519531 95.195312 119.292969 95.226562 119.070312 95.261719 C 119.441406 96.203125 119.832031 97.136719 120.238281 98.058594 C 120.578125 98.011719 120.921875 97.9375 121.261719 97.890625 C 122.765625 97.695312 124.273438 97.539062 125.78125 97.441406 C 143.0625 96.125 160.933594 100.945312 175.378906 111.003906 C 175.808594 111.304688 176.234375 111.601562 176.652344 111.902344 C 177.804688 112.742188 178.933594 113.621094 180.039062 114.527344 C 181.03125 115.34375 181.996094 116.1875 182.949219 117.058594 C 183.378906 117.453125 183.816406 117.839844 184.238281 118.246094 C 185.820312 119.765625 187.328125 121.378906 188.765625 123.054688 C 189.511719 123.917969 190.257812 124.78125 190.960938 125.691406 C 191.578125 126.484375 192.144531 127.332031 192.722656 128.160156 C 195.066406 131.53125 197.09375 135.15625 198.714844 138.972656 C 198.894531 139.390625 199.058594 139.808594 199.226562 140.230469 C 200.273438 140.046875 201.3125 139.847656 202.347656 139.621094 C 201.285156 137.011719 200.046875 134.46875 198.640625 132.007812 C 197.730469 130.4375 196.78125 128.894531 195.746094 127.398438 Z M 195.746094 127.398438 " fill-opacity="1" fill-rule="nonzero"/><path fill="#640029" d="M 205.460938 124.84375 C 205.328125 124.648438 205.183594 124.457031 205.046875 124.261719 C 203.832031 122.5 202.546875 120.78125 201.1875 119.121094 C 199.734375 117.34375 198.191406 115.625 196.589844 113.964844 C 195.503906 112.84375 194.394531 111.746094 193.253906 110.679688 C 193.132812 110.570312 193.007812 110.464844 192.882812 110.347656 C 191.519531 109.097656 190.113281 107.886719 188.671875 106.722656 C 187.375 105.671875 186.0625 104.644531 184.710938 103.667969 C 184.648438 103.621094 184.582031 103.585938 184.519531 103.542969 C 183.457031 102.777344 182.332031 102.101562 181.234375 101.386719 C 180.816406 101.113281 180.40625 100.832031 179.984375 100.566406 C 173.085938 96.25 165.582031 92.816406 157.75 90.398438 C 148.0625 87.542969 137.847656 86.167969 127.660156 86.5625 C 123.980469 86.71875 120.300781 87.109375 116.65625 87.738281 C 116.632812 87.746094 116.609375 87.75 116.578125 87.75 C 116.886719 88.875 117.214844 89.988281 117.574219 91.097656 C 117.667969 91.078125 117.769531 91.058594 117.867188 91.039062 C 130.136719 88.632812 143.007812 89.042969 155.214844 92.050781 C 163.585938 94.203125 171.679688 97.636719 179.140625 102.15625 C 179.578125 102.417969 180.027344 102.660156 180.460938 102.933594 C 181.558594 103.621094 182.617188 104.375 183.683594 105.121094 C 185.132812 106.128906 186.5625 107.160156 187.945312 108.257812 C 189.316406 109.347656 190.65625 110.464844 191.957031 111.640625 C 192.046875 111.71875 192.144531 111.792969 192.234375 111.875 C 193.511719 113.042969 194.714844 114.296875 195.921875 115.546875 C 197.5625 117.261719 199.128906 119.050781 200.617188 120.917969 C 201.121094 121.550781 201.675781 122.144531 202.164062 122.796875 C 203.003906 123.925781 203.800781 125.082031 204.574219 126.253906 C 206.03125 128.460938 207.359375 130.75 208.566406 133.109375 C 209.265625 134.488281 209.921875 135.882812 210.539062 137.304688 C 211.050781 137.125 211.566406 136.953125 212.070312 136.761719 C 211.101562 134.5625 210.023438 132.40625 208.84375 130.304688 C 207.785156 128.453125 206.671875 126.621094 205.460938 124.84375 Z M 205.460938 124.84375 " fill-opacity="1" fill-rule="nonzero"/><path fill="#ba905d" d="M 256.863281 67.828125 C 249.523438 67.6875 242.21875 68.527344 235.09375 70.34375 C 227.953125 72.132812 221.097656 75.085938 214.792969 78.894531 C 214.019531 79.363281 213.179688 79.878906 212.425781 80.386719 L 210.25 81.828125 L 210.164062 81.886719 C 209.398438 82.402344 208.546875 83.058594 207.863281 83.628906 L 205.742188 85.371094 C 205.046875 85.964844 204.300781 86.503906 203.648438 87.144531 L 201.6875 89.070312 L 199.714844 91.015625 C 199.003906 91.742188 198.378906 92.484375 197.792969 93.1875 C 195.832031 95.511719 194 97.996094 192.300781 100.578125 C 191.074219 99.699219 189.824219 98.839844 188.550781 98.023438 C 188.335938 97.886719 188.109375 97.757812 187.894531 97.621094 C 189.511719 95.058594 191.234375 92.550781 193.164062 90.171875 C 193.601562 89.617188 194.035156 89.117188 194.46875 88.613281 C 194.65625 88.398438 194.835938 88.148438 195.023438 87.945312 L 197.109375 85.769531 L 199.214844 83.574219 C 199.917969 82.847656 200.726562 82.226562 201.476562 81.546875 C 203.039062 80.226562 204.488281 78.816406 206.03125 77.699219 L 208.519531 75.90625 C 209.347656 75.300781 210.140625 74.777344 211 74.214844 C 211.003906 74.210938 211.007812 74.210938 211.019531 74.207031 C 215.074219 71.558594 219.382812 69.289062 223.839844 67.375 C 226.796875 66.105469 229.8125 64.964844 232.910156 64.070312 C 240.691406 61.832031 248.839844 60.65625 256.949219 60.578125 C 257.632812 60.582031 258.3125 60.636719 258.996094 60.65625 C 258.910156 59.820312 258.792969 59.003906 258.675781 58.1875 C 258.664062 58.121094 258.65625 58.050781 258.644531 57.984375 C 258.09375 57.953125 257.546875 57.890625 256.992188 57.878906 C 254.683594 57.835938 252.375 57.898438 250.074219 58.027344 L 250.074219 46.253906 L 232.515625 38.285156 L 211.085938 38.285156 L 200.449219 43.113281 C 191.59375 32.078125 178.015625 25 162.761719 25 C 136.085938 25 114.453125 46.605469 114.453125 73.261719 C 114.453125 75.832031 114.710938 78.34375 115.101562 80.808594 C 121.515625 79.699219 128.296875 79.253906 135.472656 79.671875 L 135.695312 74.042969 C 132.574219 73.414062 130.164062 69.621094 130.164062 62.71875 C 130.164062 55.144531 134.042969 44.289062 136.617188 44.289062 C 139.238281 44.289062 143.070312 55.144531 143.070312 62.71875 C 143.070312 69.054688 141.035156 72.769531 138.289062 73.824219 L 137.261719 66.957031 L 137.539062 74.039062 L 137.769531 79.84375 C 138.25 79.882812 138.71875 79.90625 139.207031 79.953125 C 143.023438 80.328125 146.949219 80.957031 150.988281 81.84375 L 151.164062 77.359375 C 148.765625 76.878906 146.910156 73.957031 146.910156 68.648438 C 146.910156 62.824219 149.898438 54.472656 151.875 54.472656 C 153.894531 54.472656 156.839844 62.824219 156.839844 68.648438 C 156.839844 73.519531 155.277344 76.378906 153.164062 77.191406 L 152.375 71.910156 L 152.59375 77.359375 L 152.785156 82.261719 C 153.179688 82.351562 153.570312 82.453125 153.964844 82.554688 C 154.617188 82.71875 155.261719 82.859375 155.917969 83.039062 L 155.933594 83.042969 C 158.878906 83.863281 161.734375 84.84375 164.539062 85.898438 L 164.632812 83.503906 C 162.921875 83.160156 161.59375 81.070312 161.59375 77.28125 C 161.59375 73.121094 163.726562 67.15625 165.140625 67.15625 C 166.578125 67.15625 168.683594 73.121094 168.683594 77.28125 C 168.683594 80.765625 167.5625 82.804688 166.054688 83.382812 L 165.488281 79.613281 L 165.644531 83.503906 L 165.757812 86.398438 C 166.027344 86.503906 166.285156 86.613281 166.554688 86.71875 C 170.457031 88.285156 174.246094 90.042969 177.847656 92.0625 C 174.152344 90.300781 170.347656 88.777344 166.472656 87.492188 C 166.246094 87.414062 166.015625 87.351562 165.792969 87.273438 C 165.359375 87.136719 164.925781 87 164.496094 86.867188 C 162.71875 86.316406 160.933594 85.796875 159.128906 85.347656 C 144.933594 81.953125 130.015625 81.734375 115.90625 84.84375 C 115.898438 84.847656 115.882812 84.847656 115.875 84.847656 C 116.09375 85.820312 116.332031 86.785156 116.589844 87.738281 C 116.613281 87.734375 116.636719 87.730469 116.667969 87.730469 C 120.3125 87.101562 123.992188 86.707031 127.671875 86.554688 C 137.855469 86.15625 148.074219 87.535156 157.757812 90.386719 C 165.589844 92.804688 173.09375 96.246094 179.996094 100.558594 C 180.417969 100.820312 180.824219 101.105469 181.242188 101.378906 C 182.34375 102.09375 183.460938 102.769531 184.527344 103.53125 C 184.589844 103.574219 184.65625 103.613281 184.71875 103.65625 C 186.070312 104.636719 187.382812 105.660156 188.679688 106.710938 C 190.121094 107.878906 191.527344 109.085938 192.890625 110.339844 C 193.011719 110.449219 193.140625 110.554688 193.261719 110.671875 C 194.410156 111.734375 195.515625 112.832031 196.597656 113.957031 C 198.203125 115.617188 199.742188 117.332031 201.199219 119.113281 C 202.558594 120.773438 203.839844 122.488281 205.054688 124.25 C 205.1875 124.449219 205.339844 124.640625 205.472656 124.835938 C 206.683594 126.609375 207.796875 128.441406 208.847656 130.308594 C 210.027344 132.410156 211.105469 134.5625 212.074219 136.765625 C 212.789062 136.503906 213.496094 136.21875 214.195312 135.929688 C 214.976562 135.613281 215.742188 135.277344 216.507812 134.933594 C 217.605469 134.441406 218.695312 133.917969 219.765625 133.363281 C 219.773438 133.359375 219.777344 133.359375 219.785156 133.355469 C 219.785156 133.355469 219.785156 133.351562 219.785156 133.351562 C 219.726562 129.003906 220.648438 124.519531 222.4375 120.917969 C 223.308594 119.09375 224.375 117.308594 225.558594 115.636719 C 225.703125 115.441406 225.8125 115.25 225.980469 115.058594 L 226.523438 114.34375 C 226.847656 113.894531 227.117188 113.523438 227.371094 113.246094 L 229.566406 110.882812 L 231.488281 109.179688 C 231.871094 108.84375 232.03125 108.65625 232.355469 108.421875 L 233.410156 107.65625 C 234.792969 106.605469 236.238281 105.695312 237.730469 104.835938 C 240.726562 103.128906 243.898438 101.847656 247.300781 101.0625 C 248.90625 100.691406 250.554688 100.390625 252.210938 100.179688 C 252.578125 99.421875 252.914062 98.648438 253.253906 97.875 C 251.082031 97.980469 248.933594 98.230469 246.78125 98.613281 C 243.183594 99.261719 239.574219 100.394531 236.261719 102.03125 C 234.605469 102.839844 232.960938 103.738281 231.433594 104.746094 L 230.269531 105.480469 C 229.851562 105.742188 229.359375 106.164062 229.054688 106.402344 L 226.988281 108.035156 L 226.960938 108.058594 L 226.847656 108.164062 L 224.507812 110.425781 C 223.996094 110.925781 223.609375 111.417969 223.265625 111.832031 L 222.796875 112.390625 C 222.601562 112.601562 222.40625 112.863281 222.214844 113.097656 C 220.789062 114.902344 219.503906 116.785156 218.378906 118.824219 C 217.207031 120.980469 216.316406 123.261719 215.652344 125.601562 C 214.539062 123.757812 213.371094 121.949219 212.113281 120.203125 C 211.941406 119.960938 211.753906 119.730469 211.574219 119.492188 C 211.949219 118.5625 212.328125 117.625 212.78125 116.730469 C 213.921875 114.378906 215.3125 112.105469 216.851562 109.964844 C 217.039062 109.714844 217.207031 109.457031 217.414062 109.207031 L 218.082031 108.339844 C 218.5 107.78125 218.867188 107.292969 219.242188 106.886719 L 222.042969 103.921875 L 224.519531 101.746094 C 224.984375 101.339844 225.253906 101.074219 225.6875 100.757812 L 227.03125 99.789062 C 228.808594 98.472656 230.667969 97.316406 232.59375 96.242188 C 236.441406 94.101562 240.542969 92.503906 244.875 91.519531 C 248.550781 90.683594 252.375 90.171875 256.152344 90.109375 C 256.382812 89.355469 256.59375 88.589844 256.800781 87.824219 C 252.589844 87.6875 248.433594 88.074219 244.304688 88.851562 C 239.746094 89.714844 235.222656 91.1875 231.042969 93.277344 C 228.953125 94.316406 226.890625 95.46875 224.960938 96.761719 L 223.496094 97.71875 C 222.992188 98.046875 222.414062 98.535156 222.015625 98.859375 L 219.386719 100.984375 L 219.34375 101.019531 L 219.25 101.113281 L 216.269531 104.027344 C 215.679688 104.617188 215.199219 105.214844 214.769531 105.75 L 214.144531 106.5 C 213.894531 106.773438 213.667969 107.085938 213.433594 107.378906 C 211.652344 109.65625 210.054688 112.0625 208.675781 114.628906 C 208.546875 114.871094 208.449219 115.132812 208.324219 115.378906 C 207.125 113.953125 205.890625 112.550781 204.597656 111.207031 C 205.800781 108.953125 207.125 106.75 208.628906 104.671875 C 208.859375 104.367188 209.058594 104.054688 209.3125 103.757812 L 210.117188 102.722656 C 210.621094 102.054688 211.082031 101.460938 211.535156 100.960938 L 214.925781 97.386719 L 217.914062 94.757812 C 218.46875 94.265625 218.804688 93.953125 219.328125 93.558594 L 220.949219 92.378906 C 223.089844 90.785156 225.339844 89.386719 227.664062 88.085938 C 232.324219 85.5 237.292969 83.570312 242.527344 82.363281 C 247.691406 81.164062 253.09375 80.480469 258.386719 80.59375 C 258.550781 79.609375 258.683594 78.609375 258.804688 77.613281 C 258.742188 77.609375 258.683594 77.597656 258.621094 77.59375 C 252.9375 77.234375 247.324219 77.714844 241.753906 78.753906 C 236.207031 79.808594 230.703125 81.597656 225.605469 84.128906 C 223.054688 85.390625 220.554688 86.789062 218.195312 88.367188 L 216.421875 89.539062 C 215.816406 89.9375 215.105469 90.523438 214.613281 90.921875 L 211.421875 93.507812 L 211.363281 93.550781 L 211.242188 93.667969 L 207.617188 97.222656 C 206.917969 97.9375 206.332031 98.652344 205.792969 99.304688 L 205.019531 100.230469 C 204.71875 100.566406 204.445312 100.941406 204.160156 101.296875 C 202.746094 103.109375 201.464844 105.023438 200.253906 106.984375 C 199.710938 106.496094 199.171875 105.996094 198.621094 105.523438 C 197.894531 104.898438 197.152344 104.292969 196.40625 103.695312 C 197.96875 101.109375 199.675781 98.601562 201.597656 96.210938 C 202.136719 95.519531 202.652344 94.875 203.183594 94.296875 L 204.988281 92.40625 L 206.8125 90.492188 C 207.296875 89.988281 207.835938 89.542969 208.363281 89.085938 C 208.503906 88.96875 208.640625 88.851562 208.777344 88.726562 L 210.765625 86.988281 C 211.4375 86.382812 211.992188 85.917969 212.699219 85.398438 L 214.871094 83.835938 C 215.585938 83.308594 216.261719 82.859375 217.007812 82.367188 C 222.859375 78.523438 229.234375 75.46875 235.980469 73.515625 C 242.734375 71.5625 249.8125 70.527344 256.84375 70.441406 C 257.671875 70.445312 258.496094 70.503906 259.324219 70.527344 C 259.335938 69.933594 259.367188 69.34375 259.367188 68.746094 L 259.367188 67.988281 C 258.515625 67.941406 257.695312 67.855469 256.863281 67.828125 Z M 211.074219 40.929688 L 226.484375 47.917969 L 226.484375 62.453125 C 221.058594 64.257812 215.835938 66.652344 210.863281 69.488281 C 210.675781 69.59375 210.484375 69.699219 210.296875 69.804688 L 210.296875 61.164062 L 199.457031 61.164062 L 199.457031 77.257812 L 198.414062 78.117188 C 197.617188 78.800781 196.761719 79.425781 196.011719 80.160156 L 195.667969 80.5 L 195.667969 47.917969 L 201.914062 45.082031 Z M 232.011719 60.8125 C 230.964844 61.082031 229.9375 61.425781 228.898438 61.738281 L 228.898438 47.90625 L 247.5625 47.765625 L 247.65625 47.804688 L 247.65625 58.234375 C 242.382812 58.664062 237.148438 59.488281 232.011719 60.8125 Z M 232.011719 60.8125 " fill-opacity="1" fill-rule="nonzero"/><path fill="#ba905d" d="M 238.378906 112.550781 L 238.273438 112.628906 C 238.070312 112.765625 237.792969 112.929688 237.457031 113.132812 C 237.132812 113.324219 236.6875 113.617188 236.34375 113.9375 L 234.71875 115.199219 L 234.675781 115.230469 L 234.511719 115.390625 L 233.0625 116.792969 C 232.710938 117.082031 232.335938 117.515625 232.105469 117.808594 C 231.863281 118.121094 231.671875 118.359375 231.515625 118.507812 L 231.503906 118.523438 L 231.414062 118.628906 C 229.578125 120.90625 227.882812 123.449219 226.859375 126.40625 C 226.464844 127.542969 226.164062 128.6875 225.90625 129.84375 C 227.800781 128.628906 229.632812 127.332031 231.402344 125.949219 C 232.15625 124.191406 233.148438 122.476562 234.320312 120.847656 L 234.21875 120.96875 C 234.550781 120.585938 234.78125 120.234375 234.96875 119.972656 C 235.171875 119.6875 235.257812 119.558594 235.449219 119.375 L 236.964844 117.71875 L 238.550781 116.316406 C 238.726562 116.125 238.886719 116 239.179688 115.792969 C 239.429688 115.617188 239.75 115.398438 240.085938 115.132812 C 241.5625 114.085938 243.117188 113.183594 244.730469 112.410156 C 245.617188 111.234375 246.464844 110.03125 247.28125 108.804688 C 246.410156 109.011719 245.539062 109.222656 244.675781 109.519531 C 242.453125 110.285156 240.359375 111.347656 238.378906 112.550781 Z M 238.378906 112.550781 " fill-opacity="1" fill-rule="nonzero"/><path fill="#ba905d" d="M 204.570312 126.265625 C 203.796875 125.089844 202.996094 123.929688 202.160156 122.808594 C 201.675781 122.152344 201.121094 121.5625 200.613281 120.925781 C 199.125 119.058594 197.5625 117.269531 195.917969 115.558594 C 194.710938 114.304688 193.511719 113.050781 192.230469 111.882812 C 192.136719 111.800781 192.042969 111.730469 191.949219 111.648438 C 190.65625 110.472656 189.308594 109.351562 187.941406 108.265625 C 186.558594 107.167969 185.128906 106.136719 183.679688 105.128906 C 182.613281 104.386719 181.554688 103.632812 180.457031 102.941406 C 180.023438 102.667969 179.574219 102.429688 179.136719 102.164062 C 171.679688 97.640625 163.582031 94.207031 155.207031 92.0625 C 143 89.050781 130.128906 88.640625 117.863281 91.050781 C 117.765625 91.070312 117.664062 91.082031 117.570312 91.105469 C 118.023438 92.519531 118.527344 93.902344 119.066406 95.277344 C 119.289062 95.242188 119.507812 95.207031 119.734375 95.179688 C 131.074219 93.621094 142.753906 94.574219 153.667969 97.746094 C 161.710938 100.121094 169.378906 103.757812 176.285156 108.414062 C 176.730469 108.71875 177.191406 109 177.632812 109.3125 C 178.761719 110.105469 179.832031 110.960938 180.910156 111.8125 C 182.363281 112.953125 183.765625 114.152344 185.125 115.394531 C 185.273438 115.535156 185.425781 115.667969 185.574219 115.808594 C 186.941406 117.078125 188.253906 118.402344 189.519531 119.769531 C 190.867188 121.222656 192.144531 122.730469 193.359375 124.289062 C 194.160156 125.320312 194.996094 126.332031 195.738281 127.410156 C 196.773438 128.910156 197.726562 130.453125 198.628906 132.027344 C 200.035156 134.488281 201.28125 137.03125 202.335938 139.640625 C 202.796875 139.539062 203.253906 139.433594 203.714844 139.324219 C 205.386719 138.921875 207.039062 138.472656 208.660156 137.960938 C 209.289062 137.765625 209.910156 137.542969 210.527344 137.328125 C 209.917969 135.90625 209.261719 134.507812 208.554688 133.136719 C 207.351562 130.761719 206.019531 128.46875 204.570312 126.265625 Z M 204.570312 126.265625 " fill-opacity="1" fill-rule="nonzero"/><path fill="#ba905d" d="M 192.71875 128.167969 C 192.144531 127.339844 191.578125 126.496094 190.957031 125.699219 C 190.257812 124.792969 189.507812 123.929688 188.761719 123.066406 C 187.320312 121.386719 185.820312 119.78125 184.234375 118.253906 C 183.8125 117.847656 183.375 117.460938 182.941406 117.070312 C 181.992188 116.199219 181.027344 115.351562 180.035156 114.535156 C 178.929688 113.628906 177.804688 112.75 176.648438 111.914062 C 176.230469 111.605469 175.804688 111.3125 175.375 111.015625 C 160.925781 100.960938 143.054688 96.132812 125.773438 97.449219 C 124.265625 97.554688 122.757812 97.703125 121.257812 97.898438 C 120.914062 97.941406 120.574219 98.015625 120.234375 98.066406 C 120.835938 99.421875 121.472656 100.753906 122.15625 102.0625 C 122.753906 102.011719 123.355469 101.988281 123.957031 101.949219 C 124.636719 101.90625 125.320312 101.839844 126 101.820312 C 137.484375 101.527344 148.960938 103.933594 159.214844 108.886719 C 164.285156 111.285156 169.058594 114.28125 173.375 117.789062 C 173.824219 118.160156 174.257812 118.546875 174.699219 118.925781 C 175.015625 119.199219 175.328125 119.472656 175.640625 119.746094 C 176.484375 120.5 177.300781 121.273438 178.109375 122.0625 C 179.644531 123.578125 181.125 125.148438 182.492188 126.808594 C 183.375 127.878906 184.21875 128.976562 185.023438 130.109375 C 185.894531 131.351562 186.71875 132.625 187.5 133.921875 C 188.910156 136.261719 190.15625 138.691406 191.203125 141.1875 C 191.625 141.164062 192.042969 141.125 192.464844 141.09375 C 194.605469 140.925781 196.722656 140.671875 198.808594 140.320312 C 198.945312 140.296875 199.085938 140.273438 199.226562 140.25 C 199.058594 139.832031 198.894531 139.410156 198.714844 138.992188 C 197.089844 135.164062 195.0625 131.539062 192.71875 128.167969 Z M 192.71875 128.167969 " fill-opacity="1" fill-rule="nonzero"/><path fill="#ba905d" d="M 182.046875 130.84375 C 181.292969 129.828125 180.511719 128.835938 179.703125 127.878906 C 179.019531 127.082031 178.285156 126.34375 177.566406 125.585938 C 176.421875 124.375 175.242188 123.21875 174.011719 122.105469 C 173.546875 121.683594 173.101562 121.246094 172.625 120.839844 C 172.523438 120.753906 172.425781 120.652344 172.320312 120.566406 C 169.597656 118.269531 166.699219 116.199219 163.664062 114.402344 C 157.683594 110.863281 151.226562 108.304688 144.570312 106.597656 C 138.539062 105.164062 132.304688 104.511719 126.109375 104.667969 C 125.28125 104.6875 124.449219 104.699219 123.625 104.75 C 124.355469 106.027344 125.117188 107.273438 125.921875 108.5 C 127.269531 108.507812 128.613281 108.535156 129.953125 108.632812 C 134.503906 108.941406 139.019531 109.738281 143.363281 111.039062 C 149.488281 112.867188 155.324219 115.703125 160.519531 119.308594 C 161.511719 120 162.46875 120.742188 163.414062 121.492188 C 166.363281 123.8125 169.066406 126.40625 171.425781 129.253906 C 171.941406 129.878906 172.421875 130.53125 172.902344 131.183594 C 173.210938 131.59375 173.550781 131.984375 173.84375 132.410156 C 175.007812 134.070312 176.027344 135.8125 176.9375 137.601562 C 177.472656 138.664062 177.972656 139.75 178.410156 140.847656 C 179.636719 140.988281 180.863281 141.09375 182.101562 141.175781 C 183.621094 141.269531 185.152344 141.332031 186.691406 141.332031 C 187.089844 141.332031 187.492188 141.308594 187.890625 141.304688 C 188.007812 141.304688 188.128906 141.300781 188.242188 141.292969 C 188.089844 140.957031 187.925781 140.628906 187.769531 140.296875 C 186.167969 136.925781 184.230469 133.769531 182.046875 130.84375 Z M 182.046875 130.84375 " fill-opacity="1" fill-rule="nonzero"/><path fill="#ba905d" d="M 171.089844 133.929688 C 170.066406 132.425781 168.984375 130.960938 167.796875 129.613281 C 165.027344 126.4375 161.886719 123.679688 158.492188 121.316406 C 152.636719 117.226562 146.019531 114.324219 139.1875 112.613281 C 137.285156 112.15625 135.355469 111.824219 133.417969 111.550781 C 131.503906 111.285156 129.582031 111.097656 127.652344 111.015625 C 128.570312 112.296875 129.519531 113.554688 130.519531 114.765625 C 133.105469 115.140625 135.660156 115.703125 138.148438 116.425781 C 148.042969 119.480469 157.167969 125.296875 163.351562 133.269531 C 164.652344 134.9375 165.78125 136.71875 166.777344 138.546875 C 168.234375 138.964844 169.714844 139.335938 171.210938 139.664062 C 171.785156 139.789062 172.355469 139.902344 172.933594 140.015625 C 173.515625 140.125 174.101562 140.230469 174.6875 140.324219 C 174.109375 139.027344 173.464844 137.753906 172.753906 136.527344 C 172.246094 135.632812 171.667969 134.78125 171.089844 133.929688 Z M 171.089844 133.929688 " fill-opacity="1" fill-rule="nonzero"/><path fill="#ba905d" d="M 134.914062 118.46875 C 134.457031 118.363281 133.992188 118.289062 133.535156 118.195312 C 141.367188 126.597656 151.15625 133.140625 162.191406 137.09375 C 161.152344 135.460938 160.019531 133.898438 158.761719 132.476562 C 152.414062 125.285156 143.867188 120.664062 134.914062 118.46875 Z M 134.914062 118.46875 " fill-opacity="1" fill-rule="nonzero"/><path fill="#640029" d="M 232.011719 60.8125 C 230.964844 61.082031 229.9375 61.425781 228.898438 61.738281 L 228.898438 47.90625 L 247.5625 47.765625 L 247.65625 47.804688 L 247.65625 58.234375 C 242.382812 58.664062 237.148438 59.488281 232.011719 60.8125 Z M 232.011719 60.8125 " fill-opacity="1" fill-rule="nonzero"/><g clip-path="url(#402aa25591)"><path fill="#ba905d" d="M 191.003906 241.421875 C 190.636719 230.230469 190.476562 219.035156 190.210938 207.839844 L 189.976562 191.046875 C 189.9375 185.207031 190.769531 179.355469 192.4375 173.734375 C 194.121094 168.125 196.570312 162.695312 199.949219 157.84375 C 203.324219 153.003906 207.484375 148.6875 212.265625 145.175781 C 214.644531 143.394531 217.210938 141.894531 219.851562 140.535156 C 222.316406 139.289062 224.660156 138.046875 226.960938 136.613281 C 231.539062 133.769531 235.8125 130.4375 239.707031 126.714844 C 247.433594 119.222656 253.785156 110.257812 257.898438 100.269531 C 262.03125 90.363281 264.046875 79.355469 263.675781 68.753906 C 263.332031 63.445312 262.300781 57.964844 261.148438 52.5625 C 259.976562 47.144531 258.621094 41.75 257.167969 36.375 C 254.285156 25.632812 251.121094 14.863281 247.203125 4.523438 L 247.1875 4.484375 C 246.964844 3.894531 247.261719 3.238281 247.851562 3.011719 C 248.410156 2.800781 249.027344 3.0625 249.289062 3.582031 C 251.761719 8.710938 253.78125 13.957031 255.726562 19.238281 C 257.652344 24.523438 259.511719 29.828125 261.191406 35.203125 C 262.84375 40.585938 264.398438 46 265.777344 51.484375 C 267.136719 56.980469 268.394531 62.492188 268.980469 68.351562 C 270.3125 91.683594 260.824219 115.089844 243.898438 131.101562 C 239.675781 135.09375 235.039062 138.640625 230.085938 141.671875 C 227.621094 143.191406 225.003906 144.550781 222.460938 145.820312 C 220.117188 147.011719 217.828125 148.316406 215.710938 149.886719 C 207.164062 156.066406 200.816406 165.175781 197.539062 175.3125 C 195.894531 180.382812 195 185.707031 194.894531 191.058594 L 194.648438 207.839844 C 194.386719 219.03125 194.226562 230.222656 193.855469 241.421875 C 193.832031 242.207031 193.175781 242.820312 192.386719 242.796875 C 191.628906 242.773438 191.035156 242.164062 191.003906 241.421875 Z M 191.003906 241.421875 " fill-opacity="1" fill-rule="nonzero"/></g><g clip-path="url(#2097f76127)"><path fill="#ba905d" d="M 125.851562 4.339844 C 122.582031 13.390625 119.84375 22.667969 117.117188 31.910156 C 114.5 41.179688 112.03125 50.523438 110.351562 59.917969 C 109.957031 62.257812 109.570312 64.613281 109.378906 66.933594 C 109.109375 69.28125 109.140625 71.464844 109.210938 73.867188 C 109.390625 78.5625 110.03125 83.234375 111.046875 87.8125 C 113.128906 96.953125 116.710938 105.773438 121.867188 113.628906 C 126.945312 121.527344 133.519531 128.46875 141.097656 134.0625 C 144.898438 136.859375 148.929688 139.265625 153.191406 141.390625 C 157.699219 143.640625 161.859375 146.578125 165.5 150.039062 C 172.789062 156.972656 177.949219 165.960938 180.542969 175.578125 C 181.828125 180.390625 182.492188 185.367188 182.515625 190.332031 L 182.390625 204.855469 C 182.386719 205.644531 181.742188 206.273438 180.957031 206.265625 C 180.183594 206.261719 179.554688 205.628906 179.542969 204.855469 L 179.359375 190.378906 C 179.242188 185.683594 178.519531 181.003906 177.210938 176.503906 C 174.636719 167.5 169.691406 159.167969 162.851562 152.847656 C 159.4375 149.683594 155.570312 147.03125 151.390625 145.015625 C 146.96875 142.886719 142.625 140.378906 138.59375 137.492188 C 130.527344 131.707031 123.480469 124.464844 117.980469 116.167969 C 112.503906 107.867188 108.488281 98.550781 106.457031 88.800781 C 105.464844 83.925781 104.875 78.964844 104.761719 74 C 104.707031 71.574219 104.792969 68.90625 105.171875 66.460938 C 105.472656 63.96875 105.96875 61.566406 106.460938 59.160156 C 108.542969 49.578125 111.375 40.292969 114.351562 31.058594 C 117.367188 21.835938 120.652344 12.722656 124.453125 3.769531 C 124.617188 3.386719 125.0625 3.203125 125.449219 3.367188 C 125.816406 3.527344 126 3.945312 125.867188 4.316406 Z M 125.851562 4.339844 " fill-opacity="1" fill-rule="nonzero"/></g><g fill="#d9a566" fill-opacity="1"><g transform="translate(37.973426, 301.850516)"><g><path d="M 3.359375 -27.546875 L 14.484375 0 L 16.28125 0 L 26.980469 -27.546875 C 28.210938 -30.71875 29.441406 -31.949219 30.859375 -32.46875 L 30.859375 -33.132812 L 25.371094 -33.132812 L 25.371094 -32.46875 C 26.980469 -32.09375 27.3125 -30.71875 26.082031 -27.546875 L 17.511719 -5.441406 L 8.804688 -27.546875 C 7.574219 -30.71875 6.957031 -31.949219 8.519531 -32.46875 L 8.519531 -33.132812 L -0.1875 -33.132812 L -0.1875 -32.46875 C 0.898438 -31.949219 2.128906 -30.71875 3.359375 -27.546875 Z M 3.359375 -27.546875 "/></g></g></g><g fill="#d9a566" fill-opacity="1"><g transform="translate(68.63467, 301.850516)"><g><path d="M 2.226562 0 L 11.027344 0 L 11.027344 -0.664062 C 9.464844 -1.183594 9.136719 -2.601562 9.136719 -6.011719 L 9.136719 -27.121094 C 9.136719 -30.53125 9.464844 -31.949219 11.027344 -32.46875 L 11.027344 -33.132812 L 2.226562 -33.132812 L 2.226562 -32.46875 C 3.785156 -31.949219 4.117188 -30.53125 4.117188 -27.121094 L 4.117188 -6.011719 C 4.117188 -2.601562 3.785156 -1.183594 2.226562 -0.664062 Z M 2.226562 0 "/></g></g></g><g fill="#d9a566" fill-opacity="1"><g transform="translate(81.883363, 301.850516)"><g><path d="M 27.167969 0.378906 L 27.785156 0.378906 L 27.785156 -27.121094 C 27.785156 -30.53125 28.117188 -31.949219 29.679688 -32.46875 L 29.679688 -33.132812 L 23.289062 -33.132812 L 23.289062 -32.46875 C 25.75 -31.714844 26.886719 -30.054688 26.886719 -24.28125 L 26.886719 -8.234375 L 7.003906 -33.132812 L 1.65625 -33.132812 L 1.65625 -32.46875 C 3.691406 -31.949219 4.117188 -30.53125 4.117188 -27.121094 L 4.117188 -6.011719 C 4.117188 -2.601562 3.785156 -1.183594 2.226562 -0.664062 L 2.226562 0 L 8.566406 0 L 8.566406 -0.664062 C 6.105469 -1.421875 4.96875 -3.078125 4.96875 -8.851562 L 4.96875 -27.644531 Z M 27.167969 0.378906 "/></g></g></g><g fill="#d9a566" fill-opacity="1"><g transform="translate(113.207052, 301.850516)"><g><path d="M 19.5 0.472656 C 27.453125 0.472656 36.398438 -4.875 36.398438 -16.425781 C 36.398438 -28.019531 27.5 -33.511719 19.5 -33.511719 C 9.464844 -33.511719 2.554688 -26.082031 2.554688 -16.707031 C 2.554688 -4.828125 11.453125 0.472656 19.5 0.472656 Z M 7.480469 -19.597656 C 6.957031 -27.265625 10.601562 -32.28125 17.039062 -32.28125 C 25.230469 -32.28125 30.910156 -22.765625 31.617188 -12.683594 C 32.042969 -6.4375 29.441406 -0.992188 22.199219 -0.992188 C 14.152344 -0.992188 8.140625 -10.128906 7.480469 -19.597656 Z M 7.480469 -19.597656 "/></g></g></g><g fill="#d9a566" fill-opacity="1"><g transform="translate(152.006788, 301.850516)"><g/></g></g><g fill="#d9a566" fill-opacity="1"><g transform="translate(161.470132, 301.850516)"><g><path d="M 26.316406 0.332031 C 27.121094 0.332031 28.636719 0.285156 29.726562 0 L 29.726562 -0.664062 C 29.488281 -0.617188 29.25 -0.617188 29.015625 -0.617188 C 27.265625 -0.617188 26.742188 -1.75 24.234375 -8.046875 C 21.726562 -14.34375 20.683594 -16.566406 15.335938 -17.183594 C 21.632812 -17.9375 24.613281 -21.207031 24.613281 -25.558594 C 24.613281 -29.394531 22.484375 -33.132812 12.164062 -33.132812 L 2.226562 -33.132812 L 2.226562 -32.46875 C 3.785156 -31.949219 4.117188 -30.53125 4.117188 -27.121094 L 4.117188 -6.011719 C 4.117188 -2.601562 3.785156 -1.183594 2.226562 -0.664062 L 2.226562 0 L 11.027344 0 L 11.027344 -0.664062 C 9.464844 -1.183594 9.136719 -2.601562 9.136719 -6.011719 L 9.136719 -16.992188 L 11.929688 -16.992188 C 16.09375 -16.992188 16.328125 -14.671875 19.171875 -7.761719 C 21.441406 -2.226562 22.386719 0.332031 26.316406 0.332031 Z M 9.136719 -17.75 L 9.136719 -32.234375 C 9.84375 -32.328125 10.554688 -32.375 11.21875 -32.375 C 17.132812 -32.375 19.597656 -28.257812 19.597656 -24.425781 C 19.597656 -20.777344 17.5625 -17.75 12.164062 -17.75 Z M 9.136719 -17.75 "/></g></g></g><g fill="#d9a566" fill-opacity="1"><g transform="translate(190.711874, 301.850516)"><g><path d="M 17.464844 0.472656 C 24.375 0.472656 29.347656 -3.359375 29.347656 -12.875 L 29.347656 -27.121094 C 29.347656 -30.53125 29.679688 -31.949219 31.238281 -32.46875 L 31.238281 -33.132812 L 24.898438 -33.132812 L 24.898438 -32.46875 C 27.359375 -31.714844 28.496094 -30.054688 28.496094 -24.28125 L 28.496094 -12.78125 C 28.496094 -3.597656 23.335938 -0.664062 19.359375 -0.664062 C 12.921875 -0.664062 8.660156 -3.882812 8.660156 -12.496094 L 8.660156 -27.121094 C 8.660156 -30.53125 8.992188 -31.949219 10.554688 -32.46875 L 10.554688 -33.132812 L 1.75 -33.132812 L 1.75 -32.46875 C 3.3125 -31.949219 3.644531 -30.53125 3.644531 -27.121094 L 3.644531 -12.875 C 3.644531 -2.699219 10.648438 0.472656 17.464844 0.472656 Z M 17.464844 0.472656 "/></g></g></g><g fill="#d9a566" fill-opacity="1"><g transform="translate(223.218476, 301.850516)"><g><path d="M 26.316406 0.332031 C 27.121094 0.332031 28.636719 0.285156 29.726562 0 L 29.726562 -0.664062 C 29.488281 -0.617188 29.25 -0.617188 29.015625 -0.617188 C 27.265625 -0.617188 26.742188 -1.75 24.234375 -8.046875 C 21.726562 -14.34375 20.683594 -16.566406 15.335938 -17.183594 C 21.632812 -17.9375 24.613281 -21.207031 24.613281 -25.558594 C 24.613281 -29.394531 22.484375 -33.132812 12.164062 -33.132812 L 2.226562 -33.132812 L 2.226562 -32.46875 C 3.785156 -31.949219 4.117188 -30.53125 4.117188 -27.121094 L 4.117188 -6.011719 C 4.117188 -2.601562 3.785156 -1.183594 2.226562 -0.664062 L 2.226562 0 L 11.027344 0 L 11.027344 -0.664062 C 9.464844 -1.183594 9.136719 -2.601562 9.136719 -6.011719 L 9.136719 -16.992188 L 11.929688 -16.992188 C 16.09375 -16.992188 16.328125 -14.671875 19.171875 -7.761719 C 21.441406 -2.226562 22.386719 0.332031 26.316406 0.332031 Z M 9.136719 -17.75 L 9.136719 -32.234375 C 9.84375 -32.328125 10.554688 -32.375 11.21875 -32.375 C 17.132812 -32.375 19.597656 -28.257812 19.597656 -24.425781 C 19.597656 -20.777344 17.5625 -17.75 12.164062 -17.75 Z M 9.136719 -17.75 "/></g></g></g><g fill="#d9a566" fill-opacity="1"><g transform="translate(252.460217, 301.850516)"><g><path d="M -0.992188 0 L 4.496094 0 L 4.496094 -0.664062 C 2.886719 -1.042969 2.601562 -2.414062 3.882812 -5.585938 L 6.625 -12.355469 L 19.265625 -12.355469 L 22.105469 -5.539062 C 23.429688 -2.414062 24.09375 -1.183594 22.53125 -0.664062 L 22.53125 0 L 31.144531 0 L 31.144531 -0.664062 C 30.054688 -1.183594 28.824219 -2.414062 27.5 -5.539062 L 15.761719 -33.511719 L 11.125 -31.429688 L 11.738281 -30.105469 C 12.164062 -29.25 12.210938 -28.496094 11.832031 -27.546875 L 2.980469 -5.585938 C 1.703125 -2.414062 0.425781 -1.183594 -0.992188 -0.664062 Z M 6.910156 -13.109375 L 12.828125 -27.738281 L 18.933594 -13.109375 Z M 6.910156 -13.109375 "/></g></g></g><g fill="#d9a566" fill-opacity="1"><g transform="translate(282.884891, 301.850516)"><g><path d="M 2.226562 0 L 24.753906 0 L 25.132812 -5.964844 L 24.519531 -6.058594 C 22.625 -1.988281 20.164062 -0.851562 15.382812 -0.851562 L 11.503906 -0.851562 C 9.988281 -0.851562 9.136719 -1.703125 9.136719 -3.21875 L 9.136719 -27.121094 C 9.136719 -30.53125 9.464844 -31.949219 11.027344 -32.46875 L 11.027344 -33.132812 L 2.226562 -33.132812 L 2.226562 -32.46875 C 3.785156 -31.949219 4.117188 -30.53125 4.117188 -27.121094 L 4.117188 -6.011719 C 4.117188 -2.601562 3.785156 -1.183594 2.226562 -0.664062 Z M 2.226562 0 "/></g></g></g><g fill="#d9a566" fill-opacity="1"><g transform="translate(308.86179, 301.850516)"><g><path d="M 2.226562 0 L 26.175781 0 L 26.507812 -6.910156 L 25.890625 -7.003906 C 24.09375 -2.175781 20.828125 -0.757812 16.046875 -0.757812 L 11.503906 -0.757812 C 9.988281 -0.757812 9.136719 -1.609375 9.136719 -3.125 L 9.136719 -17.417969 L 13.679688 -17.417969 C 19.453125 -17.417969 21.109375 -16.28125 21.867188 -13.820312 L 22.53125 -13.820312 L 22.53125 -21.773438 L 21.867188 -21.773438 C 21.109375 -19.3125 19.453125 -18.175781 13.679688 -18.175781 L 9.136719 -18.175781 L 9.136719 -32.375 L 14.671875 -32.375 C 19.972656 -32.375 22.957031 -30.957031 24.851562 -26.316406 L 25.464844 -26.460938 L 24.945312 -33.132812 L 2.226562 -33.132812 L 2.226562 -32.46875 C 3.785156 -31.949219 4.117188 -30.53125 4.117188 -27.121094 L 4.117188 -6.011719 C 4.117188 -2.601562 3.785156 -1.183594 2.226562 -0.664062 Z M 2.226562 0 "/></g></g></g><g fill="#ba905d" fill-opacity="1"><g transform="translate(78.481382, 338.261961)"><g><path d="M 7.78125 0 L 6 -5.765625 L 3.015625 -5.765625 L 3.015625 0 L 1.453125 0 L 1.453125 -14.3125 L 5.828125 -14.3125 C 6.816406 -14.3125 7.550781 -14.128906 8.03125 -13.765625 C 8.519531 -13.410156 8.835938 -12.9375 8.984375 -12.34375 C 9.128906 -11.75 9.203125 -10.976562 9.203125 -10.03125 C 9.203125 -8.988281 9.09375 -8.128906 8.875 -7.453125 C 8.65625 -6.785156 8.195312 -6.3125 7.5 -6.03125 L 9.421875 0 Z M 5.4375 -7.125 C 6.082031 -7.125 6.566406 -7.226562 6.890625 -7.4375 C 7.210938 -7.644531 7.414062 -7.941406 7.5 -8.328125 C 7.59375 -8.722656 7.640625 -9.289062 7.640625 -10.03125 C 7.640625 -10.78125 7.59375 -11.347656 7.5 -11.734375 C 7.414062 -12.128906 7.21875 -12.429688 6.90625 -12.640625 C 6.601562 -12.847656 6.117188 -12.953125 5.453125 -12.953125 L 3.015625 -12.953125 L 3.015625 -7.125 Z M 5.4375 -7.125 "/></g></g></g><g fill="#ba905d" fill-opacity="1"><g transform="translate(95.773726, 338.261961)"><g><path d="M 9.34375 -14.3125 L 9.34375 -6.21875 C 9.34375 -4.363281 9.257812 -3.007812 9.09375 -2.15625 C 8.925781 -1.3125 8.566406 -0.710938 8.015625 -0.359375 C 7.472656 -0.00390625 6.582031 0.171875 5.34375 0.171875 C 4.113281 0.171875 3.21875 -0.00390625 2.65625 -0.359375 C 2.101562 -0.710938 1.742188 -1.316406 1.578125 -2.171875 C 1.410156 -3.023438 1.328125 -4.375 1.328125 -6.21875 L 1.328125 -14.3125 L 2.890625 -14.3125 L 2.890625 -5.515625 C 2.890625 -4.191406 2.9375 -3.253906 3.03125 -2.703125 C 3.132812 -2.148438 3.347656 -1.757812 3.671875 -1.53125 C 3.992188 -1.3125 4.550781 -1.203125 5.34375 -1.203125 C 6.132812 -1.203125 6.691406 -1.3125 7.015625 -1.53125 C 7.347656 -1.757812 7.554688 -2.148438 7.640625 -2.703125 C 7.734375 -3.253906 7.78125 -4.191406 7.78125 -5.515625 L 7.78125 -14.3125 Z M 9.34375 -14.3125 "/></g></g></g><g fill="#ba905d" fill-opacity="1"><g transform="translate(113.503009, 338.261961)"><g><path d="M 7.78125 0 L 6 -5.765625 L 3.015625 -5.765625 L 3.015625 0 L 1.453125 0 L 1.453125 -14.3125 L 5.828125 -14.3125 C 6.816406 -14.3125 7.550781 -14.128906 8.03125 -13.765625 C 8.519531 -13.410156 8.835938 -12.9375 8.984375 -12.34375 C 9.128906 -11.75 9.203125 -10.976562 9.203125 -10.03125 C 9.203125 -8.988281 9.09375 -8.128906 8.875 -7.453125 C 8.65625 -6.785156 8.195312 -6.3125 7.5 -6.03125 L 9.421875 0 Z M 5.4375 -7.125 C 6.082031 -7.125 6.566406 -7.226562 6.890625 -7.4375 C 7.210938 -7.644531 7.414062 -7.941406 7.5 -8.328125 C 7.59375 -8.722656 7.640625 -9.289062 7.640625 -10.03125 C 7.640625 -10.78125 7.59375 -11.347656 7.5 -11.734375 C 7.414062 -12.128906 7.21875 -12.429688 6.90625 -12.640625 C 6.601562 -12.847656 6.117188 -12.953125 5.453125 -12.953125 L 3.015625 -12.953125 L 3.015625 -7.125 Z M 5.4375 -7.125 "/></g></g></g><g fill="#ba905d" fill-opacity="1"><g transform="translate(130.795354, 338.261961)"><g><path d="M 8.296875 0 L 7.3125 -3.96875 L 2.90625 -3.96875 L 1.9375 0 L 0.375 0 L 4.125 -14.3125 L 6.15625 -14.3125 L 9.90625 0 Z M 5.15625 -12.421875 L 5.0625 -12.421875 L 3.28125 -5.34375 L 6.9375 -5.34375 Z M 5.15625 -12.421875 "/></g></g></g><g fill="#ba905d" fill-opacity="1"><g transform="translate(148.10851, 338.261961)"><g><path d="M 1.453125 0 L 1.453125 -14.3125 L 3.015625 -14.3125 L 3.015625 -1.421875 L 7.640625 -1.421875 L 7.640625 0 Z M 1.453125 0 "/></g></g></g><g fill="#ba905d" fill-opacity="1"><g transform="translate(163.02893, 338.261961)"><g/></g></g><g fill="#ba905d" fill-opacity="1"><g transform="translate(174.058535, 338.261961)"><g><path d="M 7.65625 -0.078125 C 7.351562 -0.015625 6.984375 0.0390625 6.546875 0.09375 C 6.109375 0.144531 5.695312 0.171875 5.3125 0.171875 C 4.0625 0.171875 3.144531 -0.015625 2.5625 -0.390625 C 1.988281 -0.765625 1.601562 -1.445312 1.40625 -2.4375 C 1.207031 -3.4375 1.109375 -5.007812 1.109375 -7.15625 C 1.109375 -9.289062 1.207031 -10.851562 1.40625 -11.84375 C 1.601562 -12.84375 1.988281 -13.53125 2.5625 -13.90625 C 3.144531 -14.289062 4.0625 -14.484375 5.3125 -14.484375 C 5.695312 -14.484375 6.101562 -14.453125 6.53125 -14.390625 C 6.96875 -14.335938 7.320312 -14.269531 7.59375 -14.1875 L 7.59375 -12.921875 C 6.820312 -13.046875 6.171875 -13.109375 5.640625 -13.109375 C 4.679688 -13.109375 4.003906 -12.984375 3.609375 -12.734375 C 3.222656 -12.484375 2.972656 -11.96875 2.859375 -11.1875 C 2.742188 -10.414062 2.6875 -9.070312 2.6875 -7.15625 C 2.6875 -5.238281 2.742188 -3.890625 2.859375 -3.109375 C 2.972656 -2.335938 3.222656 -1.828125 3.609375 -1.578125 C 4.003906 -1.328125 4.679688 -1.203125 5.640625 -1.203125 C 6.335938 -1.203125 7.007812 -1.265625 7.65625 -1.390625 Z M 7.65625 -0.078125 "/></g></g></g><g fill="#ba905d" fill-opacity="1"><g transform="translate(189.415889, 338.261961)"><g><path d="M 7.96875 0 L 7.96875 -6.515625 L 3 -6.515625 L 3 0 L 1.453125 0 L 1.453125 -14.3125 L 3 -14.3125 L 3 -7.921875 L 7.96875 -7.921875 L 7.96875 -14.3125 L 9.515625 -14.3125 L 9.515625 0 Z M 7.96875 0 "/></g></g></g><g fill="#ba905d" fill-opacity="1"><g transform="translate(207.415657, 338.261961)"><g><path d="M 8.296875 0 L 7.3125 -3.96875 L 2.90625 -3.96875 L 1.9375 0 L 0.375 0 L 4.125 -14.3125 L 6.15625 -14.3125 L 9.90625 0 Z M 5.15625 -12.421875 L 5.0625 -12.421875 L 3.28125 -5.34375 L 6.9375 -5.34375 Z M 5.15625 -12.421875 "/></g></g></g><g fill="#ba905d" fill-opacity="1"><g transform="translate(224.728813, 338.261961)"><g><path d="M 7.78125 0 L 6 -5.765625 L 3.015625 -5.765625 L 3.015625 0 L 1.453125 0 L 1.453125 -14.3125 L 5.828125 -14.3125 C 6.816406 -14.3125 7.550781 -14.128906 8.03125 -13.765625 C 8.519531 -13.410156 8.835938 -12.9375 8.984375 -12.34375 C 9.128906 -11.75 9.203125 -10.976562 9.203125 -10.03125 C 9.203125 -8.988281 9.09375 -8.128906 8.875 -7.453125 C 8.65625 -6.785156 8.195312 -6.3125 7.5 -6.03125 L 9.421875 0 Z M 5.4375 -7.125 C 6.082031 -7.125 6.566406 -7.226562 6.890625 -7.4375 C 7.210938 -7.644531 7.414062 -7.941406 7.5 -8.328125 C 7.59375 -8.722656 7.640625 -9.289062 7.640625 -10.03125 C 7.640625 -10.78125 7.59375 -11.347656 7.5 -11.734375 C 7.414062 -12.128906 7.21875 -12.429688 6.90625 -12.640625 C 6.601562 -12.847656 6.117188 -12.953125 5.453125 -12.953125 L 3.015625 -12.953125 L 3.015625 -7.125 Z M 5.4375 -7.125 "/></g></g></g><g fill="#ba905d" fill-opacity="1"><g transform="translate(242.021165, 338.261961)"><g><path d="M 10.859375 0 L 10.859375 -11.59375 L 10.78125 -11.59375 L 7.59375 0 L 6.1875 0 L 3.015625 -11.59375 L 2.9375 -11.59375 L 2.9375 0 L 1.453125 0 L 1.453125 -14.3125 L 3.703125 -14.3125 L 6.875 -2.6875 L 7 -2.6875 L 10.171875 -14.3125 L 12.390625 -14.3125 L 12.390625 0 Z M 10.859375 0 "/></g></g></g><g fill="#ba905d" fill-opacity="1"><g transform="translate(262.892223, 338.261961)"><g/></g></g><g fill="#ba905d" fill-opacity="1"><g transform="translate(273.921828, 338.261961)"><g><path d="M 1.515625 0 L 1.515625 -14.3125 L 3.078125 -14.3125 L 3.078125 0 Z M 1.515625 0 "/></g></g></g><g fill="#ba905d" fill-opacity="1"><g transform="translate(285.534013, 338.261961)"><g><path d="M 7.96875 0 L 3.03125 -11.015625 L 2.953125 -11.015625 L 2.953125 0 L 1.453125 0 L 1.453125 -14.3125 L 3.09375 -14.3125 L 7.953125 -3.5 L 8.03125 -3.5 L 8.03125 -14.3125 L 9.53125 -14.3125 L 9.53125 0 Z M 7.96875 0 "/></g></g></g><g fill="#ba905d" fill-opacity="1"><g transform="translate(95.817074, 367.079735)"><g><path d="M 1.453125 0 L 1.453125 -14.3125 L 8.21875 -14.3125 L 8.21875 -12.953125 L 3.015625 -12.953125 L 3.015625 -7.921875 L 7.53125 -7.921875 L 7.53125 -6.5625 L 3.015625 -6.5625 L 3.015625 -1.375 L 8.21875 -1.375 L 8.21875 0 Z M 1.453125 0 "/></g></g></g><g fill="#ba905d" fill-opacity="1"><g transform="translate(111.861041, 367.079735)"><g><path d="M 3.78125 0 L 0.203125 -14.3125 L 1.828125 -14.3125 L 4.765625 -2.0625 L 4.890625 -2.0625 L 7.828125 -14.3125 L 9.390625 -14.3125 L 5.828125 0 Z M 3.78125 0 "/></g></g></g><g fill="#ba905d" fill-opacity="1"><g transform="translate(128.5084, 367.079735)"><g><path d="M 1.453125 0 L 1.453125 -14.3125 L 8.21875 -14.3125 L 8.21875 -12.953125 L 3.015625 -12.953125 L 3.015625 -7.921875 L 7.53125 -7.921875 L 7.53125 -6.5625 L 3.015625 -6.5625 L 3.015625 -1.375 L 8.21875 -1.375 L 8.21875 0 Z M 1.453125 0 "/></g></g></g><g fill="#ba905d" fill-opacity="1"><g transform="translate(144.552368, 367.079735)"><g><path d="M 7.78125 0 L 6 -5.765625 L 3.015625 -5.765625 L 3.015625 0 L 1.453125 0 L 1.453125 -14.3125 L 5.828125 -14.3125 C 6.816406 -14.3125 7.550781 -14.128906 8.03125 -13.765625 C 8.519531 -13.410156 8.835938 -12.9375 8.984375 -12.34375 C 9.128906 -11.75 9.203125 -10.976562 9.203125 -10.03125 C 9.203125 -8.988281 9.09375 -8.128906 8.875 -7.453125 C 8.65625 -6.785156 8.195312 -6.3125 7.5 -6.03125 L 9.421875 0 Z M 5.4375 -7.125 C 6.082031 -7.125 6.566406 -7.226562 6.890625 -7.4375 C 7.210938 -7.644531 7.414062 -7.941406 7.5 -8.328125 C 7.59375 -8.722656 7.640625 -9.289062 7.640625 -10.03125 C 7.640625 -10.78125 7.59375 -11.347656 7.5 -11.734375 C 7.414062 -12.128906 7.21875 -12.429688 6.90625 -12.640625 C 6.601562 -12.847656 6.117188 -12.953125 5.453125 -12.953125 L 3.015625 -12.953125 L 3.015625 -7.125 Z M 5.4375 -7.125 "/></g></g></g><g fill="#ba905d" fill-opacity="1"><g transform="translate(161.844711, 367.079735)"><g><path d="M 3.71875 0 L 3.71875 -5.515625 L 0.046875 -14.3125 L 1.6875 -14.3125 L 4.46875 -7.375 L 4.59375 -7.375 L 7.390625 -14.3125 L 8.96875 -14.3125 L 5.265625 -5.515625 L 5.265625 0 Z M 3.71875 0 "/></g></g></g><g fill="#ba905d" fill-opacity="1"><g transform="translate(177.888681, 367.079735)"><g/></g></g><g fill="#ba905d" fill-opacity="1"><g transform="translate(188.918286, 367.079735)"><g><path d="M 1.453125 -14.3125 L 5.8125 -14.3125 C 6.988281 -14.3125 7.832031 -14.003906 8.34375 -13.390625 C 8.851562 -12.785156 9.109375 -11.898438 9.109375 -10.734375 C 9.109375 -9.753906 8.9375 -8.988281 8.59375 -8.4375 C 8.257812 -7.894531 7.726562 -7.539062 7 -7.375 L 7 -7.28125 C 7.851562 -7.101562 8.4375 -6.71875 8.75 -6.125 C 9.070312 -5.539062 9.234375 -4.753906 9.234375 -3.765625 C 9.234375 -2.597656 8.984375 -1.675781 8.484375 -1 C 7.992188 -0.332031 7.070312 0 5.71875 0 L 1.453125 0 Z M 5.375 -7.953125 C 6.101562 -7.953125 6.648438 -8.148438 7.015625 -8.546875 C 7.378906 -8.953125 7.5625 -9.585938 7.5625 -10.453125 C 7.5625 -11.078125 7.5 -11.566406 7.375 -11.921875 C 7.25 -12.273438 7.03125 -12.535156 6.71875 -12.703125 C 6.40625 -12.867188 5.957031 -12.953125 5.375 -12.953125 L 3 -12.953125 L 3 -7.953125 Z M 5.4375 -1.375 C 6.289062 -1.375 6.875 -1.566406 7.1875 -1.953125 C 7.5 -2.347656 7.65625 -3.015625 7.65625 -3.953125 C 7.65625 -4.910156 7.488281 -5.585938 7.15625 -5.984375 C 6.820312 -6.378906 6.25 -6.578125 5.4375 -6.578125 L 3 -6.578125 L 3 -1.375 Z M 5.4375 -1.375 "/></g></g></g><g fill="#ba905d" fill-opacity="1"><g transform="translate(206.189834, 367.079735)"><g><path d="M 5.390625 0.171875 C 4.023438 0.171875 3.050781 -0.015625 2.46875 -0.390625 C 1.894531 -0.765625 1.523438 -1.425781 1.359375 -2.375 C 1.191406 -3.332031 1.109375 -4.925781 1.109375 -7.15625 C 1.109375 -9.394531 1.191406 -10.988281 1.359375 -11.9375 C 1.523438 -12.882812 1.894531 -13.546875 2.46875 -13.921875 C 3.050781 -14.296875 4.023438 -14.484375 5.390625 -14.484375 C 6.753906 -14.484375 7.722656 -14.296875 8.296875 -13.921875 C 8.878906 -13.546875 9.253906 -12.882812 9.421875 -11.9375 C 9.585938 -10.988281 9.671875 -9.394531 9.671875 -7.15625 C 9.671875 -4.925781 9.585938 -3.332031 9.421875 -2.375 C 9.253906 -1.425781 8.878906 -0.765625 8.296875 -0.390625 C 7.722656 -0.015625 6.753906 0.171875 5.390625 0.171875 Z M 5.390625 -1.203125 C 6.273438 -1.203125 6.890625 -1.304688 7.234375 -1.515625 C 7.585938 -1.722656 7.816406 -2.210938 7.921875 -2.984375 C 8.035156 -3.765625 8.09375 -5.15625 8.09375 -7.15625 C 8.09375 -9.15625 8.035156 -10.539062 7.921875 -11.3125 C 7.816406 -12.09375 7.585938 -12.585938 7.234375 -12.796875 C 6.890625 -13.003906 6.273438 -13.109375 5.390625 -13.109375 C 4.503906 -13.109375 3.882812 -13.003906 3.53125 -12.796875 C 3.1875 -12.585938 2.957031 -12.09375 2.84375 -11.3125 C 2.738281 -10.539062 2.6875 -9.15625 2.6875 -7.15625 C 2.6875 -5.15625 2.738281 -3.765625 2.84375 -2.984375 C 2.957031 -2.210938 3.1875 -1.722656 3.53125 -1.515625 C 3.882812 -1.304688 4.503906 -1.203125 5.390625 -1.203125 Z M 5.390625 -1.203125 "/></g></g></g><g fill="#ba905d" fill-opacity="1"><g transform="translate(224.002352, 367.079735)"><g><path d="M 3.515625 0 L 3.515625 -12.90625 L 0.328125 -12.90625 L 0.328125 -14.3125 L 8.265625 -14.3125 L 8.265625 -12.90625 L 5.078125 -12.90625 L 5.078125 0 Z M 3.515625 0 "/></g></g></g><g fill="#ba905d" fill-opacity="1"><g transform="translate(239.630191, 367.079735)"><g><path d="M 3.515625 0 L 3.515625 -12.90625 L 0.328125 -12.90625 L 0.328125 -14.3125 L 8.265625 -14.3125 L 8.265625 -12.90625 L 5.078125 -12.90625 L 5.078125 0 Z M 3.515625 0 "/></g></g></g><g fill="#ba905d" fill-opacity="1"><g transform="translate(255.25804, 367.079735)"><g><path d="M 1.453125 0 L 1.453125 -14.3125 L 3.015625 -14.3125 L 3.015625 -1.421875 L 7.640625 -1.421875 L 7.640625 0 Z M 1.453125 0 "/></g></g></g><g fill="#ba905d" fill-opacity="1"><g transform="translate(270.178455, 367.079735)"><g><path d="M 1.453125 0 L 1.453125 -14.3125 L 8.21875 -14.3125 L 8.21875 -12.953125 L 3.015625 -12.953125 L 3.015625 -7.921875 L 7.53125 -7.921875 L 7.53125 -6.5625 L 3.015625 -6.5625 L 3.015625 -1.375 L 8.21875 -1.375 L 8.21875 0 Z M 1.453125 0 "/></g></g></g></svg>