<svg xmlns="http://www.w3.org/2000/svg" xmlns:xlink="http://www.w3.org/1999/xlink" width="500" zoomAndPan="magnify" viewBox="0 0 375 374.999991" height="500" preserveAspectRatio="xMidYMid meet" version="1.0"><defs><g/><clipPath id="908f8fc05c"><path d="M 171.742188 95.476562 L 288.316406 95.476562 L 288.316406 212.046875 L 171.742188 212.046875 Z M 171.742188 95.476562 " clip-rule="nonzero"/></clipPath><clipPath id="fa000228f9"><path d="M 230.03125 95.476562 C 197.839844 95.476562 171.742188 121.570312 171.742188 153.761719 C 171.742188 185.953125 197.839844 212.046875 230.03125 212.046875 C 262.21875 212.046875 288.316406 185.953125 288.316406 153.761719 C 288.316406 121.570312 262.21875 95.476562 230.03125 95.476562 " clip-rule="nonzero"/></clipPath><clipPath id="dddf6184f4"><path d="M 189 58.296875 L 255 58.296875 L 255 255.546875 L 189 255.546875 Z M 189 58.296875 " clip-rule="nonzero"/></clipPath><clipPath id="961a5248c9"><path d="M 119.421875 58.296875 L 184 58.296875 L 184 226 L 119.421875 226 Z M 119.421875 58.296875 " clip-rule="nonzero"/></clipPath></defs><rect x="-37.5" width="450" fill="#ffffff" y="-37.499999" height="449.999989" fill-opacity="1"/><rect x="-37.5" width="450" fill="#ffffff" y="-37.499999" height="449.999989" fill-opacity="1"/><rect x="-37.5" width="450" fill="#640029" y="-37.499999" height="449.999989" fill-opacity="1"/><g clip-path="url(#908f8fc05c)"><g clip-path="url(#fa000228f9)"><path fill="#1b12b0" d="M 171.742188 95.476562 L 288.316406 95.476562 L 288.316406 212.046875 L 171.742188 212.046875 Z M 171.742188 95.476562 " fill-opacity="1" fill-rule="nonzero"/></g></g><path fill="#640029" d="M 196.640625 120.199219 L 197.5 119.492188 L 197.5 106.265625 L 206.425781 106.265625 L 206.425781 113.367188 C 206.578125 113.273438 206.738281 113.191406 206.890625 113.105469 C 210.984375 110.773438 215.285156 108.804688 219.753906 107.324219 L 219.753906 95.378906 L 207.070312 89.636719 L 199.523438 93.050781 L 194.378906 95.378906 L 194.378906 122.152344 L 194.664062 121.875 C 195.28125 121.269531 195.984375 120.761719 196.640625 120.199219 Z M 196.640625 120.199219 " fill-opacity="1" fill-rule="nonzero"/><path fill="#640029" d="M 220.714844 128.398438 C 218.800781 129.464844 216.945312 130.617188 215.183594 131.929688 L 213.851562 132.898438 C 213.417969 133.222656 213.144531 133.476562 212.683594 133.882812 L 210.222656 136.042969 L 207.433594 138.980469 C 207.058594 139.390625 206.675781 139.882812 206.261719 140.429688 L 205.601562 141.28125 C 205.394531 141.523438 205.226562 141.785156 205.035156 142.03125 C 203.800781 143.738281 202.707031 145.554688 201.71875 147.402344 C 202.777344 148.511719 203.800781 149.65625 204.789062 150.832031 C 204.890625 150.628906 204.964844 150.414062 205.074219 150.214844 C 206.214844 148.105469 207.527344 146.125 208.996094 144.257812 C 209.1875 144.015625 209.378906 143.761719 209.578125 143.535156 L 210.09375 142.917969 C 210.453125 142.476562 210.847656 141.984375 211.332031 141.5 L 213.785156 139.109375 L 213.863281 139.027344 L 213.898438 139 L 216.0625 137.253906 C 216.394531 136.992188 216.867188 136.589844 217.28125 136.316406 L 218.488281 135.53125 C 220.078125 134.46875 221.773438 133.519531 223.496094 132.664062 C 226.9375 130.945312 230.667969 129.738281 234.417969 129.03125 C 237.816406 128.390625 241.242188 128.070312 244.710938 128.1875 C 245.238281 126.238281 245.679688 124.25 246.011719 122.230469 C 241.652344 122.136719 237.207031 122.699219 232.949219 123.683594 C 228.644531 124.683594 224.550781 126.273438 220.714844 128.398438 Z M 220.714844 128.398438 " fill-opacity="1" fill-rule="nonzero"/><path fill="#640029" d="M 227.5625 116.421875 C 222.011719 118.027344 216.757812 120.542969 211.9375 123.695312 C 211.324219 124.101562 210.765625 124.46875 210.175781 124.902344 L 208.390625 126.1875 C 207.808594 126.613281 207.355469 126.996094 206.796875 127.492188 L 205.160156 128.921875 C 205.046875 129.023438 204.933594 129.121094 204.820312 129.21875 C 204.382812 129.59375 203.941406 129.960938 203.542969 130.375 L 202.039062 131.949219 L 200.550781 133.5 C 200.117188 133.972656 199.691406 134.503906 199.246094 135.074219 C 197.664062 137.039062 196.253906 139.101562 194.972656 141.226562 C 195.585938 141.71875 196.199219 142.214844 196.796875 142.726562 C 197.25 143.117188 197.695312 143.527344 198.140625 143.929688 C 199.136719 142.316406 200.191406 140.742188 201.359375 139.253906 C 201.597656 138.960938 201.820312 138.648438 202.066406 138.378906 L 202.703125 137.617188 C 203.144531 137.082031 203.628906 136.492188 204.207031 135.90625 L 207.191406 132.984375 L 207.289062 132.886719 L 207.339844 132.851562 L 209.96875 130.726562 C 210.371094 130.398438 210.960938 129.921875 211.453125 129.589844 L 212.917969 128.628906 C 214.859375 127.332031 216.921875 126.179688 219.019531 125.144531 C 223.21875 123.066406 227.75 121.589844 232.316406 120.726562 C 236.902344 119.871094 241.527344 119.476562 246.207031 119.773438 C 246.257812 119.777344 246.308594 119.785156 246.359375 119.789062 C 246.589844 117.871094 246.734375 115.933594 246.78125 113.964844 C 246.101562 113.941406 245.421875 113.894531 244.742188 113.894531 C 238.953125 113.964844 233.121094 114.820312 227.5625 116.421875 Z M 227.5625 116.421875 " fill-opacity="1" fill-rule="nonzero"/><path fill="#640029" d="M 230.21875 151.15625 C 229.976562 151.324219 229.847656 151.429688 229.699219 151.585938 L 228.394531 152.738281 L 227.144531 154.101562 C 226.988281 154.25 226.914062 154.359375 226.75 154.589844 C 226.59375 154.808594 226.40625 155.09375 226.132812 155.410156 L 226.214844 155.3125 C 225.253906 156.652344 224.433594 158.058594 223.8125 159.503906 C 227.933594 156.285156 231.632812 152.550781 234.789062 148.378906 C 233.460938 149.011719 232.179688 149.757812 230.964844 150.617188 C 230.6875 150.832031 230.421875 151.011719 230.21875 151.15625 Z M 230.21875 151.15625 " fill-opacity="1" fill-rule="nonzero"/><path fill="#640029" d="M 224.773438 135.109375 C 223.191406 135.992188 221.65625 136.941406 220.191406 138.027344 L 219.085938 138.824219 C 218.734375 139.082031 218.507812 139.300781 218.125 139.636719 L 216.085938 141.421875 L 213.78125 143.859375 C 213.472656 144.191406 213.167969 144.59375 212.824219 145.054688 L 212.273438 145.765625 C 212.097656 145.972656 211.964844 146.179688 211.808594 146.390625 C 210.539062 148.148438 209.398438 150.019531 208.457031 151.949219 C 208.085938 152.6875 207.773438 153.453125 207.464844 154.21875 C 207.609375 154.417969 207.765625 154.601562 207.90625 154.804688 C 208.9375 156.234375 209.898438 157.726562 210.820312 159.242188 C 211.371094 157.320312 212.101562 155.441406 213.066406 153.671875 C 213.992188 151.996094 215.046875 150.441406 216.226562 148.964844 C 216.386719 148.769531 216.542969 148.554688 216.707031 148.382812 L 217.09375 147.921875 C 217.371094 147.585938 217.695312 147.179688 218.113281 146.769531 L 220.042969 144.910156 L 220.132812 144.824219 L 220.15625 144.804688 L 221.859375 143.460938 C 222.105469 143.265625 222.511719 142.917969 222.859375 142.703125 L 223.820312 142.101562 C 225.078125 141.273438 226.429688 140.535156 227.792969 139.867188 C 230.519531 138.523438 233.496094 137.59375 236.457031 137.0625 C 238.226562 136.746094 240.003906 136.535156 241.785156 136.453125 C 242.695312 134.386719 243.5 132.261719 244.175781 130.082031 C 241.0625 130.132812 237.914062 130.554688 234.886719 131.242188 C 231.320312 132.042969 227.945312 133.355469 224.773438 135.109375 Z M 224.773438 135.109375 " fill-opacity="1" fill-rule="nonzero"/><path fill="#640029" d="M 229.007812 142.164062 C 227.777344 142.867188 226.585938 143.617188 225.449219 144.480469 L 224.582031 145.109375 C 224.316406 145.300781 224.183594 145.457031 223.867188 145.730469 L 222.285156 147.128906 L 220.476562 149.074219 C 220.269531 149.304688 220.046875 149.605469 219.777344 149.976562 L 219.332031 150.566406 C 219.195312 150.722656 219.101562 150.878906 218.984375 151.039062 C 218.011719 152.414062 217.128906 153.878906 216.414062 155.378906 C 214.941406 158.339844 214.183594 162.027344 214.230469 165.597656 C 214.230469 165.597656 214.230469 165.601562 214.230469 165.601562 C 215.964844 164.714844 217.652344 163.746094 219.285156 162.699219 C 219.492188 161.75 219.742188 160.8125 220.066406 159.875 C 220.910156 157.445312 222.308594 155.359375 223.820312 153.480469 L 223.890625 153.394531 L 223.902344 153.382812 C 224.027344 153.261719 224.183594 153.0625 224.386719 152.808594 C 224.578125 152.566406 224.882812 152.210938 225.175781 151.972656 L 226.371094 150.820312 L 226.503906 150.691406 L 227.875 149.625 C 228.160156 149.363281 228.527344 149.121094 228.792969 148.964844 C 229.070312 148.796875 229.300781 148.667969 229.464844 148.550781 L 229.550781 148.488281 C 231.183594 147.496094 232.910156 146.628906 234.738281 145.996094 C 235.449219 145.75 236.164062 145.578125 236.878906 145.40625 C 238.382812 143.148438 239.738281 140.789062 240.925781 138.332031 C 239.5625 138.503906 238.203125 138.75 236.878906 139.054688 C 234.089844 139.710938 231.46875 140.761719 229.007812 142.164062 Z M 229.007812 142.164062 " fill-opacity="1" fill-rule="nonzero"/><path fill="#640029" d="M 246.523438 105.851562 C 245.960938 105.835938 245.402344 105.792969 244.839844 105.789062 C 238.164062 105.847656 231.449219 106.816406 225.039062 108.660156 C 222.488281 109.390625 220.007812 110.332031 217.570312 111.375 C 213.902344 112.949219 210.355469 114.8125 207.011719 116.988281 C 207.007812 116.992188 207.003906 116.992188 206.996094 116.996094 C 206.292969 117.457031 205.636719 117.886719 204.957031 118.386719 L 202.90625 119.859375 C 201.636719 120.777344 200.441406 121.933594 199.15625 123.023438 C 198.539062 123.582031 197.871094 124.085938 197.292969 124.6875 L 195.558594 126.492188 L 193.84375 128.28125 C 193.6875 128.445312 193.539062 128.652344 193.382812 128.828125 C 193.027344 129.242188 192.671875 129.652344 192.3125 130.109375 C 190.726562 132.070312 189.300781 134.128906 187.96875 136.234375 C 188.148438 136.347656 188.332031 136.449219 188.511719 136.566406 C 189.558594 137.234375 190.585938 137.9375 191.601562 138.660156 C 193 136.539062 194.503906 134.496094 196.125 132.589844 C 196.605469 132.007812 197.121094 131.398438 197.707031 130.804688 L 199.332031 129.203125 L 200.945312 127.621094 C 201.480469 127.09375 202.097656 126.652344 202.667969 126.164062 L 204.414062 124.734375 C 204.976562 124.261719 205.675781 123.722656 206.308594 123.300781 L 206.382812 123.253906 L 208.171875 122.066406 C 208.789062 121.644531 209.484375 121.222656 210.121094 120.839844 C 215.316406 117.710938 220.960938 115.285156 226.839844 113.816406 C 232.703125 112.324219 238.722656 111.632812 244.769531 111.746094 C 245.453125 111.769531 246.132812 111.839844 246.8125 111.882812 L 246.8125 111.363281 C 246.820312 109.464844 246.710938 107.632812 246.523438 105.851562 Z M 246.523438 105.851562 " fill-opacity="1" fill-rule="nonzero"/><path fill="#640029" d="M 147.015625 151.683594 C 144.96875 151.089844 142.859375 150.632812 140.734375 150.320312 C 141.527344 151.285156 142.363281 152.222656 143.214844 153.136719 C 143.597656 153.214844 143.976562 153.273438 144.351562 153.359375 C 151.726562 155.160156 158.765625 158.960938 163.988281 164.867188 C 165.027344 166.035156 165.957031 167.320312 166.8125 168.660156 C 168.050781 169.101562 169.3125 169.5 170.589844 169.859375 C 169.773438 168.355469 168.84375 166.894531 167.773438 165.523438 C 162.679688 158.972656 155.164062 154.195312 147.015625 151.683594 Z M 147.015625 151.683594 " fill-opacity="1" fill-rule="nonzero"/><path fill="#640029" d="M 164.28125 126.148438 C 165.765625 126.519531 167.234375 126.945312 168.699219 127.398438 C 169.058594 127.507812 169.414062 127.617188 169.769531 127.734375 C 169.953125 127.792969 170.144531 127.847656 170.332031 127.910156 C 173.519531 128.96875 176.652344 130.222656 179.699219 131.667969 C 176.730469 130.007812 173.613281 128.566406 170.398438 127.277344 C 170.179688 127.1875 169.960938 127.09375 169.742188 127.011719 L 169.644531 124.632812 L 169.519531 121.4375 L 169.984375 124.535156 C 171.230469 124.058594 172.148438 122.382812 172.148438 119.519531 C 172.148438 116.101562 170.417969 111.199219 169.230469 111.199219 C 168.070312 111.199219 166.3125 116.101562 166.3125 119.519531 C 166.3125 122.640625 167.398438 124.355469 168.816406 124.632812 L 168.738281 126.601562 C 166.421875 125.734375 164.074219 124.929688 161.652344 124.253906 L 161.640625 124.25 C 161.097656 124.105469 160.566406 123.988281 160.03125 123.851562 C 159.707031 123.773438 159.378906 123.6875 159.058594 123.613281 L 158.898438 119.582031 L 158.71875 115.105469 L 159.371094 119.445312 C 161.109375 118.777344 162.398438 116.429688 162.398438 112.421875 C 162.398438 107.636719 159.972656 100.773438 158.308594 100.773438 C 156.679688 100.773438 154.222656 107.636719 154.222656 112.421875 C 154.222656 116.789062 155.746094 119.1875 157.722656 119.582031 L 157.578125 123.269531 C 154.257812 122.539062 151.019531 122.023438 147.875 121.714844 C 147.476562 121.675781 147.085938 121.65625 146.691406 121.625 L 146.503906 116.855469 L 146.273438 111.035156 L 147.117188 116.679688 C 149.378906 115.808594 151.058594 112.757812 151.058594 107.550781 C 151.058594 101.324219 147.90625 92.402344 145.742188 92.402344 C 143.625 92.402344 140.429688 101.324219 140.429688 107.550781 C 140.429688 113.222656 142.410156 116.34375 144.984375 116.859375 L 144.800781 121.484375 C 138.890625 121.136719 133.308594 121.507812 128.023438 122.417969 C 128.019531 122.417969 128.011719 122.421875 128.007812 122.421875 C 128.046875 122.648438 128.085938 122.871094 128.125 123.097656 C 128.222656 123.625 128.308594 124.15625 128.417969 124.675781 C 128.496094 125.035156 128.585938 125.386719 128.667969 125.746094 C 128.675781 125.742188 128.6875 125.742188 128.695312 125.742188 C 140.308594 123.175781 152.59375 123.359375 164.28125 126.148438 Z M 164.28125 126.148438 " fill-opacity="1" fill-rule="nonzero"/><path fill="#640029" d="M 176.410156 164.820312 C 176.171875 164.472656 175.890625 164.152344 175.636719 163.8125 C 175.242188 163.277344 174.847656 162.742188 174.417969 162.226562 C 172.476562 159.882812 170.25 157.757812 167.824219 155.847656 C 167.039062 155.234375 166.257812 154.621094 165.4375 154.054688 C 161.160156 151.085938 156.355469 148.753906 151.308594 147.257812 C 147.730469 146.191406 144.015625 145.539062 140.265625 145.277344 C 139.164062 145.203125 138.054688 145.175781 136.949219 145.171875 C 137.40625 145.867188 137.886719 146.554688 138.371094 147.234375 C 139.960938 147.300781 141.542969 147.453125 143.121094 147.675781 C 144.714844 147.898438 146.304688 148.171875 147.871094 148.546875 C 153.496094 149.953125 158.945312 152.335938 163.769531 155.699219 C 166.5625 157.640625 169.148438 159.910156 171.433594 162.519531 C 172.410156 163.628906 173.300781 164.828125 174.140625 166.066406 C 174.617188 166.769531 175.09375 167.46875 175.519531 168.203125 C 176.097656 169.214844 176.628906 170.253906 177.113281 171.328125 C 177.769531 171.4375 178.433594 171.53125 179.097656 171.617188 C 179.457031 171.664062 179.816406 171.714844 180.175781 171.757812 C 179.8125 170.855469 179.40625 169.960938 178.960938 169.085938 C 178.210938 167.617188 177.363281 166.1875 176.410156 164.820312 Z M 176.410156 164.820312 " fill-opacity="1" fill-rule="nonzero"/><path fill="#640029" d="M 185.609375 162.917969 C 184.945312 161.992188 184.25 161.085938 183.527344 160.203125 C 182.398438 158.839844 181.179688 157.550781 179.914062 156.304688 C 179.253906 155.65625 178.578125 155.019531 177.882812 154.402344 C 177.625 154.171875 177.367188 153.949219 177.109375 153.726562 C 176.742188 153.414062 176.386719 153.097656 176.015625 152.792969 C 172.460938 149.910156 168.53125 147.449219 164.355469 145.476562 C 155.917969 141.40625 146.464844 139.425781 137.003906 139.667969 C 136.441406 139.6875 135.882812 139.742188 135.320312 139.773438 C 134.824219 139.804688 134.332031 139.824219 133.835938 139.867188 C 134.222656 140.617188 134.628906 141.355469 135.046875 142.085938 C 135.726562 142.039062 136.410156 142.03125 137.09375 142.015625 C 142.195312 141.886719 147.328125 142.421875 152.296875 143.601562 C 157.78125 145.003906 163.09375 147.105469 168.019531 150.015625 C 170.523438 151.496094 172.910156 153.195312 175.152344 155.082031 C 175.238281 155.152344 175.3125 155.238281 175.398438 155.308594 C 175.792969 155.644531 176.160156 156 176.542969 156.347656 C 177.550781 157.257812 178.527344 158.214844 179.46875 159.207031 C 180.058594 159.828125 180.667969 160.4375 181.226562 161.089844 C 181.894531 161.875 182.53125 162.695312 183.15625 163.527344 C 184.960938 165.933594 186.554688 168.527344 187.875 171.296875 C 188.003906 171.566406 188.144531 171.839844 188.265625 172.117188 C 189.082031 172.097656 189.890625 172.070312 190.695312 172.019531 C 189.832031 169.960938 188.808594 167.972656 187.644531 166.046875 C 187.007812 164.988281 186.332031 163.9375 185.609375 162.917969 Z M 185.609375 162.917969 " fill-opacity="1" fill-rule="nonzero"/><path fill="#640029" d="M 194.441406 160.703125 C 193.832031 159.8125 193.144531 158.980469 192.480469 158.132812 C 191.480469 156.851562 190.429688 155.617188 189.324219 154.421875 C 188.28125 153.296875 187.199219 152.207031 186.070312 151.164062 C 185.949219 151.050781 185.824219 150.9375 185.699219 150.824219 C 184.582031 149.804688 183.429688 148.816406 182.234375 147.878906 C 181.34375 147.183594 180.457031 146.476562 179.53125 145.824219 C 179.167969 145.570312 178.789062 145.335938 178.421875 145.089844 C 172.730469 141.261719 166.417969 138.273438 159.796875 136.320312 C 150.808594 133.714844 141.195312 132.929688 131.851562 134.210938 C 131.667969 134.234375 131.484375 134.261719 131.300781 134.289062 C 131.605469 135.0625 131.925781 135.832031 132.261719 136.589844 C 132.542969 136.546875 132.824219 136.488281 133.105469 136.449219 C 134.34375 136.289062 135.585938 136.164062 136.828125 136.078125 C 151.058594 135 165.773438 138.960938 177.671875 147.230469 C 178.023438 147.472656 178.378906 147.71875 178.722656 147.964844 C 179.671875 148.65625 180.597656 149.378906 181.507812 150.125 C 182.328125 150.792969 183.121094 151.488281 183.90625 152.203125 C 184.261719 152.527344 184.621094 152.847656 184.96875 153.179688 C 186.269531 154.429688 187.511719 155.753906 188.699219 157.132812 C 189.3125 157.84375 189.921875 158.550781 190.503906 159.296875 C 191.011719 159.953125 191.476562 160.644531 191.957031 161.328125 C 193.886719 164.101562 195.554688 167.078125 196.890625 170.214844 C 197.039062 170.558594 197.171875 170.902344 197.308594 171.246094 C 198.171875 171.097656 199.03125 170.933594 199.878906 170.746094 C 199.007812 168.601562 197.984375 166.511719 196.828125 164.488281 C 196.082031 163.199219 195.296875 161.929688 194.441406 160.703125 Z M 194.441406 160.703125 " fill-opacity="1" fill-rule="nonzero"/><path fill="#640029" d="M 202.445312 158.605469 C 202.335938 158.441406 202.21875 158.285156 202.101562 158.121094 C 201.101562 156.675781 200.046875 155.265625 198.925781 153.898438 C 197.730469 152.4375 196.460938 151.027344 195.140625 149.660156 C 194.246094 148.738281 193.332031 147.835938 192.390625 146.960938 C 192.292969 146.871094 192.1875 146.785156 192.085938 146.6875 C 190.964844 145.660156 189.804688 144.667969 188.617188 143.707031 C 187.550781 142.84375 186.472656 142 185.355469 141.195312 C 185.304688 141.160156 185.25 141.128906 185.199219 141.09375 C 184.324219 140.46875 183.398438 139.910156 182.492188 139.324219 C 182.148438 139.097656 181.8125 138.867188 181.464844 138.648438 C 175.78125 135.101562 169.601562 132.277344 163.152344 130.292969 C 155.175781 127.945312 146.761719 126.8125 138.375 127.140625 C 135.34375 127.269531 132.3125 127.589844 129.3125 128.109375 C 129.292969 128.113281 129.273438 128.117188 129.25 128.117188 C 129.503906 129.042969 129.773438 129.957031 130.070312 130.867188 C 130.148438 130.851562 130.230469 130.835938 130.308594 130.820312 C 140.414062 128.839844 151.015625 129.179688 161.066406 131.652344 C 167.960938 133.417969 174.625 136.242188 180.769531 139.957031 C 181.128906 140.171875 181.5 140.367188 181.855469 140.59375 C 182.761719 141.160156 183.632812 141.78125 184.511719 142.390625 C 185.703125 143.21875 186.882812 144.066406 188.023438 144.96875 C 189.148438 145.863281 190.25 146.785156 191.324219 147.75 C 191.398438 147.816406 191.476562 147.875 191.550781 147.941406 C 192.605469 148.90625 193.597656 149.933594 194.589844 150.964844 C 195.941406 152.371094 197.230469 153.839844 198.457031 155.375 C 198.871094 155.894531 199.328125 156.382812 199.730469 156.921875 C 200.421875 157.847656 201.078125 158.796875 201.714844 159.761719 C 202.914062 161.578125 204.007812 163.457031 205 165.398438 C 205.578125 166.527344 206.121094 167.675781 206.625 168.84375 C 207.050781 168.695312 207.472656 168.554688 207.886719 168.398438 C 207.089844 166.589844 206.203125 164.816406 205.230469 163.089844 C 204.359375 161.570312 203.441406 160.0625 202.445312 158.605469 Z M 202.445312 158.605469 " fill-opacity="1" fill-rule="nonzero"/><path fill="#ba905d" d="M 244.777344 111.742188 C 238.730469 111.628906 232.714844 112.316406 226.847656 113.8125 C 220.96875 115.28125 215.320312 117.707031 210.128906 120.835938 C 209.492188 121.222656 208.800781 121.644531 208.179688 122.0625 L 206.390625 123.25 L 206.316406 123.296875 C 205.6875 123.71875 204.984375 124.257812 204.421875 124.730469 L 202.675781 126.160156 C 202.101562 126.648438 201.488281 127.089844 200.953125 127.617188 L 199.339844 129.199219 L 197.714844 130.800781 C 197.128906 131.394531 196.613281 132.007812 196.132812 132.585938 C 194.515625 134.496094 193.007812 136.535156 191.609375 138.65625 C 190.597656 137.9375 189.566406 137.230469 188.519531 136.558594 C 188.34375 136.445312 188.15625 136.339844 187.976562 136.230469 C 189.3125 134.125 190.730469 132.0625 192.320312 130.105469 C 192.679688 129.648438 193.035156 129.238281 193.390625 128.824219 C 193.546875 128.648438 193.695312 128.441406 193.851562 128.277344 L 195.566406 126.488281 L 197.300781 124.683594 C 197.878906 124.085938 198.546875 123.578125 199.164062 123.019531 C 200.449219 121.933594 201.644531 120.773438 202.914062 119.855469 L 204.964844 118.382812 C 205.644531 117.882812 206.296875 117.453125 207.003906 116.992188 C 207.007812 116.988281 207.015625 116.988281 207.023438 116.984375 C 210.363281 114.808594 213.910156 112.945312 217.578125 111.371094 C 220.015625 110.328125 222.5 109.386719 225.050781 108.65625 C 231.457031 106.8125 238.167969 105.847656 244.847656 105.785156 C 245.410156 105.789062 245.96875 105.832031 246.53125 105.847656 C 246.460938 105.160156 246.367188 104.492188 246.265625 103.820312 C 246.257812 103.765625 246.25 103.707031 246.242188 103.652344 C 245.789062 103.628906 245.339844 103.578125 244.882812 103.566406 C 242.980469 103.527344 241.078125 103.582031 239.183594 103.6875 L 239.183594 94.011719 L 224.726562 87.464844 L 207.078125 87.464844 L 198.316406 91.429688 C 191.027344 82.359375 179.84375 76.542969 167.28125 76.542969 C 145.3125 76.542969 127.5 94.300781 127.5 116.207031 C 127.5 118.320312 127.710938 120.382812 128.03125 122.410156 C 133.316406 121.5 138.898438 121.132812 144.808594 121.476562 L 144.992188 116.851562 C 142.421875 116.335938 140.4375 113.214844 140.4375 107.542969 C 140.4375 101.316406 143.632812 92.394531 145.75 92.394531 C 147.910156 92.394531 151.066406 101.316406 151.066406 107.542969 C 151.066406 112.75 149.390625 115.800781 147.128906 116.671875 L 146.28125 111.027344 L 146.511719 116.847656 L 146.699219 121.617188 C 147.09375 121.648438 147.484375 121.667969 147.882812 121.707031 C 151.027344 122.015625 154.261719 122.53125 157.585938 123.261719 L 157.730469 119.574219 C 155.753906 119.179688 154.230469 116.78125 154.230469 112.414062 C 154.230469 107.628906 156.6875 100.765625 158.316406 100.765625 C 159.976562 100.765625 162.40625 107.628906 162.40625 112.414062 C 162.40625 116.421875 161.117188 118.769531 159.378906 119.4375 L 158.730469 115.097656 L 158.90625 119.574219 L 159.066406 123.605469 C 159.390625 123.679688 159.714844 123.761719 160.039062 123.84375 C 160.574219 123.980469 161.105469 124.097656 161.648438 124.242188 L 161.660156 124.246094 C 164.082031 124.921875 166.433594 125.726562 168.746094 126.59375 L 168.824219 124.625 C 167.414062 124.34375 166.320312 122.628906 166.320312 119.511719 C 166.320312 116.09375 168.078125 111.191406 169.238281 111.191406 C 170.425781 111.191406 172.15625 116.09375 172.15625 119.511719 C 172.15625 122.375 171.234375 124.050781 169.996094 124.527344 L 169.527344 121.429688 L 169.652344 124.625 L 169.75 127.003906 C 169.96875 127.089844 170.183594 127.179688 170.40625 127.269531 C 173.621094 128.558594 176.738281 130 179.707031 131.660156 C 176.660156 130.214844 173.53125 128.960938 170.339844 127.902344 C 170.152344 127.839844 169.960938 127.789062 169.777344 127.726562 C 169.421875 127.609375 169.066406 127.5 168.710938 127.390625 C 167.246094 126.9375 165.773438 126.511719 164.289062 126.140625 C 152.601562 123.351562 140.3125 123.171875 128.695312 125.726562 C 128.6875 125.730469 128.675781 125.730469 128.667969 125.730469 C 128.851562 126.53125 129.042969 127.324219 129.257812 128.109375 C 129.277344 128.105469 129.296875 128.101562 129.320312 128.101562 C 132.324219 127.582031 135.355469 127.261719 138.382812 127.132812 C 146.769531 126.804688 155.1875 127.9375 163.160156 130.285156 C 169.609375 132.269531 175.792969 135.097656 181.472656 138.640625 C 181.820312 138.859375 182.15625 139.089844 182.5 139.316406 C 183.40625 139.902344 184.328125 140.460938 185.207031 141.085938 C 185.257812 141.121094 185.3125 141.152344 185.363281 141.1875 C 186.476562 141.992188 187.558594 142.835938 188.625 143.699219 C 189.8125 144.660156 190.972656 145.652344 192.09375 146.679688 C 192.191406 146.773438 192.300781 146.859375 192.398438 146.953125 C 193.34375 147.828125 194.253906 148.730469 195.148438 149.652344 C 196.46875 151.019531 197.738281 152.429688 198.933594 153.890625 C 200.054688 155.257812 201.109375 156.667969 202.109375 158.113281 C 202.222656 158.277344 202.34375 158.433594 202.453125 158.597656 C 203.449219 160.054688 204.367188 161.5625 205.234375 163.09375 C 206.207031 164.820312 207.09375 166.589844 207.890625 168.402344 C 208.480469 168.183594 209.0625 167.953125 209.640625 167.714844 C 210.28125 167.453125 210.914062 167.179688 211.542969 166.894531 C 212.445312 166.488281 213.34375 166.058594 214.226562 165.605469 C 214.230469 165.601562 214.234375 165.601562 214.242188 165.597656 C 214.242188 165.597656 214.242188 165.59375 214.242188 165.59375 C 214.195312 162.023438 214.953125 158.335938 216.425781 155.375 C 217.144531 153.875 218.023438 152.410156 218.996094 151.035156 C 219.113281 150.875 219.203125 150.71875 219.34375 150.5625 L 219.789062 149.972656 C 220.058594 149.601562 220.28125 149.300781 220.488281 149.070312 L 222.296875 147.125 L 223.878906 145.726562 C 224.195312 145.453125 224.324219 145.296875 224.59375 145.105469 L 225.460938 144.476562 C 226.597656 143.613281 227.789062 142.863281 229.019531 142.160156 C 231.488281 140.753906 234.101562 139.703125 236.898438 139.054688 C 238.222656 138.753906 239.582031 138.503906 240.945312 138.332031 C 241.246094 137.707031 241.523438 137.074219 241.804688 136.4375 C 240.015625 136.523438 238.246094 136.730469 236.472656 137.046875 C 233.511719 137.578125 230.539062 138.507812 227.808594 139.851562 C 226.445312 140.519531 225.09375 141.257812 223.835938 142.085938 L 222.875 142.6875 C 222.53125 142.902344 222.125 143.25 221.875 143.445312 L 220.171875 144.789062 L 220.148438 144.808594 L 220.058594 144.894531 L 218.128906 146.753906 C 217.710938 147.164062 217.390625 147.570312 217.109375 147.90625 L 216.722656 148.367188 C 216.558594 148.542969 216.402344 148.753906 216.242188 148.949219 C 215.070312 150.429688 214.007812 151.980469 213.082031 153.65625 C 212.117188 155.425781 211.382812 157.304688 210.835938 159.226562 C 209.921875 157.707031 208.960938 156.222656 207.921875 154.789062 C 207.78125 154.589844 207.625 154.402344 207.480469 154.203125 C 207.789062 153.4375 208.101562 152.671875 208.472656 151.933594 C 209.414062 150 210.558594 148.132812 211.824219 146.375 C 211.980469 146.167969 212.117188 145.957031 212.289062 145.75 L 212.839844 145.039062 C 213.183594 144.578125 213.488281 144.179688 213.796875 143.84375 L 216.101562 141.40625 L 218.140625 139.621094 C 218.523438 139.285156 218.746094 139.066406 219.101562 138.808594 L 220.207031 138.011719 C 221.671875 136.925781 223.203125 135.976562 224.789062 135.09375 C 227.960938 133.335938 231.335938 132.023438 234.902344 131.214844 C 237.933594 130.527344 241.078125 130.105469 244.191406 130.054688 C 244.382812 129.4375 244.554688 128.804688 244.726562 128.179688 C 241.257812 128.0625 237.832031 128.382812 234.433594 129.023438 C 230.679688 129.730469 226.953125 130.941406 223.511719 132.65625 C 221.789062 133.511719 220.09375 134.460938 218.503906 135.523438 L 217.296875 136.308594 C 216.882812 136.582031 216.40625 136.976562 216.078125 137.246094 L 213.914062 138.992188 L 213.878906 139.019531 L 213.800781 139.101562 L 211.347656 141.492188 C 210.859375 141.976562 210.464844 142.46875 210.109375 142.910156 L 209.597656 143.527344 C 209.390625 143.75 209.203125 144.007812 209.011719 144.25 C 207.542969 146.121094 206.226562 148.097656 205.09375 150.207031 C 204.984375 150.40625 204.90625 150.621094 204.804688 150.824219 C 203.816406 149.648438 202.796875 148.5 201.734375 147.394531 C 202.722656 145.542969 203.816406 143.730469 205.050781 142.023438 C 205.242188 141.773438 205.410156 141.515625 205.617188 141.273438 L 206.277344 140.421875 C 206.695312 139.871094 207.074219 139.382812 207.449219 138.972656 L 210.242188 136.035156 L 212.699219 133.875 C 213.160156 133.46875 213.433594 133.214844 213.867188 132.890625 L 215.199219 131.921875 C 216.960938 130.609375 218.816406 129.460938 220.730469 128.390625 C 224.566406 126.265625 228.660156 124.679688 232.96875 123.6875 C 237.222656 122.703125 241.671875 122.140625 246.03125 122.234375 C 246.164062 121.425781 246.273438 120.605469 246.375 119.785156 C 246.324219 119.78125 246.273438 119.773438 246.222656 119.769531 C 241.542969 119.472656 236.917969 119.867188 232.332031 120.722656 C 227.765625 121.589844 223.234375 123.0625 219.035156 125.140625 C 216.933594 126.175781 214.875 127.328125 212.933594 128.625 L 211.46875 129.585938 C 210.972656 129.914062 210.386719 130.394531 209.984375 130.722656 L 207.355469 132.847656 L 207.304688 132.882812 L 207.207031 132.980469 L 204.222656 135.902344 C 203.644531 136.488281 203.164062 137.078125 202.71875 137.613281 L 202.082031 138.375 C 201.832031 138.648438 201.609375 138.957031 201.375 139.25 C 200.207031 140.738281 199.152344 142.3125 198.15625 143.925781 C 197.710938 143.523438 197.265625 143.113281 196.8125 142.722656 C 196.214844 142.210938 195.601562 141.714844 194.988281 141.222656 C 196.273438 139.097656 197.683594 137.035156 199.261719 135.070312 C 199.707031 134.503906 200.132812 133.96875 200.566406 133.496094 L 202.054688 131.945312 L 203.558594 130.371094 C 203.957031 129.957031 204.398438 129.589844 204.835938 129.214844 C 204.949219 129.117188 205.0625 129.023438 205.175781 128.917969 L 206.8125 127.488281 C 207.367188 126.992188 207.824219 126.609375 208.40625 126.183594 L 210.191406 124.898438 C 210.78125 124.464844 211.339844 124.097656 211.953125 123.691406 C 216.773438 120.535156 222.023438 118.023438 227.578125 116.417969 C 233.140625 114.8125 238.96875 113.960938 244.761719 113.890625 C 245.441406 113.894531 246.121094 113.941406 246.800781 113.960938 C 246.8125 113.472656 246.835938 112.988281 246.835938 112.5 L 246.835938 111.875 C 246.136719 111.835938 245.460938 111.765625 244.777344 111.742188 Z M 207.070312 89.636719 L 219.757812 95.378906 L 219.757812 107.324219 C 215.289062 108.808594 210.988281 110.777344 206.894531 113.105469 C 206.742188 113.191406 206.582031 113.28125 206.429688 113.367188 L 206.429688 106.265625 L 197.5 106.265625 L 197.5 119.492188 L 196.640625 120.199219 C 195.984375 120.761719 195.28125 121.273438 194.664062 121.878906 L 194.378906 122.15625 L 194.378906 95.378906 L 199.523438 93.050781 Z M 224.308594 105.976562 C 223.449219 106.199219 222.601562 106.480469 221.746094 106.738281 L 221.746094 95.367188 L 237.117188 95.253906 L 237.191406 95.285156 L 237.191406 103.855469 C 232.851562 104.210938 228.539062 104.890625 224.308594 105.976562 Z M 224.308594 105.976562 " fill-opacity="1" fill-rule="nonzero"/><path fill="#ba905d" d="M 229.550781 148.5 L 229.464844 148.5625 C 229.300781 148.675781 229.070312 148.808594 228.792969 148.976562 C 228.527344 149.132812 228.160156 149.375 227.875 149.636719 L 226.503906 150.703125 L 226.371094 150.832031 L 225.175781 151.984375 C 224.886719 152.226562 224.578125 152.578125 224.386719 152.820312 C 224.1875 153.078125 224.027344 153.273438 223.902344 153.394531 L 223.890625 153.40625 L 223.820312 153.496094 C 222.304688 155.367188 220.910156 157.457031 220.066406 159.886719 C 219.742188 160.820312 219.492188 161.761719 219.285156 162.710938 C 220.839844 161.714844 222.351562 160.644531 223.808594 159.511719 C 224.429688 158.066406 225.246094 156.65625 226.210938 155.320312 L 226.128906 155.417969 C 226.402344 155.101562 226.589844 154.816406 226.746094 154.597656 C 226.910156 154.367188 226.984375 154.257812 227.140625 154.109375 L 228.390625 152.746094 L 229.695312 151.59375 C 229.839844 151.4375 229.972656 151.332031 230.214844 151.164062 C 230.417969 151.019531 230.683594 150.839844 230.960938 150.621094 C 232.175781 149.761719 233.457031 149.019531 234.785156 148.382812 C 235.515625 147.417969 236.210938 146.429688 236.882812 145.417969 C 236.167969 145.589844 235.449219 145.761719 234.742188 146.007812 C 232.910156 146.636719 231.1875 147.507812 229.550781 148.5 Z M 229.550781 148.5 " fill-opacity="1" fill-rule="nonzero"/><path fill="#ba905d" d="M 201.710938 159.769531 C 201.074219 158.804688 200.414062 157.851562 199.726562 156.929688 C 199.328125 156.390625 198.871094 155.90625 198.453125 155.382812 C 197.226562 153.847656 195.941406 152.378906 194.585938 150.972656 C 193.59375 149.941406 192.605469 148.910156 191.546875 147.949219 C 191.472656 147.882812 191.394531 147.824219 191.320312 147.757812 C 190.25 146.792969 189.144531 145.867188 188.015625 144.976562 C 186.878906 144.074219 185.699219 143.226562 184.507812 142.398438 C 183.628906 141.789062 182.757812 141.167969 181.851562 140.601562 C 181.496094 140.378906 181.125 140.179688 180.765625 139.964844 C 174.625 136.246094 167.957031 133.421875 161.0625 131.660156 C 151.007812 129.183594 140.410156 128.847656 130.304688 130.828125 C 130.226562 130.84375 130.144531 130.855469 130.066406 130.875 C 130.441406 132.035156 130.855469 133.175781 131.296875 134.300781 C 131.480469 134.273438 131.660156 134.246094 131.847656 134.222656 C 141.1875 132.941406 150.804688 133.726562 159.792969 136.332031 C 166.414062 138.285156 172.730469 141.273438 178.417969 145.101562 C 178.785156 145.347656 179.164062 145.582031 179.527344 145.835938 C 180.457031 146.488281 181.339844 147.195312 182.230469 147.890625 C 183.421875 148.828125 184.578125 149.816406 185.695312 150.835938 C 185.820312 150.949219 185.945312 151.0625 186.066406 151.175781 C 187.195312 152.21875 188.273438 153.308594 189.320312 154.433594 C 190.425781 155.628906 191.476562 156.863281 192.476562 158.144531 C 193.136719 158.996094 193.828125 159.824219 194.4375 160.714844 C 195.289062 161.941406 196.078125 163.210938 196.820312 164.507812 C 197.976562 166.527344 199.003906 168.617188 199.871094 170.761719 C 200.25 170.679688 200.628906 170.59375 201.007812 170.503906 C 202.382812 170.171875 203.742188 169.804688 205.078125 169.382812 C 205.597656 169.222656 206.109375 169.039062 206.617188 168.863281 C 206.117188 167.695312 205.574219 166.542969 204.992188 165.417969 C 204 163.464844 202.90625 161.582031 201.710938 159.769531 Z M 201.710938 159.769531 " fill-opacity="1" fill-rule="nonzero"/><path fill="#ba905d" d="M 191.953125 161.335938 C 191.476562 160.652344 191.011719 159.960938 190.5 159.304688 C 189.921875 158.558594 189.304688 157.851562 188.695312 157.140625 C 187.507812 155.761719 186.269531 154.441406 184.964844 153.1875 C 184.617188 152.851562 184.257812 152.535156 183.902344 152.210938 C 183.117188 151.5 182.324219 150.800781 181.503906 150.132812 C 180.59375 149.386719 179.671875 148.664062 178.71875 147.972656 C 178.375 147.722656 178.019531 147.480469 177.667969 147.238281 C 165.769531 138.972656 151.054688 135.007812 136.820312 136.085938 C 135.582031 136.175781 134.339844 136.296875 133.101562 136.457031 C 132.820312 136.492188 132.539062 136.550781 132.257812 136.597656 C 132.753906 137.707031 133.277344 138.804688 133.839844 139.878906 C 134.335938 139.835938 134.828125 139.816406 135.324219 139.785156 C 135.886719 139.75 136.445312 139.695312 137.007812 139.679688 C 146.464844 139.4375 155.917969 141.417969 164.359375 145.488281 C 168.535156 147.457031 172.464844 149.921875 176.019531 152.804688 C 176.390625 153.109375 176.746094 153.425781 177.113281 153.738281 C 177.371094 153.964844 177.628906 154.1875 177.886719 154.414062 C 178.582031 155.03125 179.253906 155.667969 179.917969 156.316406 C 181.183594 157.5625 182.402344 158.851562 183.53125 160.214844 C 184.257812 161.09375 184.953125 162 185.613281 162.929688 C 186.332031 163.949219 187.007812 165 187.652344 166.0625 C 188.816406 167.988281 189.839844 169.980469 190.703125 172.035156 C 191.050781 172.015625 191.394531 171.984375 191.742188 171.957031 C 193.507812 171.820312 195.25 171.609375 196.964844 171.324219 C 197.082031 171.304688 197.195312 171.285156 197.308594 171.261719 C 197.171875 170.921875 197.039062 170.574219 196.890625 170.230469 C 195.550781 167.085938 193.882812 164.105469 191.953125 161.335938 Z M 191.953125 161.335938 " fill-opacity="1" fill-rule="nonzero"/><path fill="#ba905d" d="M 183.160156 163.53125 C 182.539062 162.699219 181.898438 161.882812 181.230469 161.09375 C 180.671875 160.441406 180.066406 159.832031 179.472656 159.210938 C 178.53125 158.21875 177.558594 157.265625 176.546875 156.351562 C 176.164062 156.003906 175.796875 155.648438 175.402344 155.3125 C 175.320312 155.242188 175.242188 155.15625 175.15625 155.085938 C 172.914062 153.199219 170.523438 151.5 168.023438 150.019531 C 163.097656 147.109375 157.785156 145.007812 152.300781 143.605469 C 147.332031 142.425781 142.199219 141.890625 137.097656 142.019531 C 136.414062 142.035156 135.730469 142.042969 135.050781 142.089844 C 135.652344 143.136719 136.28125 144.160156 136.945312 145.171875 C 138.050781 145.175781 139.160156 145.199219 140.261719 145.277344 C 144.011719 145.535156 147.726562 146.1875 151.304688 147.257812 C 156.351562 148.757812 161.15625 151.089844 165.433594 154.054688 C 166.253906 154.621094 167.039062 155.234375 167.820312 155.847656 C 170.246094 157.757812 172.472656 159.886719 174.414062 162.226562 C 174.84375 162.738281 175.238281 163.277344 175.632812 163.8125 C 175.886719 164.152344 176.167969 164.46875 176.40625 164.820312 C 177.363281 166.183594 178.207031 167.617188 178.953125 169.085938 C 179.398438 169.960938 179.808594 170.855469 180.167969 171.757812 C 181.175781 171.871094 182.1875 171.957031 183.210938 172.023438 C 184.457031 172.101562 185.71875 172.15625 186.988281 172.15625 C 187.316406 172.15625 187.644531 172.136719 187.972656 172.132812 C 188.074219 172.132812 188.171875 172.128906 188.265625 172.125 C 188.140625 171.847656 188.003906 171.574219 187.875 171.304688 C 186.558594 168.53125 184.960938 165.9375 183.160156 163.53125 Z M 183.160156 163.53125 " fill-opacity="1" fill-rule="nonzero"/><path fill="#ba905d" d="M 174.136719 166.070312 C 173.296875 164.832031 172.40625 163.628906 171.429688 162.523438 C 169.148438 159.914062 166.5625 157.644531 163.765625 155.703125 C 158.941406 152.34375 153.492188 149.957031 147.867188 148.550781 C 146.300781 148.175781 144.710938 147.902344 143.117188 147.679688 C 141.539062 147.457031 139.957031 147.304688 138.367188 147.238281 C 139.125 148.289062 139.90625 149.324219 140.730469 150.320312 C 142.859375 150.628906 144.964844 151.089844 147.011719 151.683594 C 155.160156 154.195312 162.675781 158.972656 167.769531 165.527344 C 168.839844 166.898438 169.769531 168.363281 170.585938 169.863281 C 171.789062 170.207031 173.007812 170.515625 174.242188 170.78125 C 174.710938 170.886719 175.183594 170.980469 175.65625 171.070312 C 176.140625 171.160156 176.621094 171.246094 177.105469 171.328125 C 176.625 170.257812 176.09375 169.214844 175.511719 168.203125 C 175.089844 167.472656 174.617188 166.769531 174.136719 166.070312 Z M 174.136719 166.070312 " fill-opacity="1" fill-rule="nonzero"/><path fill="#ba905d" d="M 144.347656 153.363281 C 143.972656 153.277344 143.589844 153.214844 143.210938 153.140625 C 149.660156 160.042969 157.722656 165.421875 166.8125 168.667969 C 165.957031 167.328125 165.023438 166.042969 163.988281 164.875 C 158.761719 158.964844 151.722656 155.164062 144.347656 153.363281 Z M 144.347656 153.363281 " fill-opacity="1" fill-rule="nonzero"/><path fill="#640029" d="M 224.308594 105.976562 C 223.449219 106.199219 222.601562 106.480469 221.746094 106.738281 L 221.746094 95.367188 L 237.117188 95.253906 L 237.191406 95.285156 L 237.191406 103.855469 C 232.851562 104.210938 228.539062 104.890625 224.308594 105.976562 Z M 224.308594 105.976562 " fill-opacity="1" fill-rule="nonzero"/><g clip-path="url(#dddf6184f4)"><path fill="#ba905d" d="M 190.539062 254.414062 C 190.234375 245.214844 190.105469 236.015625 189.886719 226.816406 L 189.695312 213.011719 C 189.664062 208.214844 190.347656 203.402344 191.71875 198.785156 C 193.105469 194.175781 195.125 189.710938 197.90625 185.726562 C 200.6875 181.746094 204.109375 178.199219 208.050781 175.3125 C 210.007812 173.851562 212.121094 172.617188 214.296875 171.5 C 216.324219 170.476562 218.253906 169.453125 220.148438 168.273438 C 223.921875 165.9375 227.441406 163.199219 230.648438 160.140625 C 237.011719 153.984375 242.242188 146.613281 245.625 138.40625 C 249.03125 130.265625 250.691406 121.214844 250.386719 112.503906 C 250.101562 108.140625 249.253906 103.636719 248.304688 99.195312 C 247.339844 94.746094 246.222656 90.308594 245.027344 85.894531 C 242.652344 77.0625 240.046875 68.210938 236.820312 59.714844 L 236.808594 59.683594 C 236.621094 59.199219 236.867188 58.65625 237.355469 58.472656 C 237.8125 58.300781 238.324219 58.511719 238.535156 58.941406 C 240.574219 63.15625 242.238281 67.464844 243.839844 71.808594 C 245.425781 76.152344 246.957031 80.511719 248.339844 84.929688 C 249.699219 89.351562 250.980469 93.800781 252.117188 98.308594 C 253.234375 102.828125 254.269531 107.359375 254.753906 112.171875 C 255.851562 131.347656 248.039062 150.585938 234.101562 163.746094 C 230.621094 167.023438 226.804688 169.941406 222.722656 172.433594 C 220.695312 173.679688 218.539062 174.800781 216.445312 175.839844 C 214.515625 176.824219 212.628906 177.894531 210.886719 179.183594 C 203.847656 184.261719 198.617188 191.75 195.921875 200.082031 C 194.566406 204.246094 193.832031 208.625 193.742188 213.023438 L 193.542969 226.816406 C 193.324219 236.011719 193.195312 245.210938 192.890625 254.414062 C 192.871094 255.058594 192.328125 255.566406 191.679688 255.546875 C 191.054688 255.527344 190.5625 255.023438 190.539062 254.414062 Z M 190.539062 254.414062 " fill-opacity="1" fill-rule="nonzero"/></g><g clip-path="url(#961a5248c9)"><path fill="#ba905d" d="M 136.886719 59.566406 C 134.191406 67 131.9375 74.625 129.691406 82.222656 C 127.539062 89.839844 125.503906 97.519531 124.121094 105.242188 C 123.796875 107.164062 123.476562 109.101562 123.320312 111.007812 C 123.097656 112.9375 123.125 114.730469 123.179688 116.707031 C 123.332031 120.566406 123.855469 124.40625 124.695312 128.167969 C 126.40625 135.679688 129.355469 142.929688 133.601562 149.386719 C 137.785156 155.875 143.199219 161.582031 149.441406 166.175781 C 152.570312 168.476562 155.890625 170.457031 159.402344 172.203125 C 163.113281 174.050781 166.539062 176.464844 169.535156 179.308594 C 175.539062 185.007812 179.789062 192.394531 181.925781 200.300781 C 182.984375 204.253906 183.53125 208.34375 183.550781 212.425781 L 183.445312 224.363281 C 183.441406 225.007812 182.914062 225.527344 182.265625 225.523438 C 181.628906 225.519531 181.109375 224.996094 181.101562 224.363281 L 180.953125 212.464844 C 180.851562 208.605469 180.257812 204.761719 179.179688 201.0625 C 177.058594 193.660156 172.988281 186.8125 167.355469 181.617188 C 164.546875 179.019531 161.359375 176.839844 157.917969 175.183594 C 154.277344 173.433594 150.699219 171.371094 147.378906 168.996094 C 140.738281 164.242188 134.933594 158.292969 130.40625 151.472656 C 125.894531 144.652344 122.585938 136.996094 120.914062 128.980469 C 120.097656 124.972656 119.609375 120.894531 119.519531 116.816406 C 119.472656 114.820312 119.542969 112.628906 119.855469 110.617188 C 120.105469 108.570312 120.511719 106.597656 120.917969 104.617188 C 122.628906 96.742188 124.964844 89.109375 127.414062 81.519531 C 129.898438 73.945312 132.601562 66.453125 135.734375 59.09375 C 135.871094 58.78125 136.238281 58.628906 136.554688 58.765625 C 136.859375 58.894531 137.007812 59.238281 136.898438 59.546875 Z M 136.886719 59.566406 " fill-opacity="1" fill-rule="nonzero"/></g><g fill="#d9a566" fill-opacity="1"><g transform="translate(64.638159, 304.019257)"><g><path d="M 2.761719 -22.636719 L 11.902344 0 L 13.378906 0 L 22.167969 -22.636719 C 23.179688 -25.242188 24.191406 -26.253906 25.359375 -26.679688 L 25.359375 -27.226562 L 20.847656 -27.226562 L 20.847656 -26.679688 C 22.167969 -26.367188 22.441406 -25.242188 21.429688 -22.636719 L 14.390625 -4.472656 L 7.234375 -22.636719 C 6.222656 -25.242188 5.71875 -26.253906 7 -26.679688 L 7 -27.226562 L -0.15625 -27.226562 L -0.15625 -26.679688 C 0.738281 -26.253906 1.75 -25.242188 2.761719 -22.636719 Z M 2.761719 -22.636719 "/></g></g></g><g fill="#d9a566" fill-opacity="1"><g transform="translate(89.831654, 304.019257)"><g><path d="M 1.828125 0 L 9.0625 0 L 9.0625 -0.542969 C 7.777344 -0.972656 7.507812 -2.140625 7.507812 -4.9375 L 7.507812 -22.285156 C 7.507812 -25.085938 7.777344 -26.253906 9.0625 -26.679688 L 9.0625 -27.226562 L 1.828125 -27.226562 L 1.828125 -26.679688 C 3.113281 -26.253906 3.382812 -25.085938 3.382812 -22.285156 L 3.382812 -4.9375 C 3.382812 -2.140625 3.113281 -0.972656 1.828125 -0.542969 Z M 1.828125 0 "/></g></g></g><g fill="#d9a566" fill-opacity="1"><g transform="translate(100.717737, 304.019257)"><g><path d="M 22.324219 0.3125 L 22.828125 0.3125 L 22.828125 -22.285156 C 22.828125 -25.085938 23.101562 -26.253906 24.386719 -26.679688 L 24.386719 -27.226562 L 19.136719 -27.226562 L 19.136719 -26.679688 C 21.15625 -26.058594 22.089844 -24.695312 22.089844 -19.953125 L 22.089844 -6.765625 L 5.757812 -27.226562 L 1.359375 -27.226562 L 1.359375 -26.679688 C 3.035156 -26.253906 3.382812 -25.085938 3.382812 -22.285156 L 3.382812 -4.9375 C 3.382812 -2.140625 3.113281 -0.972656 1.828125 -0.542969 L 1.828125 0 L 7.039062 0 L 7.039062 -0.542969 C 5.015625 -1.167969 4.082031 -2.527344 4.082031 -7.273438 L 4.082031 -22.714844 Z M 22.324219 0.3125 "/></g></g></g><g fill="#d9a566" fill-opacity="1"><g transform="translate(126.455544, 304.019257)"><g><path d="M 16.023438 0.390625 C 22.558594 0.390625 29.910156 -4.007812 29.910156 -13.496094 C 29.910156 -23.023438 22.597656 -27.535156 16.023438 -27.535156 C 7.777344 -27.535156 2.101562 -21.429688 2.101562 -13.730469 C 2.101562 -3.96875 9.410156 0.390625 16.023438 0.390625 Z M 6.144531 -16.101562 C 5.71875 -22.402344 8.710938 -26.523438 14 -26.523438 C 20.730469 -26.523438 25.398438 -18.707031 25.980469 -10.421875 C 26.332031 -5.289062 24.191406 -0.816406 18.242188 -0.816406 C 11.628906 -0.816406 6.691406 -8.324219 6.144531 -16.101562 Z M 6.144531 -16.101562 "/></g></g></g><g fill="#d9a566" fill-opacity="1"><g transform="translate(158.336211, 304.019257)"><g/></g></g><g fill="#d9a566" fill-opacity="1"><g transform="translate(166.111978, 304.019257)"><g><path d="M 21.625 0.273438 C 22.285156 0.273438 23.53125 0.234375 24.425781 0 L 24.425781 -0.542969 C 24.230469 -0.503906 24.035156 -0.503906 23.839844 -0.503906 C 22.402344 -0.503906 21.972656 -1.4375 19.914062 -6.613281 C 17.851562 -11.785156 16.996094 -13.613281 12.601562 -14.117188 C 17.773438 -14.738281 20.222656 -17.421875 20.222656 -21 C 20.222656 -24.152344 18.472656 -27.226562 9.996094 -27.226562 L 1.828125 -27.226562 L 1.828125 -26.679688 C 3.113281 -26.253906 3.382812 -25.085938 3.382812 -22.285156 L 3.382812 -4.9375 C 3.382812 -2.140625 3.113281 -0.972656 1.828125 -0.542969 L 1.828125 0 L 9.0625 0 L 9.0625 -0.542969 C 7.777344 -0.972656 7.507812 -2.140625 7.507812 -4.9375 L 7.507812 -13.960938 L 9.800781 -13.960938 C 13.222656 -13.960938 13.417969 -12.054688 15.75 -6.378906 C 17.617188 -1.828125 18.394531 0.273438 21.625 0.273438 Z M 7.507812 -14.585938 L 7.507812 -26.484375 C 8.089844 -26.5625 8.671875 -26.601562 9.21875 -26.601562 C 14.078125 -26.601562 16.101562 -23.21875 16.101562 -20.070312 C 16.101562 -17.074219 14.429688 -14.585938 9.996094 -14.585938 Z M 7.507812 -14.585938 "/></g></g></g><g fill="#d9a566" fill-opacity="1"><g transform="translate(190.139106, 304.019257)"><g><path d="M 14.351562 0.390625 C 20.03125 0.390625 24.113281 -2.761719 24.113281 -10.578125 L 24.113281 -22.285156 C 24.113281 -25.085938 24.386719 -26.253906 25.667969 -26.679688 L 25.667969 -27.226562 L 20.457031 -27.226562 L 20.457031 -26.679688 C 22.480469 -26.058594 23.414062 -24.695312 23.414062 -19.953125 L 23.414062 -10.5 C 23.414062 -2.957031 19.175781 -0.542969 15.90625 -0.542969 C 10.617188 -0.542969 7.117188 -3.1875 7.117188 -10.269531 L 7.117188 -22.285156 C 7.117188 -25.085938 7.390625 -26.253906 8.671875 -26.679688 L 8.671875 -27.226562 L 1.4375 -27.226562 L 1.4375 -26.679688 C 2.722656 -26.253906 2.996094 -25.085938 2.996094 -22.285156 L 2.996094 -10.578125 C 2.996094 -2.21875 8.75 0.390625 14.351562 0.390625 Z M 14.351562 0.390625 "/></g></g></g><g fill="#d9a566" fill-opacity="1"><g transform="translate(216.84888, 304.019257)"><g><path d="M 21.625 0.273438 C 22.285156 0.273438 23.53125 0.234375 24.425781 0 L 24.425781 -0.542969 C 24.230469 -0.503906 24.035156 -0.503906 23.839844 -0.503906 C 22.402344 -0.503906 21.972656 -1.4375 19.914062 -6.613281 C 17.851562 -11.785156 16.996094 -13.613281 12.601562 -14.117188 C 17.773438 -14.738281 20.222656 -17.421875 20.222656 -21 C 20.222656 -24.152344 18.472656 -27.226562 9.996094 -27.226562 L 1.828125 -27.226562 L 1.828125 -26.679688 C 3.113281 -26.253906 3.382812 -25.085938 3.382812 -22.285156 L 3.382812 -4.9375 C 3.382812 -2.140625 3.113281 -0.972656 1.828125 -0.542969 L 1.828125 0 L 9.0625 0 L 9.0625 -0.542969 C 7.777344 -0.972656 7.507812 -2.140625 7.507812 -4.9375 L 7.507812 -13.960938 L 9.800781 -13.960938 C 13.222656 -13.960938 13.417969 -12.054688 15.75 -6.378906 C 17.617188 -1.828125 18.394531 0.273438 21.625 0.273438 Z M 7.507812 -14.585938 L 7.507812 -26.484375 C 8.089844 -26.5625 8.671875 -26.601562 9.21875 -26.601562 C 14.078125 -26.601562 16.101562 -23.21875 16.101562 -20.070312 C 16.101562 -17.074219 14.429688 -14.585938 9.996094 -14.585938 Z M 7.507812 -14.585938 "/></g></g></g><g fill="#d9a566" fill-opacity="1"><g transform="translate(240.876008, 304.019257)"><g><path d="M -0.816406 0 L 3.695312 0 L 3.695312 -0.542969 C 2.371094 -0.855469 2.140625 -1.984375 3.1875 -4.589844 L 5.445312 -10.152344 L 15.828125 -10.152344 L 18.164062 -4.550781 C 19.25 -1.984375 19.796875 -0.972656 18.511719 -0.542969 L 18.511719 0 L 25.589844 0 L 25.589844 -0.542969 C 24.695312 -0.972656 23.683594 -1.984375 22.597656 -4.550781 L 12.949219 -27.535156 L 9.140625 -25.824219 L 9.644531 -24.734375 C 9.996094 -24.035156 10.035156 -23.414062 9.722656 -22.636719 L 2.449219 -4.589844 C 1.398438 -1.984375 0.351562 -0.972656 -0.816406 -0.542969 Z M 5.679688 -10.773438 L 10.539062 -22.789062 L 15.558594 -10.773438 Z M 5.679688 -10.773438 "/></g></g></g><g fill="#d9a566" fill-opacity="1"><g transform="translate(265.875119, 304.019257)"><g><path d="M 1.828125 0 L 20.339844 0 L 20.652344 -4.902344 L 20.144531 -4.976562 C 18.589844 -1.632812 16.566406 -0.699219 12.640625 -0.699219 L 9.449219 -0.699219 C 8.207031 -0.699219 7.507812 -1.398438 7.507812 -2.644531 L 7.507812 -22.285156 C 7.507812 -25.085938 7.777344 -26.253906 9.0625 -26.679688 L 9.0625 -27.226562 L 1.828125 -27.226562 L 1.828125 -26.679688 C 3.113281 -26.253906 3.382812 -25.085938 3.382812 -22.285156 L 3.382812 -4.9375 C 3.382812 -2.140625 3.113281 -0.972656 1.828125 -0.542969 Z M 1.828125 0 "/></g></g></g><g fill="#d9a566" fill-opacity="1"><g transform="translate(287.219616, 304.019257)"><g><path d="M 1.828125 0 L 21.507812 0 L 21.78125 -5.679688 L 21.273438 -5.757812 C 19.796875 -1.789062 17.113281 -0.621094 13.183594 -0.621094 L 9.449219 -0.621094 C 8.207031 -0.621094 7.507812 -1.324219 7.507812 -2.566406 L 7.507812 -14.3125 L 11.238281 -14.3125 C 15.984375 -14.3125 17.347656 -13.378906 17.96875 -11.355469 L 18.511719 -11.355469 L 18.511719 -17.890625 L 17.96875 -17.890625 C 17.347656 -15.867188 15.984375 -14.933594 11.238281 -14.933594 L 7.507812 -14.933594 L 7.507812 -26.601562 L 12.054688 -26.601562 C 16.414062 -26.601562 18.863281 -25.4375 20.417969 -21.625 L 20.925781 -21.742188 L 20.496094 -27.226562 L 1.828125 -27.226562 L 1.828125 -26.679688 C 3.113281 -26.253906 3.382812 -25.085938 3.382812 -22.285156 L 3.382812 -4.9375 C 3.382812 -2.140625 3.113281 -0.972656 1.828125 -0.542969 Z M 1.828125 0 "/></g></g></g></svg>