<svg xmlns="http://www.w3.org/2000/svg" xmlns:xlink="http://www.w3.org/1999/xlink" width="500" zoomAndPan="magnify" viewBox="0 0 375 374.999991" height="500" preserveAspectRatio="xMidYMid meet" version="1.0"><defs><g/><clipPath id="28f78f34d3"><path d="M 175.523438 98.886719 L 264.136719 98.886719 L 264.136719 187.5 L 175.523438 187.5 Z M 175.523438 98.886719 " clip-rule="nonzero"/></clipPath><clipPath id="87fc5490a7"><path d="M 219.828125 98.886719 C 195.359375 98.886719 175.523438 118.722656 175.523438 143.191406 C 175.523438 167.664062 195.359375 187.5 219.828125 187.5 C 244.300781 187.5 264.136719 167.664062 264.136719 143.191406 C 264.136719 118.722656 244.300781 98.886719 219.828125 98.886719 " clip-rule="nonzero"/></clipPath><clipPath id="bd4a701d2d"><path d="M 189 70.621094 L 239 70.621094 L 239 220.621094 L 189 220.621094 Z M 189 70.621094 " clip-rule="nonzero"/></clipPath><clipPath id="aa3a1e7b6b"><path d="M 135.75 70.621094 L 185 70.621094 L 185 198 L 135.75 198 Z M 135.75 70.621094 " clip-rule="nonzero"/></clipPath></defs><g clip-path="url(#28f78f34d3)"><g clip-path="url(#87fc5490a7)"><path fill="#1b12b0" d="M 175.523438 98.886719 L 264.136719 98.886719 L 264.136719 187.5 L 175.523438 187.5 Z M 175.523438 98.886719 " fill-opacity="1" fill-rule="nonzero"/></g></g><path fill="#640029" d="M 194.300781 117.695312 L 194.949219 117.160156 L 194.949219 107.101562 L 201.71875 107.101562 L 201.71875 112.5 C 201.835938 112.433594 201.953125 112.367188 202.070312 112.304688 C 205.175781 110.527344 208.4375 109.03125 211.824219 107.90625 L 211.824219 98.824219 L 202.207031 94.453125 L 196.484375 97.050781 L 192.585938 98.824219 L 192.585938 119.183594 L 192.800781 118.972656 C 193.269531 118.511719 193.800781 118.125 194.300781 117.695312 Z M 194.300781 117.695312 " fill-opacity="1" fill-rule="nonzero"/><path fill="#640029" d="M 212.554688 123.933594 C 211.101562 124.742188 209.695312 125.621094 208.359375 126.617188 L 207.347656 127.355469 C 207.019531 127.601562 206.8125 127.792969 206.464844 128.101562 L 204.597656 129.746094 L 202.480469 131.980469 C 202.195312 132.292969 201.910156 132.667969 201.59375 133.082031 L 201.09375 133.726562 C 200.9375 133.914062 200.808594 134.113281 200.664062 134.300781 C 199.726562 135.597656 198.898438 136.976562 198.148438 138.382812 C 198.953125 139.226562 199.726562 140.097656 200.476562 140.992188 C 200.554688 140.835938 200.609375 140.675781 200.695312 140.523438 C 201.558594 138.917969 202.554688 137.414062 203.667969 135.992188 C 203.8125 135.808594 203.957031 135.613281 204.109375 135.441406 L 204.5 134.972656 C 204.773438 134.640625 205.074219 134.265625 205.4375 133.894531 L 207.296875 132.074219 L 207.355469 132.015625 L 207.382812 131.996094 L 209.023438 130.667969 C 209.277344 130.464844 209.636719 130.160156 209.949219 129.953125 L 210.863281 129.355469 C 212.070312 128.546875 213.355469 127.828125 214.660156 127.175781 C 217.273438 125.871094 220.097656 124.953125 222.941406 124.414062 C 225.519531 123.925781 228.117188 123.683594 230.746094 123.769531 C 231.148438 122.289062 231.480469 120.777344 231.734375 119.242188 C 228.429688 119.171875 225.058594 119.597656 221.828125 120.347656 C 218.5625 121.109375 215.460938 122.316406 212.554688 123.933594 Z M 212.554688 123.933594 " fill-opacity="1" fill-rule="nonzero"/><path fill="#640029" d="M 217.746094 114.824219 C 213.535156 116.042969 209.550781 117.957031 205.898438 120.355469 C 205.433594 120.664062 205.007812 120.945312 204.5625 121.273438 L 203.207031 122.25 C 202.765625 122.574219 202.421875 122.867188 202 123.242188 L 200.757812 124.332031 C 200.675781 124.40625 200.585938 124.480469 200.5 124.554688 C 200.171875 124.839844 199.835938 125.121094 199.53125 125.433594 L 198.390625 126.632812 L 197.265625 127.8125 C 196.933594 128.171875 196.613281 128.574219 196.277344 129.007812 C 195.078125 130.5 194.007812 132.070312 193.035156 133.6875 C 193.5 134.0625 193.964844 134.4375 194.417969 134.828125 C 194.761719 135.125 195.097656 135.4375 195.4375 135.742188 C 196.191406 134.515625 196.992188 133.320312 197.875 132.1875 C 198.058594 131.964844 198.226562 131.726562 198.414062 131.519531 L 198.894531 130.941406 C 199.230469 130.535156 199.597656 130.089844 200.035156 129.640625 L 202.300781 127.417969 L 202.375 127.34375 L 202.410156 127.316406 L 204.402344 125.703125 C 204.710938 125.453125 205.15625 125.089844 205.53125 124.839844 L 206.640625 124.105469 C 208.113281 123.121094 209.675781 122.246094 211.265625 121.457031 C 214.449219 119.875 217.886719 118.753906 221.351562 118.097656 C 224.828125 117.449219 228.332031 117.148438 231.882812 117.371094 C 231.921875 117.375 231.957031 117.382812 231.996094 117.386719 C 232.171875 115.925781 232.28125 114.453125 232.316406 112.957031 C 231.800781 112.9375 231.285156 112.902344 230.769531 112.902344 C 226.378906 112.957031 221.957031 113.605469 217.746094 114.824219 Z M 217.746094 114.824219 " fill-opacity="1" fill-rule="nonzero"/><path fill="#640029" d="M 219.757812 141.238281 C 219.574219 141.367188 219.480469 141.445312 219.363281 141.566406 L 218.375 142.441406 L 217.429688 143.476562 C 217.308594 143.59375 217.253906 143.671875 217.128906 143.851562 C 217.011719 144.015625 216.867188 144.234375 216.660156 144.472656 L 216.722656 144.398438 C 215.996094 145.417969 215.371094 146.488281 214.902344 147.585938 C 218.027344 145.140625 220.832031 142.300781 223.222656 139.128906 C 222.214844 139.609375 221.246094 140.175781 220.324219 140.828125 C 220.113281 140.992188 219.914062 141.128906 219.757812 141.238281 Z M 219.757812 141.238281 " fill-opacity="1" fill-rule="nonzero"/><path fill="#640029" d="M 215.628906 129.035156 C 214.429688 129.707031 213.265625 130.429688 212.15625 131.253906 L 211.316406 131.859375 C 211.050781 132.058594 210.878906 132.222656 210.589844 132.476562 L 209.042969 133.835938 L 207.292969 135.6875 C 207.058594 135.941406 206.828125 136.25 206.570312 136.597656 L 206.152344 137.140625 C 206.019531 137.296875 205.917969 137.453125 205.800781 137.613281 C 204.839844 138.949219 203.972656 140.375 203.257812 141.839844 C 202.976562 142.402344 202.738281 142.988281 202.507812 143.566406 C 202.617188 143.71875 202.734375 143.859375 202.839844 144.011719 C 203.625 145.101562 204.351562 146.234375 205.050781 147.386719 C 205.46875 145.925781 206.023438 144.496094 206.753906 143.152344 C 207.457031 141.878906 208.257812 140.695312 209.148438 139.570312 C 209.269531 139.425781 209.390625 139.257812 209.511719 139.128906 L 209.804688 138.78125 C 210.015625 138.523438 210.261719 138.214844 210.582031 137.902344 L 212.042969 136.488281 L 212.113281 136.421875 L 212.128906 136.410156 L 213.417969 135.386719 C 213.609375 135.238281 213.914062 134.972656 214.179688 134.808594 L 214.90625 134.351562 C 215.859375 133.722656 216.886719 133.160156 217.917969 132.65625 C 219.988281 131.632812 222.242188 130.925781 224.488281 130.519531 C 225.832031 130.28125 227.179688 130.121094 228.53125 130.058594 C 229.21875 128.488281 229.828125 126.871094 230.339844 125.214844 C 227.980469 125.253906 225.59375 125.574219 223.296875 126.09375 C 220.59375 126.703125 218.035156 127.703125 215.628906 129.035156 Z M 215.628906 129.035156 " fill-opacity="1" fill-rule="nonzero"/><path fill="#640029" d="M 218.839844 134.398438 C 217.90625 134.9375 217.003906 135.507812 216.140625 136.164062 L 215.484375 136.640625 C 215.285156 136.785156 215.183594 136.902344 214.941406 137.113281 L 213.742188 138.175781 L 212.375 139.65625 C 212.214844 139.828125 212.046875 140.058594 211.84375 140.34375 L 211.503906 140.789062 C 211.402344 140.910156 211.328125 141.027344 211.238281 141.148438 C 210.503906 142.195312 209.832031 143.308594 209.289062 144.449219 C 208.175781 146.703125 207.601562 149.503906 207.636719 152.222656 C 208.953125 151.550781 210.230469 150.8125 211.46875 150.015625 C 211.625 149.292969 211.816406 148.582031 212.0625 147.867188 C 212.699219 146.019531 213.761719 144.433594 214.90625 143.007812 L 214.960938 142.941406 L 214.96875 142.933594 C 215.066406 142.839844 215.183594 142.691406 215.339844 142.496094 C 215.480469 142.3125 215.714844 142.042969 215.933594 141.859375 L 216.839844 140.984375 L 216.941406 140.882812 L 216.96875 140.863281 L 217.984375 140.074219 C 218.199219 139.875 218.476562 139.691406 218.679688 139.570312 C 218.886719 139.445312 219.0625 139.347656 219.1875 139.257812 L 219.253906 139.207031 C 220.488281 138.457031 221.800781 137.796875 223.183594 137.3125 C 223.722656 137.128906 224.265625 136.996094 224.808594 136.867188 C 225.949219 135.148438 226.976562 133.355469 227.875 131.484375 C 226.84375 131.617188 225.8125 131.804688 224.808594 132.035156 C 222.691406 132.535156 220.707031 133.335938 218.839844 134.398438 Z M 218.839844 134.398438 " fill-opacity="1" fill-rule="nonzero"/><path fill="#640029" d="M 232.121094 106.785156 C 231.695312 106.773438 231.269531 106.742188 230.84375 106.738281 C 225.785156 106.78125 220.691406 107.519531 215.832031 108.921875 C 213.894531 109.476562 212.015625 110.191406 210.167969 110.988281 C 207.386719 112.183594 204.699219 113.601562 202.164062 115.257812 C 202.160156 115.257812 202.15625 115.257812 202.152344 115.261719 C 201.617188 115.613281 201.121094 115.941406 200.605469 116.316406 L 199.050781 117.4375 C 198.085938 118.136719 197.179688 119.015625 196.207031 119.84375 C 195.738281 120.269531 195.230469 120.652344 194.792969 121.113281 L 193.476562 122.480469 L 192.175781 123.84375 C 192.058594 123.96875 191.945312 124.125 191.828125 124.257812 C 191.558594 124.574219 191.289062 124.886719 191.015625 125.234375 C 189.816406 126.722656 188.734375 128.289062 187.726562 129.890625 C 187.859375 129.976562 188 130.054688 188.136719 130.140625 C 188.929688 130.652344 189.710938 131.183594 190.476562 131.738281 C 191.539062 130.125 192.679688 128.566406 193.90625 127.121094 C 194.273438 126.675781 194.664062 126.214844 195.105469 125.761719 L 196.339844 124.542969 L 197.5625 123.34375 C 197.96875 122.941406 198.4375 122.605469 198.871094 122.234375 L 200.195312 121.144531 C 200.621094 120.789062 201.152344 120.378906 201.628906 120.054688 L 201.683594 120.019531 L 203.042969 119.117188 C 203.511719 118.796875 204.039062 118.476562 204.519531 118.183594 C 208.460938 115.804688 212.738281 113.960938 217.195312 112.84375 C 221.644531 111.710938 226.207031 111.179688 230.789062 111.269531 C 231.308594 111.285156 231.824219 111.339844 232.339844 111.375 L 232.339844 110.976562 C 232.347656 109.535156 232.261719 108.140625 232.121094 106.785156 Z M 232.121094 106.785156 " fill-opacity="1" fill-rule="nonzero"/><path fill="#640029" d="M 156.671875 141.640625 C 155.121094 141.1875 153.519531 140.839844 151.910156 140.601562 C 152.511719 141.335938 153.144531 142.046875 153.792969 142.742188 C 154.078125 142.804688 154.367188 142.847656 154.652344 142.914062 C 160.242188 144.285156 165.582031 147.175781 169.539062 151.667969 C 170.328125 152.554688 171.035156 153.53125 171.679688 154.550781 C 172.621094 154.886719 173.578125 155.1875 174.546875 155.460938 C 173.925781 154.316406 173.222656 153.207031 172.410156 152.164062 C 168.546875 147.183594 162.851562 143.550781 156.671875 141.640625 Z M 156.671875 141.640625 " fill-opacity="1" fill-rule="nonzero"/><path fill="#640029" d="M 169.761719 122.222656 C 170.890625 122.503906 172.003906 122.828125 173.113281 123.171875 C 173.382812 123.253906 173.65625 123.339844 173.925781 123.425781 C 174.066406 123.472656 174.207031 123.511719 174.351562 123.5625 C 176.769531 124.363281 179.144531 125.316406 181.453125 126.417969 C 179.203125 125.15625 176.839844 124.058594 174.402344 123.078125 C 174.234375 123.011719 174.070312 122.941406 173.902344 122.878906 L 173.832031 121.070312 L 173.734375 118.636719 L 174.089844 120.996094 C 175.035156 120.632812 175.730469 119.359375 175.730469 117.179688 C 175.730469 114.582031 174.414062 110.851562 173.515625 110.851562 C 172.636719 110.851562 171.304688 114.582031 171.304688 117.179688 C 171.304688 119.550781 172.128906 120.855469 173.203125 121.070312 L 173.140625 122.566406 C 171.386719 121.90625 169.605469 121.292969 167.769531 120.78125 L 167.761719 120.777344 C 167.347656 120.667969 166.949219 120.578125 166.539062 120.476562 C 166.292969 120.414062 166.042969 120.351562 165.800781 120.292969 L 165.683594 117.230469 L 165.546875 113.824219 L 166.039062 117.125 C 167.359375 116.617188 168.335938 114.832031 168.335938 111.785156 C 168.335938 108.144531 166.496094 102.925781 165.234375 102.925781 C 164 102.925781 162.136719 108.144531 162.136719 111.785156 C 162.136719 115.101562 163.292969 116.929688 164.792969 117.230469 L 164.679688 120.03125 C 162.164062 119.476562 159.707031 119.085938 157.324219 118.851562 C 157.019531 118.820312 156.726562 118.804688 156.425781 118.78125 L 156.28125 115.152344 L 156.109375 110.730469 L 156.75 115.019531 C 158.464844 114.359375 159.738281 112.039062 159.738281 108.078125 C 159.738281 103.34375 157.347656 96.558594 155.707031 96.558594 C 154.101562 96.558594 151.675781 103.34375 151.675781 108.078125 C 151.675781 112.394531 153.179688 114.765625 155.132812 115.15625 L 154.992188 118.675781 C 150.511719 118.410156 146.277344 118.691406 142.273438 119.382812 C 142.269531 119.382812 142.261719 119.386719 142.261719 119.386719 C 142.289062 119.558594 142.320312 119.730469 142.351562 119.898438 C 142.421875 120.300781 142.488281 120.707031 142.570312 121.101562 C 142.628906 121.375 142.699219 121.640625 142.761719 121.914062 C 142.765625 121.910156 142.777344 121.910156 142.78125 121.910156 C 151.585938 119.960938 160.902344 120.101562 169.761719 122.222656 Z M 169.761719 122.222656 " fill-opacity="1" fill-rule="nonzero"/><path fill="#640029" d="M 178.960938 151.628906 C 178.777344 151.367188 178.566406 151.121094 178.375 150.863281 C 178.074219 150.453125 177.773438 150.050781 177.449219 149.65625 C 175.976562 147.875 174.289062 146.257812 172.449219 144.804688 C 171.855469 144.339844 171.261719 143.875 170.640625 143.441406 C 167.398438 141.183594 163.753906 139.414062 159.929688 138.273438 C 157.214844 137.464844 154.398438 136.964844 151.554688 136.769531 C 150.71875 136.710938 149.878906 136.691406 149.039062 136.6875 C 149.386719 137.21875 149.75 137.738281 150.117188 138.253906 C 151.324219 138.304688 152.523438 138.421875 153.71875 138.589844 C 154.925781 138.761719 156.132812 138.96875 157.320312 139.253906 C 161.585938 140.324219 165.71875 142.136719 169.375 144.691406 C 171.492188 146.171875 173.453125 147.894531 175.1875 149.878906 C 175.925781 150.726562 176.601562 151.636719 177.238281 152.578125 C 177.601562 153.113281 177.960938 153.640625 178.285156 154.203125 C 178.722656 154.96875 179.125 155.761719 179.492188 156.578125 C 179.988281 156.660156 180.492188 156.734375 180.996094 156.800781 C 181.269531 156.835938 181.542969 156.871094 181.816406 156.902344 C 181.539062 156.21875 181.230469 155.539062 180.894531 154.875 C 180.324219 153.757812 179.683594 152.671875 178.960938 151.628906 Z M 178.960938 151.628906 " fill-opacity="1" fill-rule="nonzero"/><path fill="#640029" d="M 185.933594 150.183594 C 185.429688 149.476562 184.902344 148.789062 184.355469 148.121094 C 183.5 147.082031 182.578125 146.101562 181.617188 145.152344 C 181.117188 144.660156 180.605469 144.175781 180.078125 143.707031 C 179.882812 143.53125 179.6875 143.359375 179.488281 143.191406 C 179.214844 142.957031 178.941406 142.714844 178.660156 142.484375 C 175.964844 140.292969 172.984375 138.421875 169.820312 136.917969 C 163.421875 133.824219 156.253906 132.320312 149.082031 132.5 C 148.65625 132.515625 148.230469 132.558594 147.804688 132.582031 C 147.429688 132.605469 147.054688 132.621094 146.679688 132.65625 C 146.972656 133.222656 147.277344 133.785156 147.597656 134.339844 C 148.113281 134.304688 148.632812 134.300781 149.148438 134.289062 C 153.019531 134.191406 156.910156 134.597656 160.675781 135.492188 C 164.832031 136.5625 168.863281 138.160156 172.597656 140.371094 C 174.496094 141.496094 176.304688 142.789062 178.003906 144.226562 C 178.070312 144.277344 178.128906 144.339844 178.195312 144.394531 C 178.492188 144.652344 178.769531 144.921875 179.058594 145.1875 C 179.824219 145.878906 180.566406 146.605469 181.277344 147.359375 C 181.726562 147.835938 182.1875 148.296875 182.613281 148.792969 C 183.121094 149.390625 183.601562 150.015625 184.074219 150.648438 C 185.441406 152.476562 186.652344 154.449219 187.652344 156.554688 C 187.75 156.761719 187.855469 156.96875 187.949219 157.175781 C 188.566406 157.164062 189.183594 157.144531 189.789062 157.105469 C 189.136719 155.539062 188.359375 154.027344 187.480469 152.5625 C 186.996094 151.757812 186.484375 150.957031 185.933594 150.183594 Z M 185.933594 150.183594 " fill-opacity="1" fill-rule="nonzero"/><path fill="#640029" d="M 192.632812 148.496094 C 192.167969 147.824219 191.648438 147.191406 191.144531 146.546875 C 190.386719 145.570312 189.589844 144.628906 188.75 143.722656 C 187.960938 142.867188 187.140625 142.039062 186.285156 141.246094 C 186.191406 141.15625 186.097656 141.074219 186.003906 140.988281 C 185.15625 140.210938 184.28125 139.460938 183.375 138.746094 C 182.699219 138.214844 182.027344 137.679688 181.328125 137.183594 C 181.050781 136.988281 180.761719 136.8125 180.484375 136.625 C 176.167969 133.714844 171.382812 131.441406 166.363281 129.957031 C 159.546875 127.972656 152.257812 127.378906 145.175781 128.351562 C 145.035156 128.371094 144.894531 128.390625 144.757812 128.414062 C 144.988281 129 145.230469 129.585938 145.484375 130.160156 C 145.699219 130.128906 145.910156 130.085938 146.125 130.054688 C 147.0625 129.933594 148.003906 129.835938 148.945312 129.773438 C 159.738281 128.953125 170.894531 131.964844 179.917969 138.253906 C 180.183594 138.4375 180.453125 138.625 180.710938 138.8125 C 181.429688 139.335938 182.136719 139.886719 182.824219 140.453125 C 183.445312 140.960938 184.050781 141.492188 184.644531 142.035156 C 184.914062 142.28125 185.183594 142.523438 185.449219 142.777344 C 186.4375 143.726562 187.378906 144.734375 188.277344 145.785156 C 188.742188 146.324219 189.207031 146.863281 189.648438 147.429688 C 190.03125 147.925781 190.382812 148.457031 190.746094 148.972656 C 192.210938 151.082031 193.476562 153.34375 194.488281 155.730469 C 194.601562 155.992188 194.703125 156.253906 194.804688 156.515625 C 195.460938 156.402344 196.109375 156.277344 196.753906 156.136719 C 196.09375 154.503906 195.320312 152.917969 194.441406 151.378906 C 193.875 150.398438 193.28125 149.433594 192.632812 148.496094 Z M 192.632812 148.496094 " fill-opacity="1" fill-rule="nonzero"/><path fill="#640029" d="M 198.703125 146.902344 C 198.617188 146.777344 198.527344 146.660156 198.441406 146.535156 C 197.683594 145.4375 196.882812 144.363281 196.03125 143.324219 C 195.125 142.210938 194.160156 141.140625 193.160156 140.101562 C 192.484375 139.402344 191.789062 138.714844 191.078125 138.046875 C 191 137.980469 190.925781 137.914062 190.847656 137.839844 C 189.996094 137.058594 189.117188 136.304688 188.214844 135.574219 C 187.40625 134.917969 186.589844 134.277344 185.742188 133.664062 C 185.703125 133.636719 185.660156 133.613281 185.625 133.585938 C 184.960938 133.109375 184.257812 132.6875 183.574219 132.242188 C 183.3125 132.070312 183.058594 131.894531 182.792969 131.726562 C 178.484375 129.03125 173.796875 126.882812 168.90625 125.371094 C 162.859375 123.589844 156.480469 122.726562 150.121094 122.976562 C 147.820312 123.074219 145.523438 123.316406 143.25 123.710938 C 143.234375 123.714844 143.21875 123.71875 143.203125 123.71875 C 143.394531 124.421875 143.597656 125.117188 143.820312 125.808594 C 143.882812 125.796875 143.945312 125.785156 144.003906 125.773438 C 151.664062 124.269531 159.703125 124.527344 167.324219 126.40625 C 172.554688 127.75 177.605469 129.894531 182.265625 132.71875 C 182.539062 132.886719 182.820312 133.035156 183.089844 133.207031 C 183.777344 133.636719 184.4375 134.109375 185.101562 134.574219 C 186.007812 135.203125 186.898438 135.847656 187.765625 136.535156 C 188.617188 137.214844 189.453125 137.914062 190.265625 138.648438 C 190.324219 138.699219 190.382812 138.742188 190.441406 138.792969 C 191.238281 139.527344 191.992188 140.308594 192.742188 141.089844 C 193.769531 142.160156 194.746094 143.28125 195.675781 144.445312 C 195.992188 144.84375 196.335938 145.214844 196.640625 145.621094 C 197.167969 146.328125 197.664062 147.050781 198.148438 147.785156 C 199.054688 149.164062 199.886719 150.59375 200.636719 152.066406 C 201.074219 152.929688 201.488281 153.800781 201.871094 154.6875 C 202.191406 154.578125 202.511719 154.46875 202.828125 154.347656 C 202.222656 152.976562 201.550781 151.628906 200.8125 150.3125 C 200.152344 149.15625 199.457031 148.011719 198.703125 146.902344 Z M 198.703125 146.902344 " fill-opacity="1" fill-rule="nonzero"/><path fill="#ba905d" d="M 230.796875 111.265625 C 226.210938 111.179688 221.652344 111.703125 217.203125 112.839844 C 212.746094 113.957031 208.464844 115.800781 204.527344 118.183594 C 204.042969 118.476562 203.519531 118.796875 203.046875 119.113281 L 201.691406 120.015625 L 201.636719 120.054688 C 201.160156 120.375 200.625 120.785156 200.199219 121.140625 L 198.875 122.230469 C 198.441406 122.601562 197.976562 122.9375 197.566406 123.339844 L 196.34375 124.542969 L 195.113281 125.757812 C 194.667969 126.210938 194.277344 126.675781 193.914062 127.117188 C 192.6875 128.566406 191.542969 130.121094 190.484375 131.734375 C 189.714844 131.183594 188.9375 130.648438 188.140625 130.140625 C 188.007812 130.050781 187.867188 129.972656 187.730469 129.886719 C 188.742188 128.285156 189.816406 126.71875 191.023438 125.230469 C 191.296875 124.882812 191.566406 124.570312 191.835938 124.257812 C 191.953125 124.121094 192.066406 123.964844 192.183594 123.839844 L 193.484375 122.480469 L 194.800781 121.109375 C 195.238281 120.652344 195.746094 120.265625 196.210938 119.839844 C 197.1875 119.015625 198.09375 118.132812 199.054688 117.4375 L 200.609375 116.3125 C 201.125 115.9375 201.621094 115.609375 202.160156 115.257812 C 202.160156 115.257812 202.164062 115.257812 202.171875 115.253906 C 204.703125 113.597656 207.394531 112.179688 210.175781 110.984375 C 212.023438 110.1875 213.90625 109.476562 215.839844 108.917969 C 220.699219 107.519531 225.785156 106.78125 230.851562 106.734375 C 231.277344 106.738281 231.703125 106.769531 232.128906 106.78125 C 232.074219 106.261719 232.003906 105.75 231.925781 105.242188 C 231.921875 105.199219 231.914062 105.15625 231.910156 105.113281 C 231.566406 105.09375 231.222656 105.054688 230.878906 105.046875 C 229.4375 105.019531 227.992188 105.058594 226.558594 105.140625 L 226.558594 97.78125 L 215.59375 92.800781 L 202.210938 92.800781 L 195.570312 95.820312 C 190.042969 88.921875 181.5625 84.496094 172.039062 84.496094 C 155.378906 84.496094 141.875 98 141.875 114.664062 C 141.875 116.269531 142.035156 117.835938 142.277344 119.378906 C 146.285156 118.6875 150.515625 118.40625 155 118.667969 L 155.136719 115.152344 C 153.1875 114.757812 151.683594 112.386719 151.683594 108.074219 C 151.683594 103.339844 154.105469 96.554688 155.714844 96.554688 C 157.351562 96.554688 159.742188 103.339844 159.742188 108.074219 C 159.742188 112.03125 158.472656 114.355469 156.757812 115.011719 L 156.113281 110.722656 L 156.289062 115.148438 L 156.433594 118.777344 C 156.734375 118.800781 157.027344 118.816406 157.328125 118.84375 C 159.710938 119.078125 162.164062 119.472656 164.6875 120.027344 L 164.796875 117.222656 C 163.296875 116.921875 162.140625 115.097656 162.140625 111.777344 C 162.140625 108.136719 164.007812 102.917969 165.242188 102.917969 C 166.5 102.917969 168.339844 108.136719 168.339844 111.777344 C 168.339844 114.824219 167.363281 116.609375 166.042969 117.117188 L 165.554688 113.816406 L 165.6875 117.222656 L 165.808594 120.285156 C 166.054688 120.34375 166.300781 120.40625 166.546875 120.46875 C 166.953125 120.570312 167.355469 120.660156 167.765625 120.773438 L 167.773438 120.777344 C 169.613281 121.289062 171.398438 121.898438 173.148438 122.558594 L 173.207031 121.0625 C 172.136719 120.847656 171.308594 119.542969 171.308594 117.175781 C 171.308594 114.574219 172.640625 110.84375 173.523438 110.84375 C 174.421875 110.84375 175.734375 114.574219 175.734375 117.175781 C 175.734375 119.351562 175.035156 120.625 174.09375 120.988281 L 173.742188 118.632812 L 173.835938 121.0625 L 173.910156 122.871094 C 174.078125 122.9375 174.238281 123.007812 174.40625 123.074219 C 176.84375 124.054688 179.210938 125.148438 181.457031 126.414062 C 179.148438 125.3125 176.777344 124.359375 174.355469 123.554688 C 174.214844 123.507812 174.070312 123.46875 173.929688 123.421875 C 173.660156 123.332031 173.390625 123.25 173.121094 123.164062 C 172.011719 122.820312 170.894531 122.496094 169.769531 122.214844 C 160.90625 120.09375 151.589844 119.957031 142.78125 121.898438 C 142.777344 121.902344 142.765625 121.902344 142.761719 121.902344 C 142.898438 122.511719 143.046875 123.113281 143.207031 123.710938 C 143.222656 123.707031 143.238281 123.703125 143.253906 123.703125 C 145.53125 123.3125 147.832031 123.066406 150.128906 122.96875 C 156.488281 122.722656 162.867188 123.582031 168.914062 125.367188 C 173.804688 126.878906 178.492188 129.027344 182.800781 131.722656 C 183.0625 131.886719 183.316406 132.0625 183.578125 132.234375 C 184.265625 132.679688 184.964844 133.105469 185.628906 133.582031 C 185.667969 133.609375 185.710938 133.632812 185.75 133.660156 C 186.589844 134.269531 187.414062 134.914062 188.222656 135.570312 C 189.121094 136.296875 190 137.054688 190.851562 137.835938 C 190.925781 137.90625 191.007812 137.96875 191.082031 138.042969 C 191.800781 138.707031 192.488281 139.394531 193.167969 140.097656 C 194.167969 141.132812 195.128906 142.207031 196.039062 143.320312 C 196.886719 144.355469 197.6875 145.429688 198.445312 146.53125 C 198.53125 146.652344 198.625 146.773438 198.707031 146.894531 C 199.460938 148.003906 200.160156 149.152344 200.816406 150.316406 C 201.550781 151.628906 202.222656 152.976562 202.828125 154.351562 C 203.277344 154.1875 203.71875 154.011719 204.15625 153.832031 C 204.640625 153.632812 205.121094 153.421875 205.597656 153.207031 C 206.285156 152.898438 206.964844 152.570312 207.632812 152.226562 C 207.636719 152.222656 207.640625 152.222656 207.644531 152.222656 C 207.644531 152.222656 207.644531 152.21875 207.644531 152.21875 C 207.609375 149.5 208.183594 146.699219 209.300781 144.445312 C 209.84375 143.308594 210.511719 142.191406 211.25 141.144531 C 211.339844 141.027344 211.40625 140.90625 211.511719 140.785156 L 211.851562 140.339844 C 212.054688 140.058594 212.222656 139.828125 212.382812 139.652344 L 213.753906 138.175781 L 214.953125 137.109375 C 215.191406 136.898438 215.289062 136.78125 215.496094 136.636719 L 216.152344 136.160156 C 217.015625 135.503906 217.917969 134.933594 218.847656 134.398438 C 220.71875 133.328125 222.703125 132.527344 224.824219 132.035156 C 225.828125 131.804688 226.855469 131.617188 227.890625 131.484375 C 228.121094 131.011719 228.328125 130.527344 228.542969 130.046875 C 227.1875 130.113281 225.84375 130.269531 224.5 130.507812 C 222.253906 130.914062 220 131.621094 217.933594 132.644531 C 216.898438 133.148438 215.871094 133.710938 214.917969 134.339844 L 214.191406 134.796875 C 213.929688 134.964844 213.625 135.226562 213.429688 135.375 L 212.140625 136.394531 L 212.125 136.410156 L 212.054688 136.476562 L 210.59375 137.890625 C 210.273438 138.203125 210.03125 138.511719 209.820312 138.769531 L 209.523438 139.117188 C 209.402344 139.25 209.28125 139.414062 209.160156 139.558594 C 208.273438 140.6875 207.46875 141.863281 206.765625 143.140625 C 206.035156 144.484375 205.476562 145.914062 205.0625 147.375 C 204.367188 146.222656 203.640625 145.089844 202.855469 144 C 202.746094 143.851562 202.628906 143.707031 202.519531 143.554688 C 202.75 142.972656 202.988281 142.390625 203.269531 141.828125 C 203.984375 140.359375 204.851562 138.9375 205.8125 137.601562 C 205.929688 137.445312 206.035156 137.285156 206.164062 137.128906 L 206.582031 136.585938 C 206.839844 136.238281 207.074219 135.933594 207.304688 135.675781 L 209.054688 133.824219 L 210.601562 132.464844 C 210.890625 132.210938 211.058594 132.046875 211.328125 131.847656 L 212.167969 131.242188 C 213.277344 130.417969 214.4375 129.695312 215.640625 129.023438 C 218.046875 127.6875 220.605469 126.6875 223.3125 126.074219 C 225.605469 125.550781 227.992188 125.230469 230.351562 125.191406 C 230.496094 124.722656 230.628906 124.242188 230.757812 123.765625 C 228.128906 123.679688 225.53125 123.921875 222.953125 124.40625 C 220.109375 124.945312 217.285156 125.867188 214.671875 127.171875 C 213.367188 127.820312 212.082031 128.542969 210.878906 129.351562 L 209.960938 129.945312 C 209.648438 130.152344 209.285156 130.457031 209.035156 130.660156 L 207.394531 131.988281 L 207.367188 132.011719 L 207.308594 132.070312 L 205.449219 133.890625 C 205.082031 134.257812 204.78125 134.632812 204.511719 134.964844 L 204.121094 135.4375 C 203.964844 135.609375 203.824219 135.804688 203.679688 135.984375 C 202.566406 137.410156 201.566406 138.910156 200.707031 140.515625 C 200.625 140.667969 200.566406 140.832031 200.488281 140.988281 C 199.738281 140.09375 198.96875 139.21875 198.160156 138.378906 C 198.910156 136.96875 199.738281 135.59375 200.675781 134.292969 C 200.820312 134.101562 200.945312 133.90625 201.105469 133.722656 L 201.605469 133.074219 C 201.921875 132.65625 202.210938 132.285156 202.492188 131.972656 L 204.609375 129.742188 L 206.476562 128.097656 C 206.824219 127.789062 207.035156 127.59375 207.359375 127.347656 L 208.371094 126.609375 C 209.707031 125.613281 211.113281 124.738281 212.566406 123.925781 C 215.472656 122.3125 218.578125 121.105469 221.84375 120.351562 C 225.070312 119.601562 228.445312 119.175781 231.746094 119.242188 C 231.847656 118.628906 231.933594 118.003906 232.007812 117.382812 C 231.96875 117.378906 231.933594 117.371094 231.894531 117.371094 C 228.34375 117.144531 224.839844 117.445312 221.363281 118.09375 C 217.898438 118.753906 214.460938 119.875 211.277344 121.453125 C 209.6875 122.242188 208.125 123.117188 206.652344 124.105469 L 205.542969 124.835938 C 205.164062 125.085938 204.722656 125.449219 204.414062 125.699219 L 202.421875 127.316406 L 202.386719 127.34375 L 202.3125 127.417969 L 200.046875 129.636719 C 199.609375 130.085938 199.242188 130.53125 198.90625 130.941406 L 198.425781 131.519531 C 198.238281 131.726562 198.066406 131.960938 197.890625 132.183594 C 197.003906 133.316406 196.203125 134.511719 195.449219 135.738281 C 195.109375 135.433594 194.773438 135.121094 194.429688 134.824219 C 193.976562 134.4375 193.511719 134.058594 193.046875 133.683594 C 194.019531 132.066406 195.089844 130.5 196.289062 129.003906 C 196.625 128.574219 196.949219 128.167969 197.277344 127.808594 L 198.40625 126.628906 L 199.542969 125.433594 C 199.847656 125.117188 200.183594 124.839844 200.511719 124.554688 C 200.597656 124.480469 200.6875 124.40625 200.769531 124.328125 L 202.011719 123.242188 C 202.429688 122.863281 202.777344 122.570312 203.21875 122.246094 L 204.574219 121.269531 C 205.023438 120.941406 205.445312 120.660156 205.910156 120.351562 C 209.5625 117.953125 213.546875 116.042969 217.757812 114.820312 C 221.972656 113.601562 226.394531 112.953125 230.785156 112.898438 C 231.300781 112.902344 231.816406 112.9375 232.332031 112.953125 C 232.339844 112.582031 232.359375 112.214844 232.359375 111.839844 L 232.359375 111.367188 C 231.828125 111.335938 231.316406 111.285156 230.796875 111.265625 Z M 202.207031 94.453125 L 211.828125 98.824219 L 211.828125 107.90625 C 208.4375 109.035156 205.175781 110.53125 202.074219 112.304688 C 201.957031 112.367188 201.835938 112.433594 201.71875 112.5 L 201.71875 107.101562 L 194.949219 107.101562 L 194.949219 117.160156 L 194.300781 117.695312 C 193.800781 118.125 193.269531 118.515625 192.800781 118.972656 L 192.585938 119.1875 L 192.585938 98.824219 L 196.484375 97.050781 Z M 215.277344 106.882812 C 214.625 107.050781 213.984375 107.265625 213.335938 107.460938 L 213.335938 98.8125 L 224.988281 98.726562 L 225.046875 98.75 L 225.046875 105.269531 C 221.753906 105.539062 218.488281 106.054688 215.277344 106.882812 Z M 215.277344 106.882812 " fill-opacity="1" fill-rule="nonzero"/><path fill="#ba905d" d="M 219.253906 139.21875 L 219.1875 139.265625 C 219.0625 139.351562 218.886719 139.453125 218.679688 139.582031 C 218.476562 139.699219 218.199219 139.882812 217.984375 140.085938 L 216.96875 140.871094 L 216.941406 140.894531 L 216.839844 140.992188 L 215.933594 141.867188 C 215.714844 142.050781 215.480469 142.320312 215.339844 142.503906 C 215.183594 142.699219 215.066406 142.847656 214.96875 142.941406 L 214.960938 142.949219 L 214.90625 143.015625 C 213.757812 144.441406 212.699219 146.03125 212.0625 147.875 C 211.816406 148.585938 211.625 149.304688 211.46875 150.027344 C 212.648438 149.269531 213.792969 148.457031 214.898438 147.589844 C 215.367188 146.496094 215.988281 145.421875 216.71875 144.40625 L 216.65625 144.480469 C 216.863281 144.238281 217.007812 144.019531 217.125 143.855469 C 217.25 143.679688 217.304688 143.597656 217.425781 143.484375 L 218.371094 142.445312 L 219.363281 141.570312 C 219.472656 141.453125 219.570312 141.375 219.753906 141.246094 C 219.910156 141.132812 220.113281 141 220.320312 140.832031 C 221.242188 140.175781 222.214844 139.613281 223.21875 139.128906 C 223.773438 138.394531 224.304688 137.644531 224.8125 136.875 C 224.269531 137.003906 223.722656 137.136719 223.1875 137.324219 C 221.800781 137.800781 220.492188 138.464844 219.253906 139.21875 Z M 219.253906 139.21875 " fill-opacity="1" fill-rule="nonzero"/><path fill="#ba905d" d="M 198.144531 147.789062 C 197.660156 147.054688 197.160156 146.328125 196.636719 145.628906 C 196.335938 145.21875 195.992188 144.851562 195.671875 144.453125 C 194.742188 143.285156 193.769531 142.167969 192.742188 141.097656 C 191.988281 140.316406 191.238281 139.53125 190.4375 138.800781 C 190.382812 138.75 190.320312 138.703125 190.265625 138.652344 C 189.453125 137.917969 188.617188 137.21875 187.761719 136.539062 C 186.898438 135.855469 186.003906 135.210938 185.097656 134.578125 C 184.433594 134.113281 183.773438 133.644531 183.085938 133.210938 C 182.816406 133.042969 182.535156 132.890625 182.261719 132.726562 C 177.605469 129.898438 172.550781 127.753906 167.320312 126.414062 C 159.699219 124.53125 151.664062 124.273438 144.003906 125.78125 C 143.941406 125.792969 143.878906 125.800781 143.820312 125.816406 C 144.105469 126.695312 144.417969 127.5625 144.753906 128.421875 C 144.890625 128.398438 145.03125 128.378906 145.171875 128.359375 C 152.253906 127.386719 159.542969 127.984375 166.359375 129.964844 C 171.382812 131.449219 176.167969 133.722656 180.480469 136.632812 C 180.761719 136.820312 181.046875 137 181.324219 137.195312 C 182.027344 137.6875 182.695312 138.226562 183.371094 138.757812 C 184.277344 139.46875 185.152344 140.21875 186 140.996094 C 186.09375 141.082031 186.191406 141.167969 186.28125 141.253906 C 187.136719 142.046875 187.957031 142.875 188.746094 143.730469 C 189.585938 144.636719 190.382812 145.578125 191.144531 146.554688 C 191.644531 147.199219 192.164062 147.832031 192.628906 148.507812 C 193.273438 149.441406 193.871094 150.40625 194.433594 151.390625 C 195.3125 152.929688 196.089844 154.515625 196.75 156.148438 C 197.039062 156.085938 197.320312 156.019531 197.609375 155.949219 C 198.652344 155.699219 199.683594 155.421875 200.699219 155.097656 C 201.089844 154.976562 201.476562 154.839844 201.863281 154.703125 C 201.484375 153.816406 201.074219 152.941406 200.632812 152.082031 C 199.878906 150.597656 199.050781 149.164062 198.144531 147.789062 Z M 198.144531 147.789062 " fill-opacity="1" fill-rule="nonzero"/><path fill="#ba905d" d="M 190.742188 148.980469 C 190.382812 148.460938 190.03125 147.933594 189.644531 147.4375 C 189.207031 146.867188 188.738281 146.328125 188.273438 145.789062 C 187.375 144.742188 186.4375 143.734375 185.445312 142.78125 C 185.183594 142.527344 184.910156 142.289062 184.640625 142.042969 C 184.046875 141.5 183.445312 140.96875 182.824219 140.457031 C 182.132812 139.890625 181.429688 139.34375 180.710938 138.820312 C 180.449219 138.628906 180.179688 138.445312 179.914062 138.257812 C 170.894531 131.972656 159.734375 128.957031 148.941406 129.78125 C 148 129.84375 147.058594 129.9375 146.121094 130.0625 C 145.910156 130.089844 145.695312 130.132812 145.484375 130.167969 C 145.859375 131.011719 146.257812 131.84375 146.683594 132.664062 C 147.058594 132.628906 147.433594 132.617188 147.808594 132.589844 C 148.234375 132.566406 148.660156 132.523438 149.085938 132.511719 C 156.253906 132.328125 163.421875 133.832031 169.824219 136.925781 C 172.988281 138.425781 175.96875 140.300781 178.664062 142.492188 C 178.945312 142.722656 179.214844 142.964844 179.492188 143.203125 C 179.691406 143.375 179.882812 143.542969 180.078125 143.714844 C 180.605469 144.1875 181.117188 144.667969 181.621094 145.164062 C 182.578125 146.109375 183.503906 147.089844 184.359375 148.128906 C 184.910156 148.796875 185.4375 149.484375 185.9375 150.191406 C 186.484375 150.96875 186.996094 151.765625 187.484375 152.574219 C 188.367188 154.039062 189.144531 155.554688 189.796875 157.117188 C 190.058594 157.101562 190.320312 157.078125 190.585938 157.058594 C 191.921875 156.953125 193.246094 156.792969 194.546875 156.574219 C 194.632812 156.558594 194.71875 156.542969 194.804688 156.527344 C 194.703125 156.269531 194.601562 156.003906 194.488281 155.742188 C 193.472656 153.351562 192.207031 151.085938 190.742188 148.980469 Z M 190.742188 148.980469 " fill-opacity="1" fill-rule="nonzero"/><path fill="#ba905d" d="M 184.078125 150.648438 C 183.609375 150.015625 183.121094 149.398438 182.617188 148.796875 C 182.191406 148.300781 181.730469 147.835938 181.28125 147.363281 C 180.566406 146.609375 179.832031 145.886719 179.0625 145.191406 C 178.773438 144.925781 178.492188 144.652344 178.195312 144.398438 C 178.132812 144.34375 178.074219 144.28125 178.007812 144.226562 C 176.308594 142.792969 174.496094 141.5 172.601562 140.375 C 168.867188 138.164062 164.835938 136.5625 160.679688 135.496094 C 156.914062 134.601562 153.019531 134.191406 149.152344 134.292969 C 148.632812 134.304688 148.117188 134.308594 147.601562 134.34375 C 148.054688 135.140625 148.53125 135.917969 149.035156 136.6875 C 149.875 136.691406 150.714844 136.707031 151.550781 136.769531 C 154.394531 136.964844 157.210938 137.460938 159.925781 138.273438 C 163.75 139.414062 167.394531 141.1875 170.636719 143.441406 C 171.257812 143.875 171.855469 144.339844 172.445312 144.804688 C 174.285156 146.257812 175.976562 147.875 177.445312 149.65625 C 177.769531 150.046875 178.070312 150.453125 178.371094 150.863281 C 178.5625 151.121094 178.773438 151.363281 178.957031 151.628906 C 179.683594 152.667969 180.324219 153.757812 180.890625 154.875 C 181.226562 155.539062 181.535156 156.21875 181.808594 156.902344 C 182.574219 156.992188 183.339844 157.058594 184.113281 157.109375 C 185.0625 157.167969 186.019531 157.207031 186.980469 157.207031 C 187.230469 157.207031 187.480469 157.191406 187.726562 157.1875 C 187.804688 157.1875 187.878906 157.1875 187.949219 157.183594 C 187.855469 156.972656 187.75 156.765625 187.652344 156.558594 C 186.65625 154.453125 185.441406 152.480469 184.078125 150.648438 Z M 184.078125 150.648438 " fill-opacity="1" fill-rule="nonzero"/><path fill="#ba905d" d="M 177.238281 152.582031 C 176.597656 151.640625 175.925781 150.726562 175.183594 149.882812 C 173.453125 147.898438 171.492188 146.171875 169.371094 144.695312 C 165.714844 142.140625 161.582031 140.328125 157.316406 139.257812 C 156.128906 138.972656 154.925781 138.765625 153.714844 138.59375 C 152.519531 138.425781 151.320312 138.308594 150.117188 138.257812 C 150.6875 139.058594 151.28125 139.84375 151.90625 140.601562 C 153.519531 140.835938 155.117188 141.1875 156.667969 141.640625 C 162.847656 143.550781 168.546875 147.183594 172.40625 152.167969 C 173.21875 153.210938 173.925781 154.324219 174.542969 155.464844 C 175.457031 155.726562 176.378906 155.960938 177.316406 156.164062 C 177.671875 156.242188 178.027344 156.3125 178.386719 156.382812 C 178.753906 156.453125 179.121094 156.515625 179.484375 156.578125 C 179.121094 155.765625 178.722656 154.96875 178.277344 154.203125 C 177.960938 153.644531 177.601562 153.113281 177.238281 152.582031 Z M 177.238281 152.582031 " fill-opacity="1" fill-rule="nonzero"/><path fill="#ba905d" d="M 154.648438 142.917969 C 154.363281 142.851562 154.074219 142.804688 153.789062 142.746094 C 158.679688 147.996094 164.792969 152.085938 171.679688 154.554688 C 171.035156 153.535156 170.328125 152.558594 169.539062 151.671875 C 165.578125 147.179688 160.242188 144.289062 154.648438 142.917969 Z M 154.648438 142.917969 " fill-opacity="1" fill-rule="nonzero"/><path fill="#640029" d="M 215.277344 106.882812 C 214.625 107.050781 213.984375 107.265625 213.335938 107.460938 L 213.335938 98.8125 L 224.988281 98.726562 L 225.046875 98.75 L 225.046875 105.269531 C 221.753906 105.539062 218.488281 106.054688 215.277344 106.882812 Z M 215.277344 106.882812 " fill-opacity="1" fill-rule="nonzero"/><g clip-path="url(#bd4a701d2d)"><path fill="#ba905d" d="M 189.671875 219.761719 C 189.441406 212.765625 189.34375 205.773438 189.179688 198.773438 L 189.03125 188.277344 C 189.007812 184.628906 189.527344 180.96875 190.566406 177.457031 C 191.621094 173.953125 193.148438 170.558594 195.257812 167.527344 C 197.367188 164.5 199.964844 161.804688 202.949219 159.609375 C 204.433594 158.496094 206.039062 157.558594 207.6875 156.710938 C 209.226562 155.929688 210.6875 155.152344 212.125 154.257812 C 214.984375 152.480469 217.652344 150.398438 220.085938 148.070312 C 224.910156 143.386719 228.875 137.785156 231.441406 131.542969 C 234.023438 125.351562 235.28125 118.46875 235.050781 111.84375 C 234.835938 108.527344 234.191406 105.101562 233.472656 101.726562 C 232.738281 98.339844 231.894531 94.96875 230.984375 91.609375 C 229.1875 84.894531 227.210938 78.164062 224.765625 71.703125 L 224.753906 71.675781 C 224.613281 71.308594 224.800781 70.898438 225.167969 70.757812 C 225.515625 70.625 225.902344 70.785156 226.066406 71.113281 C 227.609375 74.320312 228.871094 77.59375 230.085938 80.898438 C 231.289062 84.199219 232.449219 87.515625 233.5 90.875 C 234.53125 94.238281 235.5 97.625 236.363281 101.050781 C 237.210938 104.488281 237.996094 107.929688 238.363281 111.59375 C 239.195312 126.175781 233.269531 140.804688 222.703125 150.8125 C 220.0625 153.304688 217.171875 155.523438 214.074219 157.417969 C 212.539062 158.367188 210.902344 159.21875 209.316406 160.011719 C 207.851562 160.757812 206.421875 161.574219 205.097656 162.550781 C 199.761719 166.414062 195.800781 172.109375 193.753906 178.441406 C 192.726562 181.613281 192.167969 184.941406 192.101562 188.285156 L 191.949219 198.773438 C 191.785156 205.769531 191.683594 212.761719 191.453125 219.761719 C 191.441406 220.253906 191.027344 220.636719 190.539062 220.621094 C 190.0625 220.605469 189.691406 220.226562 189.671875 219.761719 Z M 189.671875 219.761719 " fill-opacity="1" fill-rule="nonzero"/></g><g clip-path="url(#aa3a1e7b6b)"><path fill="#ba905d" d="M 148.992188 71.585938 C 146.949219 77.242188 145.242188 83.039062 143.539062 88.816406 C 141.902344 94.609375 140.363281 100.449219 139.3125 106.320312 C 139.066406 107.785156 138.824219 109.257812 138.703125 110.707031 C 138.535156 112.175781 138.558594 113.539062 138.597656 115.039062 C 138.714844 117.976562 139.113281 120.894531 139.746094 123.757812 C 141.046875 129.46875 143.28125 134.980469 146.503906 139.890625 C 149.675781 144.828125 153.777344 149.164062 158.511719 152.660156 C 160.886719 154.410156 163.402344 155.914062 166.0625 157.242188 C 168.878906 158.648438 171.476562 160.484375 173.746094 162.648438 C 178.296875 166.980469 181.523438 172.601562 183.140625 178.609375 C 183.945312 181.617188 184.359375 184.726562 184.371094 187.832031 L 184.296875 196.910156 C 184.292969 197.402344 183.890625 197.792969 183.398438 197.789062 C 182.914062 197.789062 182.523438 197.390625 182.515625 196.910156 L 182.402344 187.859375 C 182.328125 184.925781 181.878906 182.003906 181.058594 179.191406 C 179.453125 173.5625 176.363281 168.355469 172.09375 164.402344 C 169.964844 162.425781 167.546875 160.769531 164.9375 159.507812 C 162.175781 158.179688 159.464844 156.609375 156.949219 154.804688 C 151.910156 151.191406 147.511719 146.664062 144.078125 141.476562 C 140.65625 136.292969 138.148438 130.46875 136.882812 124.375 C 136.261719 121.328125 135.890625 118.226562 135.824219 115.125 C 135.785156 113.605469 135.839844 111.941406 136.078125 110.410156 C 136.265625 108.855469 136.574219 107.351562 136.882812 105.847656 C 138.183594 99.859375 139.953125 94.054688 141.808594 88.285156 C 143.691406 82.523438 145.742188 76.824219 148.117188 71.230469 C 148.21875 70.992188 148.5 70.875 148.738281 70.980469 C 148.96875 71.078125 149.085938 71.339844 149 71.570312 Z M 148.992188 71.585938 " fill-opacity="1" fill-rule="nonzero"/></g><g fill="#d9a566" fill-opacity="1"><g transform="translate(94.103539, 257.41494)"><g><path d="M 2.097656 -17.207031 L 9.046875 0 L 10.171875 0 L 16.851562 -17.207031 C 17.621094 -19.1875 18.390625 -19.957031 19.277344 -20.28125 L 19.277344 -20.695312 L 15.847656 -20.695312 L 15.847656 -20.28125 C 16.851562 -20.046875 17.058594 -19.1875 16.289062 -17.207031 L 10.9375 -3.398438 L 5.5 -17.207031 C 4.730469 -19.1875 4.347656 -19.957031 5.320312 -20.28125 L 5.320312 -20.695312 L -0.117188 -20.695312 L -0.117188 -20.28125 C 0.5625 -19.957031 1.332031 -19.1875 2.097656 -17.207031 Z M 2.097656 -17.207031 "/></g></g></g><g fill="#d9a566" fill-opacity="1"><g transform="translate(113.254996, 257.41494)"><g><path d="M 1.390625 0 L 6.886719 0 L 6.886719 -0.414062 C 5.914062 -0.738281 5.707031 -1.625 5.707031 -3.753906 L 5.707031 -16.941406 C 5.707031 -19.070312 5.914062 -19.957031 6.886719 -20.28125 L 6.886719 -20.695312 L 1.390625 -20.695312 L 1.390625 -20.28125 C 2.363281 -19.957031 2.570312 -19.070312 2.570312 -16.941406 L 2.570312 -3.753906 C 2.570312 -1.625 2.363281 -0.738281 1.390625 -0.414062 Z M 1.390625 0 "/></g></g></g><g fill="#d9a566" fill-opacity="1"><g transform="translate(121.530321, 257.41494)"><g><path d="M 16.96875 0.238281 L 17.355469 0.238281 L 17.355469 -16.941406 C 17.355469 -19.070312 17.5625 -19.957031 18.539062 -20.28125 L 18.539062 -20.695312 L 14.546875 -20.695312 L 14.546875 -20.28125 C 16.082031 -19.808594 16.792969 -18.773438 16.792969 -15.167969 L 16.792969 -5.144531 L 4.375 -20.695312 L 1.035156 -20.695312 L 1.035156 -20.28125 C 2.304688 -19.957031 2.570312 -19.070312 2.570312 -16.941406 L 2.570312 -3.753906 C 2.570312 -1.625 2.363281 -0.738281 1.390625 -0.414062 L 1.390625 0 L 5.351562 0 L 5.351562 -0.414062 C 3.8125 -0.886719 3.105469 -1.921875 3.105469 -5.527344 L 3.105469 -17.265625 Z M 16.96875 0.238281 "/></g></g></g><g fill="#d9a566" fill-opacity="1"><g transform="translate(141.095551, 257.41494)"><g><path d="M 12.179688 0.296875 C 17.148438 0.296875 22.734375 -3.046875 22.734375 -10.257812 C 22.734375 -17.503906 17.175781 -20.933594 12.179688 -20.933594 C 5.914062 -20.933594 1.597656 -16.289062 1.597656 -10.4375 C 1.597656 -3.015625 7.15625 0.296875 12.179688 0.296875 Z M 4.671875 -12.238281 C 4.347656 -17.03125 6.621094 -20.164062 10.644531 -20.164062 C 15.757812 -20.164062 19.304688 -14.222656 19.75 -7.921875 C 20.015625 -4.019531 18.390625 -0.621094 13.867188 -0.621094 C 8.839844 -0.621094 5.085938 -6.328125 4.671875 -12.238281 Z M 4.671875 -12.238281 "/></g></g></g><g fill="#d9a566" fill-opacity="1"><g transform="translate(165.330428, 257.41494)"><g/></g></g><g fill="#d9a566" fill-opacity="1"><g transform="translate(171.24137, 257.41494)"><g><path d="M 16.4375 0.207031 C 16.941406 0.207031 17.886719 0.175781 18.566406 0 L 18.566406 -0.414062 C 18.417969 -0.382812 18.269531 -0.382812 18.125 -0.382812 C 17.03125 -0.382812 16.703125 -1.09375 15.136719 -5.027344 C 13.570312 -8.957031 12.917969 -10.347656 9.578125 -10.730469 C 13.511719 -11.207031 15.375 -13.246094 15.375 -15.964844 C 15.375 -18.359375 14.042969 -20.695312 7.597656 -20.695312 L 1.390625 -20.695312 L 1.390625 -20.28125 C 2.363281 -19.957031 2.570312 -19.070312 2.570312 -16.941406 L 2.570312 -3.753906 C 2.570312 -1.625 2.363281 -0.738281 1.390625 -0.414062 L 1.390625 0 L 6.886719 0 L 6.886719 -0.414062 C 5.914062 -0.738281 5.707031 -1.625 5.707031 -3.753906 L 5.707031 -10.613281 L 7.449219 -10.613281 C 10.050781 -10.613281 10.199219 -9.164062 11.972656 -4.847656 C 13.394531 -1.390625 13.984375 0.207031 16.4375 0.207031 Z M 5.707031 -11.085938 L 5.707031 -20.132812 C 6.148438 -20.191406 6.59375 -20.222656 7.007812 -20.222656 C 10.703125 -20.222656 12.238281 -17.648438 12.238281 -15.253906 C 12.238281 -12.980469 10.96875 -11.085938 7.597656 -11.085938 Z M 5.707031 -11.085938 "/></g></g></g><g fill="#d9a566" fill-opacity="1"><g transform="translate(189.506184, 257.41494)"><g><path d="M 10.910156 0.296875 C 15.226562 0.296875 18.332031 -2.097656 18.332031 -8.042969 L 18.332031 -16.941406 C 18.332031 -19.070312 18.539062 -19.957031 19.511719 -20.28125 L 19.511719 -20.695312 L 15.550781 -20.695312 L 15.550781 -20.28125 C 17.089844 -19.808594 17.796875 -18.773438 17.796875 -15.167969 L 17.796875 -7.984375 C 17.796875 -2.246094 14.574219 -0.414062 12.09375 -0.414062 C 8.070312 -0.414062 5.410156 -2.425781 5.410156 -7.804688 L 5.410156 -16.941406 C 5.410156 -19.070312 5.617188 -19.957031 6.59375 -20.28125 L 6.59375 -20.695312 L 1.09375 -20.695312 L 1.09375 -20.28125 C 2.070312 -19.957031 2.277344 -19.070312 2.277344 -16.941406 L 2.277344 -8.042969 C 2.277344 -1.683594 6.652344 0.296875 10.910156 0.296875 Z M 10.910156 0.296875 "/></g></g></g><g fill="#d9a566" fill-opacity="1"><g transform="translate(209.810279, 257.41494)"><g><path d="M 16.4375 0.207031 C 16.941406 0.207031 17.886719 0.175781 18.566406 0 L 18.566406 -0.414062 C 18.417969 -0.382812 18.269531 -0.382812 18.125 -0.382812 C 17.03125 -0.382812 16.703125 -1.09375 15.136719 -5.027344 C 13.570312 -8.957031 12.917969 -10.347656 9.578125 -10.730469 C 13.511719 -11.207031 15.375 -13.246094 15.375 -15.964844 C 15.375 -18.359375 14.042969 -20.695312 7.597656 -20.695312 L 1.390625 -20.695312 L 1.390625 -20.28125 C 2.363281 -19.957031 2.570312 -19.070312 2.570312 -16.941406 L 2.570312 -3.753906 C 2.570312 -1.625 2.363281 -0.738281 1.390625 -0.414062 L 1.390625 0 L 6.886719 0 L 6.886719 -0.414062 C 5.914062 -0.738281 5.707031 -1.625 5.707031 -3.753906 L 5.707031 -10.613281 L 7.449219 -10.613281 C 10.050781 -10.613281 10.199219 -9.164062 11.972656 -4.847656 C 13.394531 -1.390625 13.984375 0.207031 16.4375 0.207031 Z M 5.707031 -11.085938 L 5.707031 -20.132812 C 6.148438 -20.191406 6.59375 -20.222656 7.007812 -20.222656 C 10.703125 -20.222656 12.238281 -17.648438 12.238281 -15.253906 C 12.238281 -12.980469 10.96875 -11.085938 7.597656 -11.085938 Z M 5.707031 -11.085938 "/></g></g></g><g fill="#d9a566" fill-opacity="1"><g transform="translate(228.075094, 257.41494)"><g><path d="M -0.621094 0 L 2.808594 0 L 2.808594 -0.414062 C 1.804688 -0.652344 1.625 -1.507812 2.425781 -3.488281 L 4.140625 -7.714844 L 12.03125 -7.714844 L 13.808594 -3.460938 C 14.632812 -1.507812 15.046875 -0.738281 14.074219 -0.414062 L 14.074219 0 L 19.453125 0 L 19.453125 -0.414062 C 18.773438 -0.738281 18.003906 -1.507812 17.175781 -3.460938 L 9.84375 -20.933594 L 6.949219 -19.632812 L 7.332031 -18.804688 C 7.597656 -18.269531 7.628906 -17.796875 7.390625 -17.207031 L 1.863281 -3.488281 C 1.0625 -1.507812 0.265625 -0.738281 -0.621094 -0.414062 Z M 4.316406 -8.191406 L 8.011719 -17.324219 L 11.824219 -8.191406 Z M 4.316406 -8.191406 "/></g></g></g><g fill="#d9a566" fill-opacity="1"><g transform="translate(247.078785, 257.41494)"><g><path d="M 1.390625 0 L 15.460938 0 L 15.699219 -3.726562 L 15.316406 -3.785156 C 14.132812 -1.242188 12.59375 -0.53125 9.609375 -0.53125 L 7.183594 -0.53125 C 6.238281 -0.53125 5.707031 -1.0625 5.707031 -2.011719 L 5.707031 -16.941406 C 5.707031 -19.070312 5.914062 -19.957031 6.886719 -20.28125 L 6.886719 -20.695312 L 1.390625 -20.695312 L 1.390625 -20.28125 C 2.363281 -19.957031 2.570312 -19.070312 2.570312 -16.941406 L 2.570312 -3.753906 C 2.570312 -1.625 2.363281 -0.738281 1.390625 -0.414062 Z M 1.390625 0 "/></g></g></g><g fill="#d9a566" fill-opacity="1"><g transform="translate(263.304332, 257.41494)"><g><path d="M 1.390625 0 L 16.347656 0 L 16.554688 -4.316406 L 16.171875 -4.375 C 15.046875 -1.359375 13.007812 -0.472656 10.023438 -0.472656 L 7.183594 -0.472656 C 6.238281 -0.472656 5.707031 -1.003906 5.707031 -1.953125 L 5.707031 -10.878906 L 8.542969 -10.878906 C 12.152344 -10.878906 13.1875 -10.171875 13.660156 -8.632812 L 14.074219 -8.632812 L 14.074219 -13.601562 L 13.660156 -13.601562 C 13.1875 -12.0625 12.152344 -11.351562 8.542969 -11.351562 L 5.707031 -11.351562 L 5.707031 -20.222656 L 9.164062 -20.222656 C 12.476562 -20.222656 14.339844 -19.335938 15.523438 -16.4375 L 15.90625 -16.527344 L 15.582031 -20.695312 L 1.390625 -20.695312 L 1.390625 -20.28125 C 2.363281 -19.957031 2.570312 -19.070312 2.570312 -16.941406 L 2.570312 -3.753906 C 2.570312 -1.625 2.363281 -0.738281 1.390625 -0.414062 Z M 1.390625 0 "/></g></g></g><g fill="#ba905d" fill-opacity="1"><g transform="translate(119.405388, 280.15803)"><g><path d="M 4.859375 0 L 3.75 -3.59375 L 1.890625 -3.59375 L 1.890625 0 L 0.90625 0 L 0.90625 -8.9375 L 3.640625 -8.9375 C 4.253906 -8.9375 4.710938 -8.820312 5.015625 -8.59375 C 5.316406 -8.375 5.515625 -8.078125 5.609375 -7.703125 C 5.703125 -7.335938 5.75 -6.859375 5.75 -6.265625 C 5.75 -5.617188 5.679688 -5.082031 5.546875 -4.65625 C 5.410156 -4.238281 5.125 -3.941406 4.6875 -3.765625 L 5.890625 0 Z M 3.390625 -4.453125 C 3.796875 -4.453125 4.097656 -4.515625 4.296875 -4.640625 C 4.503906 -4.773438 4.632812 -4.960938 4.6875 -5.203125 C 4.738281 -5.453125 4.765625 -5.804688 4.765625 -6.265625 C 4.765625 -6.734375 4.738281 -7.085938 4.6875 -7.328125 C 4.632812 -7.578125 4.507812 -7.765625 4.3125 -7.890625 C 4.125 -8.023438 3.820312 -8.09375 3.40625 -8.09375 L 1.890625 -8.09375 L 1.890625 -4.453125 Z M 3.390625 -4.453125 "/></g></g></g><g fill="#ba905d" fill-opacity="1"><g transform="translate(130.206436, 280.15803)"><g><path d="M 5.84375 -8.9375 L 5.84375 -3.890625 C 5.84375 -2.722656 5.789062 -1.875 5.6875 -1.34375 C 5.582031 -0.820312 5.359375 -0.445312 5.015625 -0.21875 C 4.671875 0 4.113281 0.109375 3.34375 0.109375 C 2.570312 0.109375 2.007812 0 1.65625 -0.21875 C 1.3125 -0.445312 1.085938 -0.828125 0.984375 -1.359375 C 0.878906 -1.890625 0.828125 -2.734375 0.828125 -3.890625 L 0.828125 -8.9375 L 1.8125 -8.9375 L 1.8125 -3.4375 C 1.8125 -2.613281 1.835938 -2.03125 1.890625 -1.6875 C 1.953125 -1.34375 2.082031 -1.097656 2.28125 -0.953125 C 2.488281 -0.816406 2.84375 -0.75 3.34375 -0.75 C 3.832031 -0.75 4.175781 -0.816406 4.375 -0.953125 C 4.582031 -1.097656 4.710938 -1.34375 4.765625 -1.6875 C 4.828125 -2.03125 4.859375 -2.613281 4.859375 -3.4375 L 4.859375 -8.9375 Z M 5.84375 -8.9375 "/></g></g></g><g fill="#ba905d" fill-opacity="1"><g transform="translate(141.280403, 280.15803)"><g><path d="M 4.859375 0 L 3.75 -3.59375 L 1.890625 -3.59375 L 1.890625 0 L 0.90625 0 L 0.90625 -8.9375 L 3.640625 -8.9375 C 4.253906 -8.9375 4.710938 -8.820312 5.015625 -8.59375 C 5.316406 -8.375 5.515625 -8.078125 5.609375 -7.703125 C 5.703125 -7.335938 5.75 -6.859375 5.75 -6.265625 C 5.75 -5.617188 5.679688 -5.082031 5.546875 -4.65625 C 5.410156 -4.238281 5.125 -3.941406 4.6875 -3.765625 L 5.890625 0 Z M 3.390625 -4.453125 C 3.796875 -4.453125 4.097656 -4.515625 4.296875 -4.640625 C 4.503906 -4.773438 4.632812 -4.960938 4.6875 -5.203125 C 4.738281 -5.453125 4.765625 -5.804688 4.765625 -6.265625 C 4.765625 -6.734375 4.738281 -7.085938 4.6875 -7.328125 C 4.632812 -7.578125 4.507812 -7.765625 4.3125 -7.890625 C 4.125 -8.023438 3.820312 -8.09375 3.40625 -8.09375 L 1.890625 -8.09375 L 1.890625 -4.453125 Z M 3.390625 -4.453125 "/></g></g></g><g fill="#ba905d" fill-opacity="1"><g transform="translate(152.081452, 280.15803)"><g><path d="M 5.1875 0 L 4.5625 -2.484375 L 1.8125 -2.484375 L 1.203125 0 L 0.234375 0 L 2.578125 -8.9375 L 3.84375 -8.9375 L 6.1875 0 Z M 3.21875 -7.765625 L 3.15625 -7.765625 L 2.046875 -3.34375 L 4.328125 -3.34375 Z M 3.21875 -7.765625 "/></g></g></g><g fill="#ba905d" fill-opacity="1"><g transform="translate(162.8955, 280.15803)"><g><path d="M 0.90625 0 L 0.90625 -8.9375 L 1.890625 -8.9375 L 1.890625 -0.890625 L 4.765625 -0.890625 L 4.765625 0 Z M 0.90625 0 "/></g></g></g><g fill="#ba905d" fill-opacity="1"><g transform="translate(172.21501, 280.15803)"><g/></g></g><g fill="#ba905d" fill-opacity="1"><g transform="translate(179.104261, 280.15803)"><g><path d="M 4.78125 -0.046875 C 4.59375 -0.00390625 4.359375 0.03125 4.078125 0.0625 C 3.804688 0.09375 3.550781 0.109375 3.3125 0.109375 C 2.53125 0.109375 1.957031 -0.00390625 1.59375 -0.234375 C 1.238281 -0.472656 1 -0.898438 0.875 -1.515625 C 0.75 -2.140625 0.6875 -3.125 0.6875 -4.46875 C 0.6875 -5.800781 0.75 -6.773438 0.875 -7.390625 C 1 -8.015625 1.238281 -8.445312 1.59375 -8.6875 C 1.957031 -8.925781 2.53125 -9.046875 3.3125 -9.046875 C 3.550781 -9.046875 3.804688 -9.023438 4.078125 -8.984375 C 4.347656 -8.953125 4.570312 -8.910156 4.75 -8.859375 L 4.75 -8.078125 C 4.257812 -8.148438 3.847656 -8.1875 3.515625 -8.1875 C 2.921875 -8.1875 2.5 -8.109375 2.25 -7.953125 C 2.007812 -7.796875 1.851562 -7.472656 1.78125 -6.984375 C 1.707031 -6.503906 1.671875 -5.664062 1.671875 -4.46875 C 1.671875 -3.269531 1.707031 -2.425781 1.78125 -1.9375 C 1.851562 -1.457031 2.007812 -1.140625 2.25 -0.984375 C 2.5 -0.828125 2.921875 -0.75 3.515625 -0.75 C 3.953125 -0.75 4.375 -0.789062 4.78125 -0.875 Z M 4.78125 -0.046875 "/></g></g></g><g fill="#ba905d" fill-opacity="1"><g transform="translate(188.696687, 280.15803)"><g><path d="M 4.984375 0 L 4.984375 -4.0625 L 1.875 -4.0625 L 1.875 0 L 0.90625 0 L 0.90625 -8.9375 L 1.875 -8.9375 L 1.875 -4.953125 L 4.984375 -4.953125 L 4.984375 -8.9375 L 5.9375 -8.9375 L 5.9375 0 Z M 4.984375 0 "/></g></g></g><g fill="#ba905d" fill-opacity="1"><g transform="translate(199.939602, 280.15803)"><g><path d="M 5.1875 0 L 4.5625 -2.484375 L 1.8125 -2.484375 L 1.203125 0 L 0.234375 0 L 2.578125 -8.9375 L 3.84375 -8.9375 L 6.1875 0 Z M 3.21875 -7.765625 L 3.15625 -7.765625 L 2.046875 -3.34375 L 4.328125 -3.34375 Z M 3.21875 -7.765625 "/></g></g></g><g fill="#ba905d" fill-opacity="1"><g transform="translate(210.75365, 280.15803)"><g><path d="M 4.859375 0 L 3.75 -3.59375 L 1.890625 -3.59375 L 1.890625 0 L 0.90625 0 L 0.90625 -8.9375 L 3.640625 -8.9375 C 4.253906 -8.9375 4.710938 -8.820312 5.015625 -8.59375 C 5.316406 -8.375 5.515625 -8.078125 5.609375 -7.703125 C 5.703125 -7.335938 5.75 -6.859375 5.75 -6.265625 C 5.75 -5.617188 5.679688 -5.082031 5.546875 -4.65625 C 5.410156 -4.238281 5.125 -3.941406 4.6875 -3.765625 L 5.890625 0 Z M 3.390625 -4.453125 C 3.796875 -4.453125 4.097656 -4.515625 4.296875 -4.640625 C 4.503906 -4.773438 4.632812 -4.960938 4.6875 -5.203125 C 4.738281 -5.453125 4.765625 -5.804688 4.765625 -6.265625 C 4.765625 -6.734375 4.738281 -7.085938 4.6875 -7.328125 C 4.632812 -7.578125 4.507812 -7.765625 4.3125 -7.890625 C 4.125 -8.023438 3.820312 -8.09375 3.40625 -8.09375 L 1.890625 -8.09375 L 1.890625 -4.453125 Z M 3.390625 -4.453125 "/></g></g></g><g fill="#ba905d" fill-opacity="1"><g transform="translate(221.554703, 280.15803)"><g><path d="M 6.78125 0 L 6.78125 -7.234375 L 6.734375 -7.234375 L 4.75 0 L 3.859375 0 L 1.890625 -7.234375 L 1.828125 -7.234375 L 1.828125 0 L 0.90625 0 L 0.90625 -8.9375 L 2.3125 -8.9375 L 4.296875 -1.671875 L 4.375 -1.671875 L 6.359375 -8.9375 L 7.734375 -8.9375 L 7.734375 0 Z M 6.78125 0 "/></g></g></g><g fill="#ba905d" fill-opacity="1"><g transform="translate(234.591068, 280.15803)"><g/></g></g><g fill="#ba905d" fill-opacity="1"><g transform="translate(241.48032, 280.15803)"><g><path d="M 0.953125 0 L 0.953125 -8.9375 L 1.921875 -8.9375 L 1.921875 0 Z M 0.953125 0 "/></g></g></g><g fill="#ba905d" fill-opacity="1"><g transform="translate(248.733459, 280.15803)"><g><path d="M 4.984375 0 L 1.890625 -6.875 L 1.84375 -6.875 L 1.84375 0 L 0.90625 0 L 0.90625 -8.9375 L 1.9375 -8.9375 L 4.96875 -2.1875 L 5.015625 -2.1875 L 5.015625 -8.9375 L 5.953125 -8.9375 L 5.953125 0 Z M 4.984375 0 "/></g></g></g><g fill="#ba905d" fill-opacity="1"><g transform="translate(130.233512, 298.158028)"><g><path d="M 0.90625 0 L 0.90625 -8.9375 L 5.140625 -8.9375 L 5.140625 -8.09375 L 1.890625 -8.09375 L 1.890625 -4.953125 L 4.703125 -4.953125 L 4.703125 -4.09375 L 1.890625 -4.09375 L 1.890625 -0.859375 L 5.140625 -0.859375 L 5.140625 0 Z M 0.90625 0 "/></g></g></g><g fill="#ba905d" fill-opacity="1"><g transform="translate(140.254806, 298.158028)"><g><path d="M 2.359375 0 L 0.125 -8.9375 L 1.140625 -8.9375 L 2.984375 -1.28125 L 3.0625 -1.28125 L 4.890625 -8.9375 L 5.859375 -8.9375 L 3.640625 0 Z M 2.359375 0 "/></g></g></g><g fill="#ba905d" fill-opacity="1"><g transform="translate(150.652988, 298.158028)"><g><path d="M 0.90625 0 L 0.90625 -8.9375 L 5.140625 -8.9375 L 5.140625 -8.09375 L 1.890625 -8.09375 L 1.890625 -4.953125 L 4.703125 -4.953125 L 4.703125 -4.09375 L 1.890625 -4.09375 L 1.890625 -0.859375 L 5.140625 -0.859375 L 5.140625 0 Z M 0.90625 0 "/></g></g></g><g fill="#ba905d" fill-opacity="1"><g transform="translate(160.674282, 298.158028)"><g><path d="M 4.859375 0 L 3.75 -3.59375 L 1.890625 -3.59375 L 1.890625 0 L 0.90625 0 L 0.90625 -8.9375 L 3.640625 -8.9375 C 4.253906 -8.9375 4.710938 -8.820312 5.015625 -8.59375 C 5.316406 -8.375 5.515625 -8.078125 5.609375 -7.703125 C 5.703125 -7.335938 5.75 -6.859375 5.75 -6.265625 C 5.75 -5.617188 5.679688 -5.082031 5.546875 -4.65625 C 5.410156 -4.238281 5.125 -3.941406 4.6875 -3.765625 L 5.890625 0 Z M 3.390625 -4.453125 C 3.796875 -4.453125 4.097656 -4.515625 4.296875 -4.640625 C 4.503906 -4.773438 4.632812 -4.960938 4.6875 -5.203125 C 4.738281 -5.453125 4.765625 -5.804688 4.765625 -6.265625 C 4.765625 -6.734375 4.738281 -7.085938 4.6875 -7.328125 C 4.632812 -7.578125 4.507812 -7.765625 4.3125 -7.890625 C 4.125 -8.023438 3.820312 -8.09375 3.40625 -8.09375 L 1.890625 -8.09375 L 1.890625 -4.453125 Z M 3.390625 -4.453125 "/></g></g></g><g fill="#ba905d" fill-opacity="1"><g transform="translate(171.47533, 298.158028)"><g><path d="M 2.328125 0 L 2.328125 -3.4375 L 0.03125 -8.9375 L 1.046875 -8.9375 L 2.796875 -4.609375 L 2.875 -4.609375 L 4.609375 -8.9375 L 5.609375 -8.9375 L 3.28125 -3.4375 L 3.28125 0 Z M 2.328125 0 "/></g></g></g><g fill="#ba905d" fill-opacity="1"><g transform="translate(181.496625, 298.158028)"><g/></g></g><g fill="#ba905d" fill-opacity="1"><g transform="translate(188.385877, 298.158028)"><g><path d="M 0.90625 -8.9375 L 3.625 -8.9375 C 4.363281 -8.9375 4.890625 -8.742188 5.203125 -8.359375 C 5.523438 -7.984375 5.6875 -7.429688 5.6875 -6.703125 C 5.6875 -6.085938 5.582031 -5.609375 5.375 -5.265625 C 5.164062 -4.929688 4.832031 -4.710938 4.375 -4.609375 L 4.375 -4.546875 C 4.90625 -4.429688 5.269531 -4.191406 5.46875 -3.828125 C 5.664062 -3.460938 5.765625 -2.972656 5.765625 -2.359375 C 5.765625 -1.628906 5.609375 -1.050781 5.296875 -0.625 C 4.992188 -0.207031 4.421875 0 3.578125 0 L 0.90625 0 Z M 3.359375 -4.96875 C 3.816406 -4.96875 4.15625 -5.09375 4.375 -5.34375 C 4.601562 -5.59375 4.71875 -5.988281 4.71875 -6.53125 C 4.71875 -6.914062 4.675781 -7.21875 4.59375 -7.4375 C 4.519531 -7.664062 4.382812 -7.832031 4.1875 -7.9375 C 4 -8.039062 3.722656 -8.09375 3.359375 -8.09375 L 1.875 -8.09375 L 1.875 -4.96875 Z M 3.390625 -0.859375 C 3.929688 -0.859375 4.296875 -0.976562 4.484375 -1.21875 C 4.679688 -1.46875 4.78125 -1.882812 4.78125 -2.46875 C 4.78125 -3.0625 4.675781 -3.484375 4.46875 -3.734375 C 4.257812 -3.984375 3.898438 -4.109375 3.390625 -4.109375 L 1.875 -4.109375 L 1.875 -0.859375 Z M 3.390625 -0.859375 "/></g></g></g><g fill="#ba905d" fill-opacity="1"><g transform="translate(199.173935, 298.158028)"><g><path d="M 3.359375 0.109375 C 2.515625 0.109375 1.910156 -0.00390625 1.546875 -0.234375 C 1.179688 -0.472656 0.945312 -0.890625 0.84375 -1.484375 C 0.738281 -2.078125 0.6875 -3.070312 0.6875 -4.46875 C 0.6875 -5.863281 0.738281 -6.859375 0.84375 -7.453125 C 0.945312 -8.046875 1.179688 -8.457031 1.546875 -8.6875 C 1.910156 -8.925781 2.515625 -9.046875 3.359375 -9.046875 C 4.210938 -9.046875 4.820312 -8.925781 5.1875 -8.6875 C 5.550781 -8.457031 5.785156 -8.046875 5.890625 -7.453125 C 5.992188 -6.859375 6.046875 -5.863281 6.046875 -4.46875 C 6.046875 -3.070312 5.992188 -2.078125 5.890625 -1.484375 C 5.785156 -0.890625 5.550781 -0.472656 5.1875 -0.234375 C 4.820312 -0.00390625 4.210938 0.109375 3.359375 0.109375 Z M 3.359375 -0.75 C 3.921875 -0.75 4.304688 -0.8125 4.515625 -0.9375 C 4.734375 -1.070312 4.878906 -1.378906 4.953125 -1.859375 C 5.023438 -2.347656 5.0625 -3.21875 5.0625 -4.46875 C 5.0625 -5.71875 5.023438 -6.582031 4.953125 -7.0625 C 4.878906 -7.550781 4.734375 -7.859375 4.515625 -7.984375 C 4.304688 -8.117188 3.921875 -8.1875 3.359375 -8.1875 C 2.804688 -8.1875 2.421875 -8.117188 2.203125 -7.984375 C 1.992188 -7.859375 1.851562 -7.550781 1.78125 -7.0625 C 1.707031 -6.582031 1.671875 -5.71875 1.671875 -4.46875 C 1.671875 -3.21875 1.707031 -2.347656 1.78125 -1.859375 C 1.851562 -1.378906 1.992188 -1.070312 2.203125 -0.9375 C 2.421875 -0.8125 2.804688 -0.75 3.359375 -0.75 Z M 3.359375 -0.75 "/></g></g></g><g fill="#ba905d" fill-opacity="1"><g transform="translate(210.299892, 298.158028)"><g><path d="M 2.203125 0 L 2.203125 -8.0625 L 0.203125 -8.0625 L 0.203125 -8.9375 L 5.15625 -8.9375 L 5.15625 -8.0625 L 3.171875 -8.0625 L 3.171875 0 Z M 2.203125 0 "/></g></g></g><g fill="#ba905d" fill-opacity="1"><g transform="translate(220.061267, 298.158028)"><g><path d="M 2.203125 0 L 2.203125 -8.0625 L 0.203125 -8.0625 L 0.203125 -8.9375 L 5.15625 -8.9375 L 5.15625 -8.0625 L 3.171875 -8.0625 L 3.171875 0 Z M 2.203125 0 "/></g></g></g><g fill="#ba905d" fill-opacity="1"><g transform="translate(229.822647, 298.158028)"><g><path d="M 0.90625 0 L 0.90625 -8.9375 L 1.890625 -8.9375 L 1.890625 -0.890625 L 4.765625 -0.890625 L 4.765625 0 Z M 0.90625 0 "/></g></g></g><g fill="#ba905d" fill-opacity="1"><g transform="translate(239.142154, 298.158028)"><g><path d="M 0.90625 0 L 0.90625 -8.9375 L 5.140625 -8.9375 L 5.140625 -8.09375 L 1.890625 -8.09375 L 1.890625 -4.953125 L 4.703125 -4.953125 L 4.703125 -4.09375 L 1.890625 -4.09375 L 1.890625 -0.859375 L 5.140625 -0.859375 L 5.140625 0 Z M 0.90625 0 "/></g></g></g></svg>