<svg xmlns="http://www.w3.org/2000/svg" xmlns:xlink="http://www.w3.org/1999/xlink" width="500" zoomAndPan="magnify" viewBox="0 0 375 374.999991" height="500" preserveAspectRatio="xMidYMid meet" version="1.0"><defs><g/><clipPath id="14000dca56"><path d="M 166.800781 66.609375 L 319.9375 66.609375 L 319.9375 219.746094 L 166.800781 219.746094 Z M 166.800781 66.609375 " clip-rule="nonzero"/></clipPath><clipPath id="fa7f572dbb"><path d="M 243.367188 66.609375 C 201.082031 66.609375 166.800781 100.890625 166.800781 143.179688 C 166.800781 185.464844 201.082031 219.746094 243.367188 219.746094 C 285.65625 219.746094 319.9375 185.464844 319.9375 143.179688 C 319.9375 100.890625 285.65625 66.609375 243.367188 66.609375 " clip-rule="nonzero"/></clipPath><clipPath id="b2946ce197"><path d="M 189 17.769531 L 276 17.769531 L 276 277.269531 L 189 277.269531 Z M 189 17.769531 " clip-rule="nonzero"/></clipPath><clipPath id="492bb0c4a8"><path d="M 98.070312 18 L 182 18 L 182 238 L 98.070312 238 Z M 98.070312 18 " clip-rule="nonzero"/></clipPath></defs><g clip-path="url(#14000dca56)"><g clip-path="url(#fa7f572dbb)"><path fill="#1b12b0" d="M 166.800781 66.609375 L 319.9375 66.609375 L 319.9375 219.746094 L 166.800781 219.746094 Z M 166.800781 66.609375 " fill-opacity="1" fill-rule="nonzero"/></g></g><path fill="#640029" d="M 199.046875 99.207031 L 200.171875 98.28125 L 200.171875 80.878906 L 211.839844 80.878906 L 211.839844 90.21875 C 212.042969 90.101562 212.25 89.992188 212.449219 89.878906 C 217.804688 86.808594 223.429688 84.21875 229.273438 82.273438 L 229.273438 66.558594 L 212.683594 59 L 202.816406 63.492188 L 196.089844 66.558594 L 196.089844 101.78125 L 196.460938 101.414062 C 197.269531 100.621094 198.191406 99.949219 199.046875 99.207031 Z M 199.046875 99.207031 " fill-opacity="1" fill-rule="nonzero"/><path fill="#640029" d="M 230.527344 109.996094 C 228.027344 111.398438 225.601562 112.917969 223.292969 114.640625 L 221.550781 115.914062 C 220.988281 116.339844 220.625 116.679688 220.027344 117.210938 L 216.808594 120.054688 L 213.160156 123.917969 C 212.667969 124.457031 212.171875 125.105469 211.628906 125.824219 L 210.765625 126.941406 C 210.496094 127.265625 210.273438 127.605469 210.027344 127.933594 C 208.40625 130.179688 206.980469 132.566406 205.6875 135 C 207.074219 136.457031 208.40625 137.964844 209.699219 139.511719 C 209.835938 139.242188 209.933594 138.960938 210.078125 138.695312 C 211.566406 135.921875 213.285156 133.316406 215.203125 130.859375 C 215.457031 130.542969 215.703125 130.207031 215.96875 129.910156 L 216.640625 129.09375 C 217.109375 128.519531 217.628906 127.871094 218.257812 127.234375 L 221.464844 124.085938 L 221.566406 123.980469 L 221.613281 123.945312 L 224.441406 121.648438 C 224.875 121.300781 225.496094 120.769531 226.039062 120.414062 L 227.617188 119.378906 C 229.695312 117.980469 231.914062 116.734375 234.164062 115.609375 C 238.667969 113.347656 243.542969 111.761719 248.445312 110.828125 C 252.890625 109.988281 257.371094 109.566406 261.90625 109.71875 C 262.597656 107.15625 263.171875 104.539062 263.605469 101.878906 C 257.90625 101.761719 252.097656 102.496094 246.527344 103.792969 C 240.894531 105.109375 235.542969 107.203125 230.527344 109.996094 Z M 230.527344 109.996094 " fill-opacity="1" fill-rule="nonzero"/><path fill="#640029" d="M 239.484375 94.238281 C 232.222656 96.351562 225.351562 99.660156 219.050781 103.808594 C 218.246094 104.34375 217.519531 104.824219 216.75 105.398438 L 214.410156 107.085938 C 213.652344 107.648438 213.054688 108.152344 212.328125 108.804688 L 210.1875 110.6875 C 210.042969 110.816406 209.890625 110.945312 209.742188 111.078125 C 209.171875 111.570312 208.59375 112.050781 208.070312 112.597656 L 206.105469 114.664062 L 204.164062 116.710938 C 203.59375 117.332031 203.035156 118.027344 202.457031 118.777344 C 200.386719 121.363281 198.542969 124.074219 196.867188 126.871094 C 197.667969 127.519531 198.46875 128.171875 199.25 128.847656 C 199.84375 129.359375 200.421875 129.898438 201.007812 130.429688 C 202.3125 128.308594 203.691406 126.238281 205.21875 124.277344 C 205.527344 123.894531 205.820312 123.484375 206.144531 123.125 L 206.976562 122.125 C 207.554688 121.417969 208.183594 120.644531 208.941406 119.875 L 212.84375 116.03125 L 212.972656 115.898438 L 213.035156 115.851562 L 216.472656 113.058594 C 217 112.628906 217.773438 112 218.417969 111.5625 L 220.332031 110.296875 C 222.871094 108.589844 225.570312 107.078125 228.308594 105.714844 C 233.800781 102.980469 239.726562 101.039062 245.699219 99.902344 C 251.699219 98.777344 257.742188 98.257812 263.863281 98.648438 C 263.933594 98.652344 263.996094 98.664062 264.0625 98.667969 C 264.367188 96.148438 264.550781 93.597656 264.613281 91.007812 C 263.726562 90.976562 262.835938 90.914062 261.945312 90.914062 C 254.375 91.007812 246.75 92.132812 239.484375 94.238281 Z M 239.484375 94.238281 " fill-opacity="1" fill-rule="nonzero"/><path fill="#640029" d="M 242.953125 139.9375 C 242.636719 140.160156 242.472656 140.292969 242.277344 140.5 L 240.570312 142.015625 L 238.9375 143.8125 C 238.730469 144.007812 238.636719 144.148438 238.417969 144.453125 C 238.21875 144.738281 237.96875 145.117188 237.613281 145.53125 L 237.722656 145.402344 C 236.464844 147.167969 235.390625 149.019531 234.578125 150.917969 C 239.96875 146.683594 244.804688 141.773438 248.929688 136.285156 C 247.195312 137.113281 245.519531 138.09375 243.929688 139.226562 C 243.570312 139.511719 243.222656 139.742188 242.953125 139.9375 Z M 242.953125 139.9375 " fill-opacity="1" fill-rule="nonzero"/><path fill="#640029" d="M 235.832031 118.824219 C 233.765625 119.988281 231.757812 121.238281 229.847656 122.664062 L 228.398438 123.710938 C 227.9375 124.054688 227.644531 124.339844 227.140625 124.78125 L 224.472656 127.128906 L 221.457031 130.335938 C 221.054688 130.769531 220.65625 131.304688 220.207031 131.90625 L 219.488281 132.84375 C 219.261719 133.117188 219.085938 133.390625 218.882812 133.664062 C 217.222656 135.976562 215.730469 138.441406 214.5 140.980469 C 214.011719 141.949219 213.605469 142.960938 213.199219 143.964844 C 213.390625 144.226562 213.59375 144.46875 213.78125 144.734375 C 215.128906 146.617188 216.386719 148.578125 217.589844 150.574219 C 218.308594 148.042969 219.265625 145.574219 220.527344 143.246094 C 221.738281 141.039062 223.117188 138.996094 224.660156 137.050781 C 224.867188 136.796875 225.074219 136.511719 225.285156 136.289062 L 225.792969 135.683594 C 226.152344 135.238281 226.578125 134.703125 227.125 134.164062 L 229.648438 131.71875 L 229.769531 131.605469 L 229.800781 131.578125 L 232.023438 129.8125 C 232.347656 129.558594 232.875 129.09375 233.332031 128.816406 L 234.585938 128.023438 C 236.230469 126.933594 238 125.960938 239.785156 125.085938 C 243.351562 123.316406 247.242188 122.09375 251.113281 121.394531 C 253.429688 120.976562 255.75 120.703125 258.082031 120.59375 C 259.273438 117.875 260.324219 115.082031 261.207031 112.210938 C 257.136719 112.28125 253.023438 112.835938 249.0625 113.738281 C 244.398438 114.789062 239.980469 116.515625 235.832031 118.824219 Z M 235.832031 118.824219 " fill-opacity="1" fill-rule="nonzero"/><path fill="#640029" d="M 241.371094 128.105469 C 239.761719 129.03125 238.207031 130.019531 236.71875 131.15625 L 235.585938 131.980469 C 235.238281 132.234375 235.0625 132.4375 234.648438 132.800781 L 232.582031 134.640625 L 230.21875 137.199219 C 229.945312 137.5 229.65625 137.898438 229.304688 138.386719 L 228.71875 139.15625 C 228.542969 139.367188 228.417969 139.574219 228.261719 139.78125 C 226.992188 141.589844 225.839844 143.519531 224.902344 145.492188 C 222.980469 149.386719 221.984375 154.234375 222.046875 158.9375 C 222.046875 158.9375 222.046875 158.941406 222.046875 158.941406 C 224.316406 157.773438 226.519531 156.496094 228.65625 155.125 C 228.929688 153.875 229.257812 152.640625 229.679688 151.402344 C 230.78125 148.210938 232.613281 145.464844 234.585938 142.996094 L 234.679688 142.882812 L 234.695312 142.867188 C 234.863281 142.707031 235.0625 142.445312 235.332031 142.109375 C 235.582031 141.792969 235.976562 141.324219 236.359375 141.007812 L 237.921875 139.496094 L 238.097656 139.324219 L 238.144531 139.289062 L 239.894531 137.921875 C 240.265625 137.574219 240.746094 137.257812 241.09375 137.050781 C 241.453125 136.835938 241.753906 136.664062 241.972656 136.507812 L 242.085938 136.425781 C 244.214844 135.121094 246.476562 133.980469 248.863281 133.144531 C 249.796875 132.824219 250.730469 132.597656 251.667969 132.375 C 253.632812 129.402344 255.40625 126.300781 256.957031 123.0625 C 255.171875 123.292969 253.398438 123.613281 251.667969 124.015625 C 248.015625 124.878906 244.59375 126.261719 241.371094 128.105469 Z M 241.371094 128.105469 " fill-opacity="1" fill-rule="nonzero"/><path fill="#640029" d="M 264.277344 80.332031 C 263.542969 80.3125 262.808594 80.253906 262.074219 80.25 C 253.347656 80.328125 244.566406 81.605469 236.183594 84.027344 C 232.84375 84.992188 229.601562 86.226562 226.417969 87.601562 C 221.617188 89.667969 216.980469 92.125 212.613281 94.988281 C 212.605469 94.992188 212.601562 94.992188 212.589844 94.996094 C 211.671875 95.605469 210.8125 96.167969 209.921875 96.824219 L 207.238281 98.761719 C 205.578125 99.972656 204.015625 101.492188 202.335938 102.921875 C 201.53125 103.660156 200.65625 104.324219 199.902344 105.117188 L 197.632812 107.488281 L 195.386719 109.839844 C 195.1875 110.058594 194.988281 110.328125 194.789062 110.5625 C 194.320312 111.105469 193.855469 111.648438 193.386719 112.25 C 191.3125 114.828125 189.453125 117.535156 187.707031 120.304688 C 187.941406 120.453125 188.183594 120.589844 188.417969 120.738281 C 189.789062 121.621094 191.132812 122.542969 192.457031 123.5 C 194.285156 120.707031 196.25 118.015625 198.371094 115.511719 C 199 114.742188 199.675781 113.945312 200.4375 113.160156 L 202.5625 111.054688 L 204.675781 108.976562 C 205.378906 108.28125 206.183594 107.699219 206.929688 107.054688 L 209.214844 105.171875 C 209.949219 104.554688 210.863281 103.84375 211.691406 103.289062 L 211.785156 103.226562 L 214.125 101.667969 C 214.933594 101.113281 215.84375 100.558594 216.675781 100.054688 C 223.46875 95.9375 230.847656 92.746094 238.539062 90.8125 C 246.207031 88.851562 254.078125 87.9375 261.984375 88.089844 C 262.878906 88.117188 263.765625 88.210938 264.65625 88.269531 L 264.65625 87.585938 C 264.667969 85.089844 264.523438 82.679688 264.277344 80.332031 Z M 264.277344 80.332031 " fill-opacity="1" fill-rule="nonzero"/><path fill="#640029" d="M 134.152344 140.632812 C 131.476562 139.847656 128.71875 139.246094 125.9375 138.835938 C 126.976562 140.105469 128.066406 141.335938 129.183594 142.539062 C 129.679688 142.644531 130.179688 142.722656 130.667969 142.835938 C 140.3125 145.207031 149.515625 150.207031 156.347656 157.976562 C 157.707031 159.511719 158.921875 161.203125 160.039062 162.964844 C 161.664062 163.546875 163.3125 164.070312 164.984375 164.542969 C 163.914062 162.5625 162.695312 160.640625 161.296875 158.835938 C 154.636719 150.222656 144.8125 143.933594 134.152344 140.632812 Z M 134.152344 140.632812 " fill-opacity="1" fill-rule="nonzero"/><path fill="#640029" d="M 156.730469 107.035156 C 158.675781 107.523438 160.59375 108.082031 162.511719 108.679688 C 162.976562 108.824219 163.441406 108.96875 163.90625 109.121094 C 164.148438 109.199219 164.398438 109.269531 164.640625 109.355469 C 168.8125 110.746094 172.910156 112.394531 176.890625 114.296875 C 173.011719 112.113281 168.933594 110.214844 164.730469 108.519531 C 164.445312 108.40625 164.160156 108.28125 163.871094 108.171875 L 163.746094 105.042969 L 163.582031 100.835938 L 164.191406 104.914062 C 165.820312 104.285156 167.019531 102.082031 167.019531 98.316406 C 167.019531 93.820312 164.753906 87.367188 163.203125 87.367188 C 161.683594 87.367188 159.386719 93.820312 159.386719 98.316406 C 159.386719 102.417969 160.808594 104.675781 162.660156 105.042969 L 162.558594 107.632812 C 159.53125 106.492188 156.460938 105.433594 153.292969 104.546875 L 153.277344 104.539062 C 152.566406 104.347656 151.875 104.191406 151.171875 104.015625 C 150.746094 103.914062 150.316406 103.800781 149.898438 103.699219 L 149.691406 98.398438 L 149.460938 92.507812 L 150.308594 98.21875 C 152.582031 97.339844 154.269531 94.25 154.269531 88.980469 C 154.269531 82.683594 151.097656 73.652344 148.921875 73.652344 C 146.792969 73.652344 143.574219 82.683594 143.574219 88.980469 C 143.574219 94.722656 145.570312 97.878906 148.15625 98.398438 L 147.964844 103.25 C 143.621094 102.289062 139.386719 101.609375 135.277344 101.207031 C 134.753906 101.152344 134.246094 101.128906 133.730469 101.085938 L 133.480469 94.808594 L 133.183594 87.152344 L 134.289062 94.578125 C 137.246094 93.4375 139.4375 89.421875 139.4375 82.570312 C 139.4375 74.378906 135.316406 62.640625 132.488281 62.640625 C 129.71875 62.640625 125.539062 74.378906 125.539062 82.570312 C 125.539062 90.03125 128.128906 94.136719 131.496094 94.816406 L 131.257812 100.898438 C 123.527344 100.441406 116.226562 100.929688 109.320312 102.128906 C 109.3125 102.128906 109.304688 102.132812 109.296875 102.132812 C 109.347656 102.429688 109.402344 102.726562 109.453125 103.019531 C 109.578125 103.714844 109.691406 104.417969 109.835938 105.101562 C 109.933594 105.574219 110.054688 106.035156 110.160156 106.507812 C 110.171875 106.5 110.1875 106.5 110.199219 106.5 C 125.382812 103.125 141.449219 103.367188 156.730469 107.035156 Z M 156.730469 107.035156 " fill-opacity="1" fill-rule="nonzero"/><path fill="#640029" d="M 172.59375 157.914062 C 172.277344 157.457031 171.910156 157.03125 171.582031 156.585938 C 171.0625 155.878906 170.546875 155.179688 169.988281 154.5 C 167.449219 151.414062 164.539062 148.617188 161.363281 146.109375 C 160.339844 145.300781 159.316406 144.496094 158.246094 143.75 C 152.648438 139.84375 146.367188 136.777344 139.769531 134.804688 C 135.089844 133.40625 130.230469 132.542969 125.328125 132.203125 C 123.886719 132.105469 122.4375 132.066406 120.988281 132.0625 C 121.589844 132.980469 122.214844 133.882812 122.851562 134.773438 C 124.929688 134.863281 126.996094 135.066406 129.0625 135.355469 C 131.144531 135.652344 133.222656 136.007812 135.269531 136.503906 C 142.628906 138.355469 149.753906 141.488281 156.0625 145.910156 C 159.714844 148.46875 163.09375 151.449219 166.085938 154.882812 C 167.363281 156.347656 168.523438 157.925781 169.625 159.554688 C 170.246094 160.476562 170.871094 161.394531 171.425781 162.363281 C 172.1875 163.691406 172.878906 165.0625 173.507812 166.472656 C 174.367188 166.617188 175.238281 166.742188 176.105469 166.855469 C 176.574219 166.917969 177.046875 166.980469 177.515625 167.039062 C 177.042969 165.851562 176.507812 164.675781 175.929688 163.527344 C 174.945312 161.589844 173.839844 159.714844 172.59375 157.914062 Z M 172.59375 157.914062 " fill-opacity="1" fill-rule="nonzero"/><path fill="#640029" d="M 184.621094 155.410156 C 183.753906 154.191406 182.84375 153 181.898438 151.839844 C 180.421875 150.046875 178.832031 148.347656 177.175781 146.710938 C 176.3125 145.855469 175.429688 145.019531 174.519531 144.203125 C 174.183594 143.902344 173.84375 143.609375 173.503906 143.316406 C 173.027344 142.90625 172.5625 142.488281 172.078125 142.089844 C 167.429688 138.296875 162.289062 135.058594 156.828125 132.460938 C 145.792969 127.109375 133.433594 124.503906 121.0625 124.820312 C 120.328125 124.847656 119.59375 124.921875 118.859375 124.960938 C 118.210938 125.003906 117.566406 125.027344 116.917969 125.085938 C 117.425781 126.070312 117.953125 127.042969 118.503906 128 C 119.390625 127.945312 120.285156 127.933594 121.179688 127.914062 C 127.851562 127.742188 134.5625 128.445312 141.058594 129.996094 C 148.230469 131.84375 155.179688 134.609375 161.621094 138.4375 C 164.894531 140.382812 168.011719 142.617188 170.945312 145.101562 C 171.058594 145.195312 171.15625 145.304688 171.269531 145.398438 C 171.78125 145.839844 172.261719 146.3125 172.765625 146.765625 C 174.082031 147.964844 175.359375 149.21875 176.589844 150.527344 C 177.363281 151.347656 178.15625 152.144531 178.890625 153.007812 C 179.765625 154.039062 180.597656 155.117188 181.414062 156.210938 C 183.773438 159.375 185.859375 162.789062 187.585938 166.429688 C 187.753906 166.789062 187.9375 167.144531 188.097656 167.507812 C 189.160156 167.488281 190.222656 167.453125 191.269531 167.386719 C 190.144531 164.675781 188.804688 162.058594 187.285156 159.527344 C 186.453125 158.132812 185.566406 156.75 184.621094 155.410156 Z M 184.621094 155.410156 " fill-opacity="1" fill-rule="nonzero"/><path fill="#640029" d="M 196.171875 152.492188 C 195.371094 151.328125 194.476562 150.230469 193.609375 149.117188 C 192.300781 147.429688 190.925781 145.800781 189.476562 144.230469 C 188.117188 142.753906 186.699219 141.320312 185.226562 139.945312 C 185.066406 139.796875 184.902344 139.652344 184.742188 139.5 C 183.277344 138.15625 181.773438 136.859375 180.207031 135.625 C 179.042969 134.707031 177.882812 133.777344 176.675781 132.921875 C 176.199219 132.585938 175.703125 132.28125 175.222656 131.953125 C 167.78125 126.917969 159.527344 122.984375 150.867188 120.417969 C 139.113281 116.988281 126.542969 115.957031 114.324219 117.644531 C 114.085938 117.675781 113.84375 117.710938 113.605469 117.746094 C 114.003906 118.761719 114.421875 119.773438 114.863281 120.769531 C 115.230469 120.71875 115.597656 120.640625 115.964844 120.589844 C 117.582031 120.375 119.207031 120.210938 120.828125 120.101562 C 139.4375 118.679688 158.683594 123.894531 174.242188 134.769531 C 174.703125 135.089844 175.164062 135.414062 175.613281 135.738281 C 176.855469 136.648438 178.070312 137.597656 179.257812 138.578125 C 180.328125 139.457031 181.371094 140.371094 182.394531 141.316406 C 182.859375 141.742188 183.328125 142.160156 183.785156 142.597656 C 185.484375 144.242188 187.109375 145.984375 188.660156 147.800781 C 189.460938 148.734375 190.261719 149.667969 191.023438 150.648438 C 191.683594 151.507812 192.296875 152.421875 192.921875 153.316406 C 195.445312 156.964844 197.625 160.878906 199.375 165.007812 C 199.566406 165.460938 199.742188 165.910156 199.921875 166.367188 C 201.050781 166.171875 202.171875 165.953125 203.285156 165.710938 C 202.140625 162.886719 200.804688 160.140625 199.292969 157.476562 C 198.3125 155.78125 197.289062 154.113281 196.171875 152.492188 Z M 196.171875 152.492188 " fill-opacity="1" fill-rule="nonzero"/><path fill="#640029" d="M 206.640625 149.734375 C 206.496094 149.519531 206.339844 149.3125 206.1875 149.101562 C 204.882812 147.199219 203.5 145.339844 202.035156 143.546875 C 200.46875 141.621094 198.808594 139.765625 197.082031 137.96875 C 195.914062 136.757812 194.71875 135.570312 193.488281 134.417969 C 193.359375 134.296875 193.226562 134.183594 193.089844 134.058594 C 191.621094 132.707031 190.109375 131.398438 188.558594 130.136719 C 187.160156 129.003906 185.75 127.890625 184.289062 126.832031 C 184.222656 126.789062 184.152344 126.746094 184.082031 126.699219 C 182.941406 125.875 181.730469 125.144531 180.546875 124.371094 C 180.097656 124.074219 179.65625 123.769531 179.203125 123.484375 C 171.773438 118.816406 163.691406 115.101562 155.257812 112.488281 C 144.828125 109.402344 133.824219 107.914062 122.855469 108.34375 C 118.890625 108.507812 114.929688 108.933594 111.003906 109.613281 C 110.976562 109.617188 110.953125 109.625 110.921875 109.625 C 111.253906 110.84375 111.605469 112.046875 111.992188 113.246094 C 112.09375 113.222656 112.203125 113.203125 112.308594 113.183594 C 125.519531 110.578125 139.382812 111.023438 152.527344 114.277344 C 161.542969 116.601562 170.257812 120.3125 178.292969 125.199219 C 178.761719 125.484375 179.25 125.746094 179.714844 126.039062 C 180.898438 126.789062 182.035156 127.601562 183.183594 128.40625 C 184.746094 129.496094 186.285156 130.609375 187.777344 131.796875 C 189.25 132.976562 190.691406 134.183594 192.09375 135.453125 C 192.191406 135.542969 192.296875 135.621094 192.394531 135.707031 C 193.769531 136.972656 195.066406 138.328125 196.363281 139.683594 C 198.132812 141.535156 199.820312 143.46875 201.421875 145.484375 C 201.964844 146.171875 202.558594 146.8125 203.085938 147.519531 C 203.992188 148.738281 204.851562 149.988281 205.683594 151.257812 C 207.25 153.644531 208.679688 156.117188 209.980469 158.671875 C 210.734375 160.160156 211.441406 161.667969 212.105469 163.203125 C 212.65625 163.011719 213.210938 162.824219 213.753906 162.617188 C 212.710938 160.242188 211.550781 157.910156 210.28125 155.636719 C 209.140625 153.632812 207.941406 151.652344 206.640625 149.734375 Z M 206.640625 149.734375 " fill-opacity="1" fill-rule="nonzero"/><path fill="#ba905d" d="M 261.992188 88.082031 C 254.085938 87.933594 246.222656 88.839844 238.546875 90.804688 C 230.859375 92.742188 223.476562 95.929688 216.6875 100.050781 C 215.855469 100.558594 214.949219 101.113281 214.136719 101.660156 L 211.792969 103.222656 L 211.703125 103.285156 C 210.878906 103.839844 209.957031 104.550781 209.222656 105.167969 L 206.9375 107.050781 C 206.1875 107.695312 205.386719 108.273438 204.683594 108.96875 L 202.574219 111.050781 L 200.449219 113.15625 C 199.683594 113.9375 199.011719 114.742188 198.382812 115.503906 C 196.265625 118.015625 194.296875 120.703125 192.464844 123.492188 C 191.140625 122.542969 189.796875 121.617188 188.425781 120.734375 C 188.195312 120.582031 187.953125 120.445312 187.71875 120.296875 C 189.460938 117.527344 191.316406 114.816406 193.398438 112.242188 C 193.867188 111.640625 194.332031 111.101562 194.796875 110.558594 C 195 110.324219 195.195312 110.054688 195.398438 109.835938 L 197.640625 107.480469 L 199.910156 105.109375 C 200.667969 104.324219 201.539062 103.652344 202.347656 102.917969 C 204.027344 101.492188 205.589844 99.964844 207.25 98.757812 L 209.933594 96.816406 C 210.824219 96.164062 211.675781 95.597656 212.601562 94.992188 C 212.605469 94.988281 212.613281 94.988281 212.621094 94.980469 C 216.992188 92.117188 221.628906 89.664062 226.429688 87.59375 C 229.613281 86.21875 232.859375 84.984375 236.195312 84.019531 C 244.578125 81.597656 253.351562 80.328125 262.085938 80.246094 C 262.820312 80.25 263.554688 80.308594 264.289062 80.328125 C 264.195312 79.425781 264.070312 78.542969 263.941406 77.664062 C 263.933594 77.589844 263.921875 77.511719 263.910156 77.4375 C 263.316406 77.40625 262.726562 77.339844 262.132812 77.324219 C 259.644531 77.277344 257.160156 77.347656 254.679688 77.484375 L 254.679688 64.757812 L 235.773438 56.140625 L 212.695312 56.140625 L 201.242188 61.359375 C 191.707031 49.429688 177.082031 41.773438 160.65625 41.773438 C 131.925781 41.773438 108.632812 65.136719 108.632812 93.960938 C 108.632812 96.738281 108.910156 99.453125 109.328125 102.117188 C 116.238281 100.921875 123.539062 100.4375 131.269531 100.890625 L 131.507812 94.804688 C 128.144531 94.125 125.550781 90.023438 125.550781 82.558594 C 125.550781 74.367188 129.726562 62.628906 132.5 62.628906 C 135.324219 62.628906 139.449219 74.367188 139.449219 82.558594 C 139.449219 89.410156 137.257812 93.425781 134.300781 94.566406 L 133.191406 87.144531 L 133.492188 94.800781 L 133.742188 101.074219 C 134.257812 101.117188 134.765625 101.144531 135.285156 101.195312 C 139.398438 101.601562 143.628906 102.277344 147.976562 103.238281 L 148.167969 98.390625 C 145.582031 97.871094 143.585938 94.710938 143.585938 88.96875 C 143.585938 82.671875 146.800781 73.640625 148.933594 73.640625 C 151.105469 73.640625 154.277344 82.671875 154.277344 88.96875 C 154.277344 94.238281 152.59375 97.332031 150.316406 98.207031 L 149.46875 92.496094 L 149.703125 98.390625 L 149.910156 103.691406 C 150.332031 103.789062 150.757812 103.898438 151.183594 104.007812 C 151.886719 104.183594 152.578125 104.339844 153.285156 104.53125 L 153.300781 104.535156 C 156.472656 105.421875 159.546875 106.480469 162.566406 107.621094 L 162.671875 105.035156 C 160.824219 104.660156 159.398438 102.402344 159.398438 98.304688 C 159.398438 93.808594 161.695312 87.355469 163.214844 87.355469 C 164.765625 87.355469 167.03125 93.808594 167.03125 98.304688 C 167.03125 102.070312 165.824219 104.277344 164.203125 104.902344 L 163.59375 100.828125 L 163.757812 105.035156 L 163.882812 108.160156 C 164.171875 108.273438 164.449219 108.394531 164.738281 108.507812 C 168.945312 110.203125 173.023438 112.101562 176.902344 114.285156 C 172.921875 112.382812 168.824219 110.734375 164.652344 109.34375 C 164.410156 109.261719 164.160156 109.191406 163.917969 109.109375 C 163.453125 108.960938 162.988281 108.816406 162.523438 108.667969 C 160.609375 108.074219 158.683594 107.511719 156.742188 107.023438 C 141.457031 103.359375 125.390625 103.121094 110.199219 106.480469 C 110.1875 106.484375 110.171875 106.484375 110.160156 106.484375 C 110.398438 107.539062 110.652344 108.582031 110.933594 109.613281 C 110.957031 109.609375 110.984375 109.601562 111.015625 109.601562 C 114.9375 108.921875 118.90625 108.5 122.867188 108.332031 C 133.832031 107.902344 144.835938 109.390625 155.265625 112.476562 C 163.699219 115.089844 171.78125 118.808594 179.214844 123.472656 C 179.667969 123.757812 180.109375 124.0625 180.558594 124.359375 C 181.742188 125.132812 182.945312 125.863281 184.09375 126.6875 C 184.160156 126.734375 184.234375 126.777344 184.300781 126.824219 C 185.753906 127.882812 187.171875 128.992188 188.566406 130.128906 C 190.117188 131.386719 191.632812 132.695312 193.101562 134.050781 C 193.230469 134.167969 193.371094 134.28125 193.5 134.40625 C 194.734375 135.558594 195.925781 136.746094 197.09375 137.960938 C 198.820312 139.753906 200.480469 141.613281 202.046875 143.535156 C 203.511719 145.332031 204.890625 147.1875 206.199219 149.089844 C 206.34375 149.304688 206.503906 149.511719 206.648438 149.722656 C 207.953125 151.644531 209.152344 153.625 210.285156 155.640625 C 211.554688 157.914062 212.714844 160.242188 213.757812 162.625 C 214.53125 162.339844 215.289062 162.03125 216.042969 161.722656 C 216.882812 161.378906 217.710938 161.015625 218.53125 160.640625 C 219.714844 160.109375 220.890625 159.542969 222.042969 158.945312 C 222.046875 158.941406 222.054688 158.941406 222.0625 158.9375 C 222.0625 158.9375 222.0625 158.929688 222.0625 158.929688 C 222 154.230469 222.996094 149.382812 224.917969 145.484375 C 225.859375 143.515625 227.007812 141.585938 228.277344 139.773438 C 228.433594 139.566406 228.554688 139.359375 228.734375 139.152344 L 229.320312 138.378906 C 229.671875 137.890625 229.960938 137.492188 230.234375 137.191406 L 232.597656 134.636719 L 234.664062 132.792969 C 235.078125 132.429688 235.25 132.226562 235.601562 131.972656 L 236.734375 131.148438 C 238.222656 130.011719 239.777344 129.027344 241.386719 128.097656 C 244.613281 126.253906 248.03125 124.867188 251.691406 124.015625 C 253.425781 123.617188 255.199219 123.292969 256.984375 123.0625 C 257.375 122.242188 257.738281 121.410156 258.105469 120.574219 C 255.765625 120.6875 253.449219 120.957031 251.132812 121.371094 C 247.261719 122.074219 243.371094 123.296875 239.804688 125.066406 C 238.019531 125.941406 236.253906 126.910156 234.609375 128 L 233.351562 128.792969 C 232.902344 129.078125 232.375 129.535156 232.042969 129.789062 L 229.820312 131.558594 L 229.789062 131.585938 L 229.671875 131.699219 L 227.148438 134.140625 C 226.597656 134.683594 226.179688 135.214844 225.8125 135.660156 L 225.304688 136.269531 C 225.09375 136.496094 224.886719 136.777344 224.679688 137.03125 C 223.144531 138.980469 221.757812 141.019531 220.546875 143.222656 C 219.285156 145.554688 218.324219 148.023438 217.613281 150.554688 C 216.410156 148.558594 215.15625 146.601562 213.800781 144.714844 C 213.613281 144.453125 213.414062 144.203125 213.222656 143.945312 C 213.625 142.9375 214.035156 141.929688 214.519531 140.957031 C 215.75 138.417969 217.246094 135.957031 218.90625 133.644531 C 219.105469 133.375 219.285156 133.09375 219.507812 132.824219 L 220.226562 131.886719 C 220.679688 131.285156 221.078125 130.753906 221.480469 130.3125 L 224.492188 127.109375 L 227.164062 124.757812 C 227.664062 124.316406 227.953125 124.03125 228.417969 123.691406 L 229.867188 122.644531 C 231.78125 121.214844 233.78125 119.964844 235.855469 118.804688 C 240 116.492188 244.417969 114.765625 249.082031 113.699219 C 253.042969 112.796875 257.160156 112.242188 261.226562 112.175781 C 261.476562 111.363281 261.703125 110.53125 261.925781 109.707031 C 257.390625 109.554688 252.914062 109.976562 248.464844 110.816406 C 243.558594 111.75 238.6875 113.34375 234.183594 115.597656 C 231.933594 116.726562 229.714844 117.96875 227.636719 119.371094 L 226.0625 120.402344 C 225.519531 120.761719 224.890625 121.285156 224.464844 121.636719 L 221.632812 123.933594 L 221.589844 123.972656 L 221.484375 124.074219 L 218.277344 127.222656 C 217.644531 127.859375 217.125 128.507812 216.660156 129.085938 L 215.988281 129.898438 C 215.71875 130.195312 215.476562 130.53125 215.222656 130.847656 C 213.304688 133.3125 211.582031 135.910156 210.097656 138.6875 C 209.957031 138.949219 209.855469 139.230469 209.722656 139.5 C 208.429688 137.953125 207.097656 136.441406 205.707031 134.988281 C 207 132.550781 208.429688 130.167969 210.046875 127.921875 C 210.296875 127.589844 210.511719 127.253906 210.785156 126.933594 L 211.648438 125.8125 C 212.191406 125.089844 212.6875 124.449219 213.179688 123.910156 L 216.832031 120.042969 L 220.046875 117.203125 C 220.648438 116.667969 221.007812 116.332031 221.574219 115.90625 L 223.316406 114.628906 C 225.621094 112.90625 228.046875 111.394531 230.550781 109.988281 C 235.566406 107.191406 240.917969 105.105469 246.554688 103.800781 C 252.117188 102.503906 257.933594 101.765625 263.632812 101.886719 C 263.808594 100.820312 263.953125 99.742188 264.082031 98.664062 C 264.015625 98.660156 263.953125 98.648438 263.886719 98.644531 C 257.761719 98.253906 251.71875 98.773438 245.71875 99.898438 C 239.75 101.039062 233.824219 102.972656 228.332031 105.707031 C 225.585938 107.070312 222.890625 108.585938 220.351562 110.292969 L 218.4375 111.558594 C 217.789062 111.988281 217.023438 112.621094 216.496094 113.050781 L 213.054688 115.847656 L 212.992188 115.894531 L 212.863281 116.023438 L 208.960938 119.867188 C 208.207031 120.640625 207.574219 121.414062 206.996094 122.117188 L 206.164062 123.121094 C 205.835938 123.484375 205.542969 123.886719 205.238281 124.273438 C 203.710938 126.230469 202.332031 128.300781 201.027344 130.421875 C 200.445312 129.894531 199.867188 129.355469 199.269531 128.839844 C 198.488281 128.167969 197.6875 127.511719 196.886719 126.863281 C 198.566406 124.070312 200.410156 121.355469 202.476562 118.773438 C 203.054688 118.027344 203.613281 117.328125 204.183594 116.703125 L 206.128906 114.660156 L 208.09375 112.589844 C 208.613281 112.046875 209.195312 111.5625 209.761719 111.070312 C 209.914062 110.941406 210.0625 110.816406 210.207031 110.683594 L 212.347656 108.800781 C 213.070312 108.144531 213.671875 107.640625 214.433594 107.082031 L 216.769531 105.390625 C 217.539062 104.820312 218.269531 104.339844 219.070312 103.804688 C 225.375 99.648438 232.238281 96.34375 239.503906 94.234375 C 246.773438 92.125 254.398438 91.003906 261.972656 90.910156 C 262.863281 90.914062 263.75 90.976562 264.640625 91.003906 C 264.65625 90.359375 264.6875 89.722656 264.6875 89.078125 L 264.6875 88.257812 C 263.773438 88.207031 262.886719 88.113281 261.992188 88.082031 Z M 212.683594 59 L 229.277344 66.558594 L 229.277344 82.273438 C 223.433594 84.222656 217.808594 86.8125 212.457031 89.878906 C 212.253906 89.992188 212.046875 90.105469 211.847656 90.21875 L 211.847656 80.878906 L 200.171875 80.878906 L 200.171875 98.28125 L 199.046875 99.207031 C 198.191406 99.949219 197.269531 100.625 196.460938 101.417969 L 196.089844 101.785156 L 196.089844 66.558594 L 202.816406 63.492188 Z M 235.230469 80.5 C 234.101562 80.789062 232.996094 81.164062 231.878906 81.5 L 231.878906 66.542969 L 251.976562 66.390625 L 252.074219 66.433594 L 252.074219 77.707031 C 246.398438 78.175781 240.761719 79.066406 235.230469 80.5 Z M 235.230469 80.5 " fill-opacity="1" fill-rule="nonzero"/><path fill="#ba905d" d="M 242.085938 136.441406 L 241.972656 136.523438 C 241.753906 136.671875 241.453125 136.851562 241.09375 137.066406 C 240.746094 137.273438 240.265625 137.589844 239.894531 137.9375 L 238.144531 139.304688 L 238.097656 139.339844 L 237.921875 139.511719 L 236.359375 141.023438 C 235.984375 141.339844 235.582031 141.808594 235.332031 142.125 C 235.070312 142.460938 234.863281 142.722656 234.695312 142.882812 L 234.679688 142.898438 L 234.585938 143.011719 C 232.605469 145.476562 230.78125 148.226562 229.679688 151.417969 C 229.257812 152.648438 228.929688 153.890625 228.65625 155.140625 C 230.695312 153.828125 232.667969 152.421875 234.570312 150.925781 C 235.382812 149.027344 236.453125 147.171875 237.714844 145.414062 L 237.605469 145.542969 C 237.964844 145.128906 238.210938 144.75 238.414062 144.464844 C 238.632812 144.15625 238.722656 144.019531 238.929688 143.820312 L 240.566406 142.027344 L 242.269531 140.511719 C 242.460938 140.304688 242.632812 140.167969 242.949219 139.945312 C 243.21875 139.753906 243.5625 139.519531 243.925781 139.230469 C 245.511719 138.101562 247.1875 137.125 248.925781 136.289062 C 249.882812 135.019531 250.792969 133.71875 251.671875 132.390625 C 250.734375 132.613281 249.796875 132.839844 248.871094 133.160156 C 246.476562 133.992188 244.222656 135.136719 242.085938 136.441406 Z M 242.085938 136.441406 " fill-opacity="1" fill-rule="nonzero"/><path fill="#ba905d" d="M 205.675781 151.269531 C 204.84375 150 203.980469 148.742188 203.082031 147.53125 C 202.558594 146.824219 201.964844 146.1875 201.417969 145.496094 C 199.8125 143.480469 198.132812 141.542969 196.359375 139.691406 C 195.0625 138.339844 193.769531 136.980469 192.386719 135.71875 C 192.289062 135.632812 192.1875 135.554688 192.089844 135.464844 C 190.691406 134.195312 189.246094 132.980469 187.769531 131.808594 C 186.28125 130.621094 184.742188 129.503906 183.179688 128.414062 C 182.03125 127.613281 180.894531 126.796875 179.710938 126.050781 C 179.242188 125.753906 178.757812 125.496094 178.289062 125.210938 C 170.257812 120.320312 161.539062 116.605469 152.519531 114.285156 C 139.371094 111.03125 125.515625 110.589844 112.300781 113.191406 C 112.199219 113.214844 112.089844 113.230469 111.988281 113.253906 C 112.476562 114.78125 113.019531 116.277344 113.601562 117.761719 C 113.839844 117.726562 114.074219 117.691406 114.320312 117.660156 C 126.53125 115.972656 139.109375 117.003906 150.859375 120.433594 C 159.523438 123 167.78125 126.933594 175.214844 131.96875 C 175.695312 132.296875 176.191406 132.601562 176.667969 132.9375 C 177.882812 133.792969 179.039062 134.722656 180.199219 135.640625 C 181.761719 136.875 183.273438 138.171875 184.734375 139.515625 C 184.894531 139.667969 185.0625 139.8125 185.222656 139.960938 C 186.695312 141.335938 188.105469 142.769531 189.472656 144.246094 C 190.917969 145.816406 192.296875 147.445312 193.601562 149.132812 C 194.46875 150.246094 195.367188 151.34375 196.167969 152.507812 C 197.28125 154.128906 198.308594 155.796875 199.28125 157.5 C 200.796875 160.160156 202.136719 162.910156 203.273438 165.730469 C 203.769531 165.621094 204.261719 165.507812 204.757812 165.386719 C 206.554688 164.953125 208.335938 164.46875 210.082031 163.914062 C 210.761719 163.703125 211.425781 163.464844 212.09375 163.230469 C 211.4375 161.695312 210.730469 160.179688 209.96875 158.695312 C 208.671875 156.128906 207.238281 153.648438 205.675781 151.269531 Z M 205.675781 151.269531 " fill-opacity="1" fill-rule="nonzero"/><path fill="#ba905d" d="M 192.914062 153.328125 C 192.296875 152.429688 191.683594 151.519531 191.019531 150.65625 C 190.261719 149.675781 189.457031 148.742188 188.65625 147.808594 C 187.105469 145.996094 185.484375 144.257812 183.777344 142.605469 C 183.324219 142.167969 182.851562 141.75 182.386719 141.324219 C 181.363281 140.386719 180.324219 139.46875 179.253906 138.585938 C 178.066406 137.605469 176.855469 136.65625 175.609375 135.75 C 175.160156 135.417969 174.699219 135.101562 174.238281 134.78125 C 158.679688 123.910156 139.433594 118.691406 120.824219 120.113281 C 119.199219 120.226562 117.578125 120.386719 115.957031 120.597656 C 115.589844 120.644531 115.222656 120.722656 114.855469 120.78125 C 115.503906 122.242188 116.191406 123.683594 116.925781 125.101562 C 117.570312 125.042969 118.21875 125.019531 118.863281 124.976562 C 119.597656 124.929688 120.332031 124.859375 121.066406 124.835938 C 133.433594 124.519531 145.792969 127.125 156.832031 132.476562 C 162.292969 135.070312 167.433594 138.3125 172.082031 142.105469 C 172.570312 142.503906 173.035156 142.921875 173.507812 143.332031 C 173.851562 143.628906 174.1875 143.925781 174.523438 144.21875 C 175.433594 145.035156 176.3125 145.871094 177.179688 146.726562 C 178.835938 148.363281 180.429688 150.0625 181.902344 151.855469 C 182.851562 153.011719 183.761719 154.199219 184.625 155.425781 C 185.566406 156.765625 186.453125 158.148438 187.296875 159.546875 C 188.816406 162.078125 190.15625 164.703125 191.28125 167.40625 C 191.738281 167.378906 192.1875 167.339844 192.640625 167.300781 C 194.949219 167.121094 197.226562 166.84375 199.472656 166.46875 C 199.621094 166.441406 199.773438 166.414062 199.921875 166.390625 C 199.742188 165.9375 199.566406 165.480469 199.375 165.03125 C 197.621094 160.890625 195.4375 156.96875 192.914062 153.328125 Z M 192.914062 153.328125 " fill-opacity="1" fill-rule="nonzero"/><path fill="#ba905d" d="M 181.421875 156.21875 C 180.609375 155.125 179.769531 154.050781 178.898438 153.011719 C 178.164062 152.152344 177.371094 151.351562 176.597656 150.53125 C 175.367188 149.226562 174.09375 147.976562 172.769531 146.773438 C 172.269531 146.316406 171.789062 145.84375 171.277344 145.402344 C 171.167969 145.308594 171.0625 145.199219 170.949219 145.105469 C 168.019531 142.621094 164.894531 140.386719 161.625 138.441406 C 155.183594 134.613281 148.234375 131.851562 141.0625 130.003906 C 134.566406 128.453125 127.855469 127.746094 121.1875 127.917969 C 120.292969 127.9375 119.398438 127.949219 118.507812 128.007812 C 119.292969 129.386719 120.117188 130.734375 120.984375 132.0625 C 122.433594 132.066406 123.878906 132.097656 125.324219 132.203125 C 130.222656 132.539062 135.085938 133.402344 139.765625 134.804688 C 146.363281 136.78125 152.644531 139.847656 158.238281 143.75 C 159.308594 144.496094 160.339844 145.300781 161.359375 146.109375 C 164.53125 148.617188 167.445312 151.417969 169.984375 154.5 C 170.542969 155.175781 171.058594 155.878906 171.574219 156.585938 C 171.90625 157.03125 172.273438 157.453125 172.589844 157.914062 C 173.839844 159.707031 174.941406 161.589844 175.917969 163.527344 C 176.5 164.675781 177.035156 165.851562 177.507812 167.039062 C 178.824219 167.1875 180.148438 167.300781 181.484375 167.390625 C 183.117188 167.492188 184.765625 167.5625 186.425781 167.5625 C 186.855469 167.5625 187.285156 167.535156 187.714844 167.53125 C 187.84375 167.53125 187.972656 167.523438 188.097656 167.519531 C 187.929688 167.15625 187.753906 166.800781 187.585938 166.441406 C 185.863281 162.792969 183.773438 159.382812 181.421875 156.21875 Z M 181.421875 156.21875 " fill-opacity="1" fill-rule="nonzero"/><path fill="#ba905d" d="M 169.621094 159.558594 C 168.519531 157.929688 167.355469 156.347656 166.078125 154.890625 C 163.09375 151.457031 159.714844 148.472656 156.058594 145.917969 C 149.75 141.496094 142.625 138.359375 135.265625 136.507812 C 133.21875 136.015625 131.140625 135.65625 129.054688 135.359375 C 126.992188 135.070312 124.925781 134.867188 122.84375 134.78125 C 123.832031 136.164062 124.855469 137.523438 125.933594 138.835938 C 128.71875 139.242188 131.46875 139.847656 134.148438 140.632812 C 144.804688 143.933594 154.628906 150.222656 161.289062 158.84375 C 162.691406 160.648438 163.90625 162.570312 164.976562 164.546875 C 166.550781 165 168.140625 165.402344 169.753906 165.757812 C 170.371094 165.890625 170.984375 166.015625 171.605469 166.136719 C 172.238281 166.253906 172.867188 166.367188 173.5 166.472656 C 172.875 165.066406 172.179688 163.691406 171.414062 162.363281 C 170.867188 161.398438 170.246094 160.476562 169.621094 159.558594 Z M 169.621094 159.558594 " fill-opacity="1" fill-rule="nonzero"/><path fill="#ba905d" d="M 130.664062 142.839844 C 130.171875 142.726562 129.671875 142.644531 129.179688 142.546875 C 137.613281 151.628906 148.15625 158.703125 160.039062 162.976562 C 158.921875 161.210938 157.703125 159.523438 156.347656 157.988281 C 149.511719 150.210938 140.308594 145.210938 130.664062 142.839844 Z M 130.664062 142.839844 " fill-opacity="1" fill-rule="nonzero"/><path fill="#640029" d="M 235.230469 80.5 C 234.101562 80.789062 232.996094 81.164062 231.878906 81.5 L 231.878906 66.542969 L 251.976562 66.390625 L 252.074219 66.433594 L 252.074219 77.707031 C 246.398438 78.175781 240.761719 79.066406 235.230469 80.5 Z M 235.230469 80.5 " fill-opacity="1" fill-rule="nonzero"/><g clip-path="url(#b2946ce197)"><path fill="#ba905d" d="M 191.070312 275.78125 C 190.671875 263.679688 190.5 251.578125 190.214844 239.472656 L 189.964844 221.3125 C 189.921875 215 190.816406 208.671875 192.609375 202.59375 C 194.425781 196.53125 197.0625 190.660156 200.703125 185.414062 C 204.339844 180.179688 208.816406 175.511719 213.964844 171.714844 C 216.527344 169.792969 219.292969 168.167969 222.136719 166.699219 C 224.789062 165.351562 227.3125 164.007812 229.789062 162.457031 C 234.722656 159.382812 239.324219 155.78125 243.515625 151.757812 C 251.835938 143.65625 258.679688 133.960938 263.105469 123.160156 C 267.558594 112.449219 269.730469 100.546875 269.332031 89.082031 C 268.957031 83.347656 267.847656 77.417969 266.605469 71.578125 C 265.34375 65.722656 263.886719 59.886719 262.320312 54.078125 C 259.214844 42.457031 255.808594 30.8125 251.589844 19.636719 L 251.574219 19.59375 C 251.332031 18.957031 251.652344 18.246094 252.289062 18.003906 C 252.886719 17.773438 253.554688 18.054688 253.832031 18.621094 C 256.496094 24.164062 258.671875 29.832031 260.765625 35.542969 C 262.839844 41.261719 264.84375 46.996094 266.652344 52.808594 C 268.429688 58.625 270.105469 64.480469 271.589844 70.410156 C 273.054688 76.355469 274.410156 82.316406 275.039062 88.648438 C 276.476562 113.878906 266.257812 139.183594 248.03125 156.496094 C 243.480469 160.8125 238.492188 164.652344 233.15625 167.929688 C 230.503906 169.570312 227.683594 171.042969 224.945312 172.410156 C 222.421875 173.703125 219.953125 175.113281 217.671875 176.808594 C 208.46875 183.492188 201.632812 193.339844 198.105469 204.300781 C 196.332031 209.78125 195.371094 215.539062 195.257812 221.328125 L 194.996094 239.472656 C 194.710938 251.574219 194.539062 263.675781 194.140625 275.78125 C 194.117188 276.632812 193.40625 277.296875 192.558594 277.269531 C 191.742188 277.242188 191.101562 276.585938 191.070312 275.78125 Z M 191.070312 275.78125 " fill-opacity="1" fill-rule="nonzero"/></g><g clip-path="url(#492bb0c4a8)"><path fill="#ba905d" d="M 120.90625 19.4375 C 117.386719 29.222656 114.4375 39.253906 111.5 49.25 C 108.683594 59.269531 106.023438 69.375 104.214844 79.53125 C 103.789062 82.0625 103.371094 84.609375 103.164062 87.117188 C 102.875 89.65625 102.910156 92.015625 102.984375 94.613281 C 103.179688 99.691406 103.867188 104.742188 104.964844 109.691406 C 107.203125 119.578125 111.0625 129.109375 116.613281 137.605469 C 122.085938 146.144531 129.164062 153.648438 137.324219 159.699219 C 141.417969 162.722656 145.757812 165.324219 150.347656 167.625 C 155.203125 170.054688 159.683594 173.230469 163.601562 176.976562 C 171.453125 184.46875 177.011719 194.191406 179.800781 204.589844 C 181.1875 209.792969 181.902344 215.171875 181.925781 220.539062 L 181.792969 236.246094 C 181.789062 237.097656 181.09375 237.777344 180.246094 237.769531 C 179.414062 237.765625 178.738281 237.082031 178.726562 236.246094 L 178.53125 220.59375 C 178.402344 215.515625 177.625 210.457031 176.214844 205.589844 C 173.441406 195.855469 168.117188 186.847656 160.753906 180.011719 C 157.078125 176.589844 152.910156 173.722656 148.410156 171.542969 C 143.648438 169.242188 138.96875 166.527344 134.628906 163.40625 C 125.941406 157.152344 118.351562 149.324219 112.429688 140.351562 C 106.53125 131.378906 102.207031 121.304688 100.019531 110.761719 C 98.949219 105.488281 98.316406 100.125 98.195312 94.757812 C 98.132812 92.132812 98.226562 89.25 98.636719 86.605469 C 98.960938 83.914062 99.492188 81.3125 100.027344 78.710938 C 102.265625 68.351562 105.316406 58.308594 108.523438 48.324219 C 111.769531 38.355469 115.304688 28.5 119.402344 18.820312 C 119.578125 18.40625 120.058594 18.210938 120.472656 18.386719 C 120.871094 18.558594 121.066406 19.007812 120.921875 19.414062 Z M 120.90625 19.4375 " fill-opacity="1" fill-rule="nonzero"/></g><g fill="#d9a566" fill-opacity="1"><g transform="translate(26.101568, 340.566456)"><g><path d="M 3.628906 -29.734375 L 15.632812 0 L 17.574219 0 L 29.121094 -29.734375 C 30.449219 -33.160156 31.777344 -34.488281 33.3125 -35.046875 L 33.3125 -35.765625 L 27.386719 -35.765625 L 27.386719 -35.046875 C 29.121094 -34.640625 29.480469 -33.160156 28.152344 -29.734375 L 18.902344 -5.875 L 9.503906 -29.734375 C 8.175781 -33.160156 7.511719 -34.488281 9.195312 -35.046875 L 9.195312 -35.765625 L -0.203125 -35.765625 L -0.203125 -35.046875 C 0.972656 -34.488281 2.300781 -33.160156 3.628906 -29.734375 Z M 3.628906 -29.734375 "/></g></g></g><g fill="#d9a566" fill-opacity="1"><g transform="translate(59.197204, 340.566456)"><g><path d="M 2.402344 0 L 11.902344 0 L 11.902344 -0.714844 C 10.21875 -1.277344 9.859375 -2.808594 9.859375 -6.488281 L 9.859375 -29.273438 C 9.859375 -32.953125 10.21875 -34.488281 11.902344 -35.046875 L 11.902344 -35.765625 L 2.402344 -35.765625 L 2.402344 -35.046875 C 4.085938 -34.488281 4.445312 -32.953125 4.445312 -29.273438 L 4.445312 -6.488281 C 4.445312 -2.808594 4.085938 -1.277344 2.402344 -0.714844 Z M 2.402344 0 "/></g></g></g><g fill="#d9a566" fill-opacity="1"><g transform="translate(73.497794, 340.566456)"><g><path d="M 29.328125 0.410156 L 29.992188 0.410156 L 29.992188 -29.273438 C 29.992188 -32.953125 30.347656 -34.488281 32.035156 -35.046875 L 32.035156 -35.765625 L 25.136719 -35.765625 L 25.136719 -35.046875 C 27.792969 -34.230469 29.019531 -32.441406 29.019531 -26.210938 L 29.019531 -8.890625 L 7.5625 -35.765625 L 1.789062 -35.765625 L 1.789062 -35.046875 C 3.984375 -34.488281 4.445312 -32.953125 4.445312 -29.273438 L 4.445312 -6.488281 C 4.445312 -2.808594 4.085938 -1.277344 2.402344 -0.714844 L 2.402344 0 L 9.246094 0 L 9.246094 -0.714844 C 6.589844 -1.53125 5.363281 -3.320312 5.363281 -9.554688 L 5.363281 -29.835938 Z M 29.328125 0.410156 "/></g></g></g><g fill="#d9a566" fill-opacity="1"><g transform="translate(107.308471, 340.566456)"><g><path d="M 21.050781 0.511719 C 29.632812 0.511719 39.289062 -5.261719 39.289062 -17.730469 C 39.289062 -30.246094 29.683594 -36.171875 21.050781 -36.171875 C 10.21875 -36.171875 2.757812 -28.152344 2.757812 -18.035156 C 2.757812 -5.210938 12.363281 0.511719 21.050781 0.511719 Z M 8.074219 -21.152344 C 7.511719 -29.429688 11.445312 -34.84375 18.394531 -34.84375 C 27.230469 -34.84375 33.363281 -24.574219 34.128906 -13.691406 C 34.589844 -6.949219 31.777344 -1.074219 23.960938 -1.074219 C 15.277344 -1.074219 8.789062 -10.933594 8.074219 -21.152344 Z M 8.074219 -21.152344 "/></g></g></g><g fill="#d9a566" fill-opacity="1"><g transform="translate(149.188764, 340.566456)"><g/></g></g><g fill="#d9a566" fill-opacity="1"><g transform="translate(159.403463, 340.566456)"><g><path d="M 28.40625 0.359375 C 29.273438 0.359375 30.910156 0.304688 32.085938 0 L 32.085938 -0.714844 C 31.828125 -0.664062 31.574219 -0.664062 31.320312 -0.664062 C 29.429688 -0.664062 28.867188 -1.890625 26.160156 -8.683594 C 23.449219 -15.480469 22.328125 -17.882812 16.554688 -18.546875 C 23.347656 -19.363281 26.566406 -22.890625 26.566406 -27.589844 C 26.566406 -31.726562 24.269531 -35.765625 13.128906 -35.765625 L 2.402344 -35.765625 L 2.402344 -35.046875 C 4.085938 -34.488281 4.445312 -32.953125 4.445312 -29.273438 L 4.445312 -6.488281 C 4.445312 -2.808594 4.085938 -1.277344 2.402344 -0.714844 L 2.402344 0 L 11.902344 0 L 11.902344 -0.714844 C 10.21875 -1.277344 9.859375 -2.808594 9.859375 -6.488281 L 9.859375 -18.339844 L 12.875 -18.339844 C 17.371094 -18.339844 17.625 -15.839844 20.691406 -8.378906 C 23.144531 -2.402344 24.167969 0.359375 28.40625 0.359375 Z M 9.859375 -19.160156 L 9.859375 -34.792969 C 10.628906 -34.894531 11.394531 -34.945312 12.109375 -34.945312 C 18.496094 -34.945312 21.152344 -30.5 21.152344 -26.363281 C 21.152344 -22.429688 18.953125 -19.160156 13.128906 -19.160156 Z M 9.859375 -19.160156 "/></g></g></g><g fill="#d9a566" fill-opacity="1"><g transform="translate(190.966892, 340.566456)"><g><path d="M 18.851562 0.511719 C 26.3125 0.511719 31.675781 -3.628906 31.675781 -13.898438 L 31.675781 -29.273438 C 31.675781 -32.953125 32.035156 -34.488281 33.71875 -35.046875 L 33.71875 -35.765625 L 26.875 -35.765625 L 26.875 -35.046875 C 29.53125 -34.230469 30.757812 -32.441406 30.757812 -26.210938 L 30.757812 -13.792969 C 30.757812 -3.882812 25.1875 -0.714844 20.894531 -0.714844 C 13.949219 -0.714844 9.351562 -4.191406 9.351562 -13.488281 L 9.351562 -29.273438 C 9.351562 -32.953125 9.707031 -34.488281 11.394531 -35.046875 L 11.394531 -35.765625 L 1.890625 -35.765625 L 1.890625 -35.046875 C 3.578125 -34.488281 3.933594 -32.953125 3.933594 -29.273438 L 3.933594 -13.898438 C 3.933594 -2.914062 11.496094 0.511719 18.851562 0.511719 Z M 18.851562 0.511719 "/></g></g></g><g fill="#d9a566" fill-opacity="1"><g transform="translate(226.054401, 340.566456)"><g><path d="M 28.40625 0.359375 C 29.273438 0.359375 30.910156 0.304688 32.085938 0 L 32.085938 -0.714844 C 31.828125 -0.664062 31.574219 -0.664062 31.320312 -0.664062 C 29.429688 -0.664062 28.867188 -1.890625 26.160156 -8.683594 C 23.449219 -15.480469 22.328125 -17.882812 16.554688 -18.546875 C 23.347656 -19.363281 26.566406 -22.890625 26.566406 -27.589844 C 26.566406 -31.726562 24.269531 -35.765625 13.128906 -35.765625 L 2.402344 -35.765625 L 2.402344 -35.046875 C 4.085938 -34.488281 4.445312 -32.953125 4.445312 -29.273438 L 4.445312 -6.488281 C 4.445312 -2.808594 4.085938 -1.277344 2.402344 -0.714844 L 2.402344 0 L 11.902344 0 L 11.902344 -0.714844 C 10.21875 -1.277344 9.859375 -2.808594 9.859375 -6.488281 L 9.859375 -18.339844 L 12.875 -18.339844 C 17.371094 -18.339844 17.625 -15.839844 20.691406 -8.378906 C 23.144531 -2.402344 24.167969 0.359375 28.40625 0.359375 Z M 9.859375 -19.160156 L 9.859375 -34.792969 C 10.628906 -34.894531 11.394531 -34.945312 12.109375 -34.945312 C 18.496094 -34.945312 21.152344 -30.5 21.152344 -26.363281 C 21.152344 -22.429688 18.953125 -19.160156 13.128906 -19.160156 Z M 9.859375 -19.160156 "/></g></g></g><g fill="#d9a566" fill-opacity="1"><g transform="translate(257.617829, 340.566456)"><g><path d="M -1.074219 0 L 4.855469 0 L 4.855469 -0.714844 C 3.117188 -1.125 2.808594 -2.605469 4.191406 -6.027344 L 7.152344 -13.335938 L 20.792969 -13.335938 L 23.859375 -5.976562 C 25.289062 -2.605469 26.003906 -1.277344 24.320312 -0.714844 L 24.320312 0 L 33.617188 0 L 33.617188 -0.714844 C 32.441406 -1.277344 31.113281 -2.605469 29.683594 -5.976562 L 17.011719 -36.171875 L 12.007812 -33.925781 L 12.671875 -32.492188 C 13.128906 -31.574219 13.179688 -30.757812 12.773438 -29.734375 L 3.21875 -6.027344 C 1.839844 -2.605469 0.460938 -1.277344 -1.074219 -0.714844 Z M 7.460938 -14.152344 L 13.847656 -29.941406 L 20.4375 -14.152344 Z M 7.460938 -14.152344 "/></g></g></g><g fill="#d9a566" fill-opacity="1"><g transform="translate(290.458111, 340.566456)"><g><path d="M 2.402344 0 L 26.722656 0 L 27.128906 -6.4375 L 26.464844 -6.539062 C 24.421875 -2.144531 21.765625 -0.917969 16.605469 -0.917969 L 12.414062 -0.917969 C 10.78125 -0.917969 9.859375 -1.839844 9.859375 -3.472656 L 9.859375 -29.273438 C 9.859375 -32.953125 10.21875 -34.488281 11.902344 -35.046875 L 11.902344 -35.765625 L 2.402344 -35.765625 L 2.402344 -35.046875 C 4.085938 -34.488281 4.445312 -32.953125 4.445312 -29.273438 L 4.445312 -6.488281 C 4.445312 -2.808594 4.085938 -1.277344 2.402344 -0.714844 Z M 2.402344 0 "/></g></g></g><g fill="#d9a566" fill-opacity="1"><g transform="translate(318.497481, 340.566456)"><g><path d="M 2.402344 0 L 28.253906 0 L 28.609375 -7.460938 L 27.945312 -7.5625 C 26.003906 -2.351562 22.480469 -0.816406 17.320312 -0.816406 L 12.414062 -0.816406 C 10.78125 -0.816406 9.859375 -1.738281 9.859375 -3.371094 L 9.859375 -18.800781 L 14.765625 -18.800781 C 21 -18.800781 22.785156 -17.574219 23.605469 -14.917969 L 24.320312 -14.917969 L 24.320312 -23.503906 L 23.605469 -23.503906 C 22.785156 -20.84375 21 -19.617188 14.765625 -19.617188 L 9.859375 -19.617188 L 9.859375 -34.945312 L 15.839844 -34.945312 C 21.558594 -34.945312 24.777344 -33.414062 26.824219 -28.40625 L 27.488281 -28.558594 L 26.925781 -35.765625 L 2.402344 -35.765625 L 2.402344 -35.046875 C 4.085938 -34.488281 4.445312 -32.953125 4.445312 -29.273438 L 4.445312 -6.488281 C 4.445312 -2.808594 4.085938 -1.277344 2.402344 -0.714844 Z M 2.402344 0 "/></g></g></g></svg>